<svg id="d8a31f8c-0418-4d05-9a2e-286d00315f15" data-name="6f91a4b4-cd2b-4919-b3c9-a4ad64221ef4" xmlns="http://www.w3.org/2000/svg" viewBox="0 0 915 449"><defs><style>.\32 9f44bed-276c-4024-ac33-79f299d0a550{fill:#c2fcdb;}.ece04bbe-3522-4e9b-ba49-4a80187e6c73{fill:#f9cc9d;stroke:#fff;stroke-miterlimit:10;stroke-width:4px;}.\35 d25fe7f-9227-4958-834d-7db77ab34f47{fill:#fff;}</style></defs><title>LOGOport</title><rect class="29f44bed-276c-4024-ac33-79f299d0a550" width="915" height="449"/><path class="ece04bbe-3522-4e9b-ba49-4a80187e6c73" d="M99.2,86.3A38.07871,38.07871,0,0,0,91,100.1a53.11212,53.11212,0,0,0-2.8,18.1V127h33.2q6.9,0,11.1,3.9a13.23913,13.23913,0,0,1,4.2,10.4,13.0103,13.0103,0,0,1-4.2,9.8q-4.2,3.9-11.1,3.9H88.1V282c0,5-1.5,9-4.6,12-3,3-7.3,4.6-12.7,4.6A15.16758,15.16758,0,0,1,59.6,294c-3.2-3-4.7-7-4.7-12V155h-14a15.82959,15.82959,0,0,1-11.1-3.9,12.52074,12.52074,0,0,1-4.2-9.8,13.58394,13.58394,0,0,1,4.2-10.4Q34,127,40.9,127h14v-5.5q0-23.1,9.3-40.5a66.915,66.915,0,0,1,26-27c11.2-6.4,23.9-9.6,38.3-9.6a17.70049,17.70049,0,0,1,11.9,4.2,13.68915,13.68915,0,0,1,4.7,10.7A13.68918,13.68918,0,0,1,140.4,70a16.75459,16.75459,0,0,1-11.9,4.2C116.3,74.3,106.5,78.3,99.2,86.3Z" transform="translate(23 30)"/><path class="ece04bbe-3522-4e9b-ba49-4a80187e6c73" d="M452.6,270.6a17.277,17.277,0,0,1,4.1,11.7,14.64973,14.64973,0,0,1-5.4,11.7,20.88367,20.88367,0,0,1-13.8,4.6h-5.9a53.50083,53.50083,0,0,1-29.1-8.3,57.72758,57.72758,0,0,1-20.7-22.6c-5-9.5-7.5-20.3-7.5-32.2V155h-15a15.82958,15.82958,0,0,1-11.1-3.9,12.52087,12.52087,0,0,1-4.2-9.8,13.58384,13.58384,0,0,1,4.2-10.4q4.2-3.9,11.1-3.9h15V80.1a16.30491,16.30491,0,0,1,32.6-.8V127h27.7a15.82958,15.82958,0,0,1,11.1,3.9,13.23925,13.23925,0,0,1,4.2,10.4,13.01024,13.01024,0,0,1-4.2,9.8q-4.2,3.9-11.1,3.9H406.9v80.4c0,8.7,2.4,16,7.2,21.8,4.8,5.9,10.6,8.8,17.6,8.8h11.1A12.86573,12.86573,0,0,1,452.6,270.6Z" transform="translate(23 30)"/><path class="ece04bbe-3522-4e9b-ba49-4a80187e6c73" d="M509.2,288.2a83.30866,83.30866,0,0,1-32.1-32.4c-7.7-13.8-11.6-29.1-11.6-46.1,0-17.4,3.7-32.9,11.2-46.7a80.40881,80.40881,0,0,1,31.4-32.2c13.5-7.7,28.7-11.5,45.6-11.6q38.4,0,63.8,29.3a12.018,12.018,0,0,1,3.2,8.5c0,4.8-2.4,8.8-7.2,12.1a13.27383,13.27383,0,0,1-7.5,2.3,16.33468,16.33468,0,0,1-12.7-5.9,52.48436,52.48436,0,0,0-17.7-12.9,57.28416,57.28416,0,0,0-22-4.1c-16.7,0-30.3,5.6-40.7,16.8s-15.6,26-15.6,44.4c0,11.7,2.4,22.2,7.3,31.4a54.87432,54.87432,0,0,0,20.5,21.7c8.8,5.2,18.8,7.8,30.1,7.8,14.8,0,26.7-3.8,35.8-11.4,4.1-3,8.1-4.6,12-4.6a13.871,13.871,0,0,1,8.5,2.9c4.1,3.5,6.2,7.4,6.2,11.7a11.98142,11.98142,0,0,1-3.9,8.8c-15.6,14.5-35.2,21.8-58.6,21.8C538.3,299.9,522.9,296,509.2,288.2Z" transform="translate(23 30)"/><path class="ece04bbe-3522-4e9b-ba49-4a80187e6c73" d="M775,128.6a68.67284,68.67284,0,0,1,28,28.5c6.7,12.5,10.1,27.5,10.1,45.1v80.1a16.60272,16.60272,0,0,1-33.2.6V202.2c0-17.6-4.7-30.9-14.2-39.9-9.4-9-22-13.5-37.6-13.5a56.548,56.548,0,0,0-24.9,5.5,44.01729,44.01729,0,0,0-17.6,15,36.91305,36.91305,0,0,0-6.3,21.2v91.8a16.51734,16.51734,0,0,1-4.6,11.9c-3,3.2-7.1,4.7-12.1,4.7a16.17922,16.17922,0,0,1-16.6-15.7V60.9a16.35,16.35,0,0,1,4.7-12.1,16.51721,16.51721,0,0,1,11.9-4.6c5,0,9,1.5,12.1,4.6a16.51873,16.51873,0,0,1,4.6,12.1v79.8a72.31239,72.31239,0,0,1,24.7-16.1,81.87786,81.87786,0,0,1,30.6-5.7C749.6,118.9,763.1,122.1,775,128.6Z" transform="translate(23 30)"/><path d="M246.3,195.4V183.1l11.9-8.8c6.6-6.3,2.6-15,2.6-15-2.6-3.8-15.9-5-15.9-5h-5.3s-13.2,1.3-15.9,5c0,0-4,8.8,2.6,15l11.9,8.8v12.3" transform="translate(23 30)"/><circle cx="234.60001" cy="209.60001" r="1.60001"/><circle cx="205.2136" cy="189.06793" r="1.59995" transform="translate(35.4568 420.82055) rotate(-88.96134)"/><circle cx="219.4124" cy="189.06727" r="1.59995" transform="translate(49.39887 435.01637) rotate(-88.96134)"/><circle cx="292.89999" cy="209.60001" r="1.60001"/><circle cx="263.58699" cy="189.043" r="1.59995" transform="translate(92.79698 479.15988) rotate(-88.96134)"/><circle cx="277.78588" cy="189.04236" r="1.59995" transform="translate(106.73912 493.35581) rotate(-88.96134)"/><path class="ece04bbe-3522-4e9b-ba49-4a80187e6c73" d="M320.2,217a15.28128,15.28128,0,0,1-10.7,4.1H185.8c2.4,15.2,9.3,27.5,20.7,36.8s25.3,14,41.8,14a63.7827,63.7827,0,0,0,20.3-3.6,60.69449,60.69449,0,0,0,17.4-8.8,16.87075,16.87075,0,0,1,10.7-3.6c4.1,0,7.4,1.1,9.8,3.2,3.9,3.3,5.9,7,5.9,11.1a11.76829,11.76829,0,0,1-5.2,9.8c-7.4,5.9-16.6,10.6-27.5,14.3a98.75918,98.75918,0,0,1-31.4,5.5c-17.8,0-33.8-3.9-47.9-11.6a83.50031,83.50031,0,0,1-33-32.1c-7.9-13.7-11.9-29.2-11.9-46.6s3.7-32.9,11.2-46.7A80.79717,80.79717,0,0,1,198,130.6c13.3-7.7,28.5-11.5,45.4-11.6,16.7,0,31.2,3.7,43.3,11.1a73.31654,73.31654,0,0,1,28,30.9c6.5,13.2,9.8,28.4,9.8,45.6A13.73246,13.73246,0,0,1,320.2,217Zm-75.5-26.4c20.6,10.3,35.6,13.9,42.6,6.3s-.2-28-9.1-36.7-20.5-13-34.8-13c-15.8,0-28.7,4.3-38.6,13s-14,27-9,35.1,23.6,10.7,44.2-4.7" transform="translate(23 30)"/><ellipse class="5d25fe7f-9227-4958-834d-7db77ab34f47" cx="228.10182" cy="162.21261" rx="3.89996" ry="3.19997" transform="translate(-24.89216 238.80332) rotate(-45)"/></svg>