<svg id="40b44537-b2da-42c5-8f4f-b33a53f8e966" data-name="Layer 1" xmlns="http://www.w3.org/2000/svg" viewBox="0 0 487.28 396.08"><defs><style>.\34 7b12f79-f47f-4384-8dbd-e0b569a8e013{fill:#f9cc9d;}.ad3c47b0-fc22-408b-afb1-48ba93c036f5{fill:#fff;}.d8cde288-3683-4831-b54a-be69749e51d0{fill:#d00000;}.fc89f77b-6aca-4890-80c9-194a1d7e6056{fill:none;stroke:#fff;stroke-linecap:round;stroke-miterlimit:10;stroke-width:18px;}</style></defs><title>dogicons FINAL-reduce</title><ellipse class="47b12f79-f47f-4384-8dbd-e0b569a8e013" cx="282.50418" cy="200.05227" rx="168.5" ry="166.5"/><path class="ad3c47b0-fc22-408b-afb1-48ba93c036f5" d="M340.00284,97.72267c-4.17609-1.02126-10.12984-1.14689-14.51918-3.83088-8.81568-5.39061-17.64336-3.68438-26.34157-1.595-5.34453,1.2838-9.93579.82135-15.2-.02644a75.9736,75.9736,0,0,0-22.921-.14992c-6.40358.95088-12.45938,4.24391-18.702,6.51292-3.7434-10.40136-9.34672-18.3251-17.967-22.18737-9.38892-4.20666-18.60172-8.71973-29.48249-10.30689-11.30618-1.64923-22.05427.02829-33.02441.22386-1.61676.02882-4.67034,3.37958-4.52175,4.95385.995,10.54083,2.83437,20.99919,4.013,31.52761.25541,2.28148-1.76075,4.81286-1.51894,7.1011.64849,6.13717,1.83036,12.23,3.06155,18.28735.46021,2.26429,2.85005,4.80617,2.26029,6.4829-1.50131,4.2683-.03742,6.34186,2.371,6.97717,2.868,9.83492-1.07586,19.74614,5.59178,28.6477l5.06342-6.27374c1.80214,3.64564,3.2447,6.19393,4.336,8.88463a70.18837,70.18837,0,0,1,2.15639,7.13525c.89817,3.14061,2.3383,6.26012,2.50348,9.44277a56.21781,56.21781,0,0,1-1.08232,12.14782c-.66742,3.94614-1.13919,8.198-3.00441,11.59856-2.23494,4.07456-1.79738,6.00386,2.61094,6.88137-.54367,2.6901-1.39694,5.137-1.44963,7.60109-.0736,3.44146.6209,6.89246.68609,10.34507.17817,9.43627.1974,18.87552.29383,28.31347.00173.17049.18108.33912.92778,1.65118,2.26673-1.43611,4.75912-2.55974,6.64625-4.32893,2.23391-2.09428,3.82059-4.86509,5.94991-7.092A4.73893,4.73893,0,0,1,202.212,255.487c.59153.054,1.307,1.62071,1.50746,2.59825.93632,4.56661,1.09595,9.40127,2.72936,13.68387,1.47065,3.8559,4.509,10.0778,6.83029,10.06633,5.96836-.02943,4.25983,4.13876,5.58166,6.6466a15.41307,15.41307,0,0,1,.74315,2.00741c1.73678.25993,3.19935.47882,3.60418.53944,2.26452,6.01022,3.17517,12.03262,6.43246,16.237,5.02861,6.49062,11.65832,11.742,17.63337,17.49366a1.36915,1.36915,0,0,0,1.1089.28615c4.883-1.32834,8.15742,1.83567,11.915,3.95,1.21488.6836,3.21762-.03308,4.86-.10923-.16242-1.44022-.23-2.9-.52131-4.31365a18.70861,18.70861,0,0,0-1.2304-3.00284c3.38817-1.37878,6.59663-3.66316,9.85866-3.74242,3.40864-.0828,6.86885,1.95615,10.30651,3.0676,2.13194,1.32409,3.78535,3.67266,5.29308,6.11127,1.83835,2.97337,3.67094,3.32971,5.65269.20021,1.62939-2.57314,3.21888-5.1716,4.82606-7.75881l.68587,1.39571c3.01993-1.02665,6.03987-2.05331,10.31619-3.50706,2.10417.97411,5.75386,2.66376,8.40008,3.88883v8.10986c2.65565-.78848,5.35684-1.45415,7.94862-2.41486,1.39492-.51711,2.932-2.4958,3.84168-2.18208,6.70075,2.31106,9.35862-2.81128,12.844-6.503,1.14749-1.21536,2.30942-2.41883,3.50438-3.58718,2.24359-2.19358,5.31376-3.97049,6.59952-6.61988,2.23-4.595,3.35711-9.72431,4.963-14.62426.235-.71707.60263-2.03066.83609-2.01452,5.6801.39277,5.41538-4.25907,6.78452-7.63811.28026-.69175,1.66621-.94921,2.55713-1.37635,1.13621-.5448,2.765-.74325,3.35486-1.63671a45.49557,45.49557,0,0,0,7.35453-20.01993c.20371-1.74819.53251-3.48177,1.04433-6.76553,2.15932,3.73226,3.40522,5.88569,4.0669,7.02929a58.56478,58.56478,0,0,0-2.55249,6.59706c-.11895.45693,1.49308,1.95369,1.76191,1.82552a30.6795,30.6795,0,0,0,3.93788-2.48348c2.53309.7899,5.0439,1.57284,7.55474,2.35582.40913-2.74641.96282-5.48161,1.17743-8.24313.14727-1.896-1.03619-4.53436-.142-5.62331,4.01149-4.8855,1.75062-10.00409,1.35545-15.09108-.1472-1.89477-.89356-4.43309.01629-5.59432,3.10014-3.9565,2.0417-7.72744.01907-11.8963,5.09734-.63258,5.15492-3.06442,3.1668-6.54791a18.21579,18.21579,0,0,1-2.571-6.35585c-.98665-7.692-1.65653-15.42728-2.29838-23.15843a9.23142,9.23142,0,0,1,.748-4.39393c2.08263-4.59162,4.38755-9.08245,6.608-13.61161l-1.114-.47091,3.96767-1.75146,4.03671,3.637c1.065-1.36722,2.89125-2.64316,3.068-4.11688.94771-7.90354,1.48454-15.85638,2.1864-24.06153.91782-.81016,3.603-2.60557,3.38686-3.08066-1.70476-3.74626,1.26-6.41568,1.62453-9.54155,1-8.57712,2.4947-16.98133,1.94908-25.90593-.62592-10.23777,1.79155-20.72842,3.49056-31.00946.70486-4.26538-.66778-5.9174-4.4202-6.29026-5.35262-.53184-10.72643-.84881-16.08995-1.27307-2.07181-.16389-4.51178-1.17494-6.14692-.42-7.69622,3.55324-16.60913.19266-24.21624,5.13427-7.26937,4.72218-16.00411,7.30833-22.90854,12.4319C347.17181,85.65523,344.28595,91.93965,340.00284,97.72267Z"/><path d="M340.00284,97.72267c4.28311-5.783,7.169-12.06744,12.03741-15.6802,6.90443-5.12357,15.63916-7.70972,22.90854-12.4319,7.6071-4.94161,16.52-1.581,24.21624-5.13427,1.63514-.75492,4.07511.25614,6.14692.42,5.36352.42426,10.73732.74124,16.08995,1.27307,3.75242.37286,5.12505,2.02488,4.4202,6.29026-1.699,10.281-4.11647,20.77168-3.49056,31.00946.54562,8.9246-.94911,17.3288-1.94908,25.90593-.36448,3.12588-3.32928,5.7953-1.62453,9.54155.21618.47509-2.469,2.2705-3.38686,3.08066-.70186,8.20516-1.23869,16.158-2.1864,24.06153-.1767,1.47372-2.003,2.74966-3.068,4.11688l-4.03671-3.637-3.96767,1.75146,1.114.47091c-2.2204,4.52916-4.52532,9.02-6.608,13.61161a9.23142,9.23142,0,0,0-.748,4.39393c.64185,7.73116,1.31173,15.46644,2.29838,23.15843a18.21579,18.21579,0,0,0,2.571,6.35585c1.98812,3.48349,1.93054,5.91533-3.1668,6.54791,2.02262,4.16886,3.08107,7.9398-.01907,11.8963-.90985,1.16123-.16349,3.69955-.01629,5.59432.39517,5.087,2.656,10.20558-1.35545,15.09108-.89421,1.08895.28926,3.72734.142,5.62331-.2146,2.76152-.76829,5.49672-1.17746,8.24313-2.5108-.783-5.02161-1.56591-7.5547-2.35582a30.6795,30.6795,0,0,1-3.93788,2.48348c-.26883.12816-1.88085-1.3686-1.76191-1.82552a58.56478,58.56478,0,0,1,2.55249-6.59706c-.66167-1.1436-1.90757-3.297-4.0669-7.02929-.51183,3.28376-.84063,5.01734-1.04433,6.76553a45.49557,45.49557,0,0,1-7.35453,20.01993c-.58984.89346-2.21865,1.09191-3.35486,1.63671-.89092.42714-2.27688.6846-2.55713,1.37635-1.36913,3.379-1.10442,8.03088-6.78452,7.63811-.23346-.01615-.60105,1.29744-.83609,2.01452-1.60585,4.89995-2.73295,10.02925-4.963,14.62426-1.28576,2.6494-4.35594,4.42631-6.59952,6.61988-1.195,1.16835-2.35689,2.37182-3.50438,3.58718-3.48538,3.69173-6.14324,8.81407-12.844,6.503-.90971-.31373-2.44676,1.665-3.84168,2.18208-2.59178.96072-5.293,1.62639-7.94862,2.41486v-8.10986c-2.64622-1.22508-6.29591-2.91472-8.40008-3.88883-4.27632,1.45375-7.29625,2.48041-10.31619,3.50706l-.68587-1.39571c-1.60719,2.58721-3.19668,5.18567-4.82606,7.75881-1.98174,3.1295-3.81434,2.77317-5.65269-.20021-1.50773-2.43862-3.16113-4.78718-5.29308-6.11127-3.43766-1.11145-6.89787-3.1504-10.30651-3.0676-3.262.07926-6.47049,2.36364-9.85866,3.74242a18.70861,18.70861,0,0,1,1.2304,3.00284c.29135,1.41364.35889,2.87343.52131,4.31365-1.64235.07615-3.6451.79283-4.86.10923-3.75755-2.11435-7.032-5.27836-11.915-3.95a1.36915,1.36915,0,0,1-1.1089-.28615c-5.97506-5.75165-12.60476-11.003-17.63337-17.49366-3.25729-4.20434-4.16795-10.22675-6.43246-16.237-.40483-.06062-1.8674-.27951-3.60418-.53944a15.41307,15.41307,0,0,0-.74315-2.00741c-1.32182-2.50784.3867-6.676-5.58166-6.6466-2.32126.01147-5.35964-6.21043-6.83029-10.06633-1.63341-4.28261-1.793-9.11726-2.72936-13.68387-.20044-.97754-.91592-2.54424-1.50746-2.59825a4.73893,4.73893,0,0,0-3.47216,1.16021c-2.12932,2.22687-3.716,4.99768-5.94991,7.092-1.88712,1.76919-4.37951,2.89283-6.64625,4.32893-.7467-1.31205-.926-1.48069-.92778-1.65118-.09643-9.43795-.11566-18.8772-.29383-28.31347-.06519-3.45261-.75969-6.90361-.68609-10.34507.05269-2.46407.906-4.911,1.44963-7.60109-4.40832-.87751-4.84589-2.80681-2.61094-6.88137,1.86523-3.40051,2.337-7.65241,3.00441-11.59856a56.21781,56.21781,0,0,0,1.08232-12.14782c-.16519-3.18266-1.60531-6.30216-2.50348-9.44277a70.18837,70.18837,0,0,0-2.15639-7.13525c-1.09132-2.69071-2.53388-5.239-4.336-8.88463L173.102,170.3406c-6.66764-8.90157-2.72378-18.81278-5.59178-28.6477-2.40845-.63531-3.87235-2.70887-2.371-6.97717.58977-1.67673-1.80007-4.21861-2.26029-6.4829-1.23118-6.05735-2.41306-12.15018-3.06155-18.28735-.2418-2.28824,1.77436-4.81961,1.51894-7.1011-1.17861-10.52842-3.018-20.98678-4.013-31.52761-.14859-1.57427,2.905-4.925,4.52175-4.95385,10.97014-.19557,21.71824-1.87309,33.02441-.22386C205.7503,67.72622,214.96309,72.2393,224.352,76.446c8.62027,3.86227,14.2236,11.786,17.967,22.18737,6.24265-2.269,12.29845-5.562,18.702-6.51292a75.9736,75.9736,0,0,1,22.921.14992c5.26422.84779,9.85548,1.31024,15.2.02644,8.69821-2.08936,17.52589-3.79559,26.34157,1.595C329.873,96.57578,335.82675,96.70141,340.00284,97.72267Zm-80.01726,94.2166c2.97005,4.42148,6.94722,8.01808,7.78881,12.23974.86559,4.34211-1.328,9.29405-2.21756,14.16877,1.49749.53485,3.89621,1.33965,6.25662,2.24437,7.35385,2.81858,7.40382,2.80362,8.85254-4.99568,3.53033-.81175,7.19065-2.31165,10.85118-2.31219,3.75254-.00055,7.5053,1.466,11.154,2.26761,1.45231,7.90693,1.78193,8.06224,9.33542,4.9972,2.399-.97347,4.84369-1.83426,7.43594-2.81-3.883-4.55106-6.278-9.70047-3.63965-14.76244,2.29306-4.39946,6.52991-7.78581,10.08394-11.8199a20.22448,20.22448,0,0,0-3.52206-.93585c-8.46-.97011-11.35727-5.7407-8.54935-13.72177,1.31313-3.73227,2.05031-7.66583,3.09436-11.49563a8.43274,8.43274,0,0,1,.9869-1.67948c1.08627.96606,2.01473,1.79173,3.168,2.8174.94964-1.4986,1.73058-2.731,2.45083-3.8676,4.05847,2.11033,7.64475,4.164,12.09785,1.24888,1.62385-1.06305,4.099-1.02564,6.19832-1.092,1.39-.044,2.78742.8158,4.2082.92564,2.69262.20816,5.64867-.51881,8.06885.34187,16.47783,5.85986,30.736,14.38655,36.48025,32.41211.57512,1.80466,1.33749,3.54964,2.25,5.94459-.52654-21.89983-3.88837-42.21368-16.917-59.73866-.77554-1.04317-1.63207-2.7018-1.33149-3.75433,1.42264-4.98171-2.1759-6.618-5.1188-9.19148-5.82766-5.09608-12.44626-9.92606-16.40592-16.312a25.02389,25.02389,0,0,0-11.09756-10.16279,32.14476,32.14476,0,0,0-3.94052-1.04788c-6.946-2.23911-13.74267-5.40151-20.86041-6.50234-5.72929-.8861-12.02014-.0144-17.73284,1.40316a28.3084,28.3084,0,0,1-15.80264-.10727A38.08138,38.08138,0,0,0,266.498,95.30087c-8.43814,1.56263-16.684,4.57813-24.71858,7.72493a31.38206,31.38206,0,0,0-10.33028,7.26622c-3.66857,3.70652-6.54532,8.19382-9.78981,12.32374-4.78463,6.09031-14.98889,8.26526-13.60248,18.86211.0781.59689-.72227,1.34152-1.17823,1.97065-12.46331,17.19643-15.91638,36.91216-16.27317,59.066,1.64407-3.71729,2.8597-6.069,3.74579-8.539,3.57663-9.96951,9.85169-17.68761,19.33945-22.40429,8.8863-4.41764,17.33067-11.03571,28.37577-7.26012.46209.158,1.37721.07555,1.5687-.22332,2.67-4.16714,4.7924-.29149,7.28256.24288,3.85588.82745,7.87836.87854,11.8302,1.25881l.31928-1.81065c.69393,1.31989,1.38787,2.63979,2.08769,3.97092l3.92184-2.64872c.38509,3.01936.51334,5.51808,1.06316,7.92029.56169,2.45408,1.64446,4.78415,2.31027,7.2201,1.66689,6.0987-1.80566,10.80589-8.1457,11.22949C262.6425,191.58195,260.98961,191.82781,259.98558,191.93927ZM245.40467,227.495c-.15877,4.47889.79683,8.0526-.57421,9.787-2.7797,3.51633-9.67949,4.03005-7.32211,11.14313.1831.55248-1.48617,1.64857-2.16756,2.58441a4.97167,4.97167,0,0,0-.78015,1.86873c4.03457,2.38863.463,4.49962-.57962,5.9747-11.44521,16.19328-4.62489,32.22719.17149,48.28684a4.19935,4.19935,0,0,0,1.37085,1.79752c2.61009,2.19169,5.34782,4.23613,7.894,6.49754,1.726,1.533,3.21032,3.33811,5.19244,5.43353.62924-2.43683.98027-3.79625,1.52039-5.88792,2.717,2.49609,4.7942,4.40437,7.527,6.915a24.72562,24.72562,0,0,0-.44708-3.01617c-3.73679-11.81013-6.3242-23.81589-2.97895-36.07919.98124-3.59715,3.59022-7.06892,6.26821-9.79854,2.91081-2.96687,6.82367-4.93242,10.19612-7.472,1.84726-1.391,3.48091-3.06574,5.50268-4.87348-.503-.792-1.2152-1.90864-1.92277-3.02824-5.62649-8.90283-3.01683-16.25574,7.44278-18.18035a55.09257,55.09257,0,0,1,20.03623-.03308c10.51618,2.04307,12.78152,8.91073,7.30756,18.23193a15.19332,15.19332,0,0,0-1.33352,4.34254c1.99316.69471,2.93694.74979,3.42948,1.24958,1.204,1.22168,1.99537,3.54628,3.31217,3.84547,7.6125,1.72972,12.70247,7.11728,14.117,13.69594,1.75044,8.1414,1.199,16.907.71857,25.3503-.28765,5.05494-2.341,10.00943-3.60075,15.00907q.70789.60025,1.41578,1.20057c1.50733-2.67386,3.01467-5.34769,5.059-8.97417,1.77927,3.781,2.45819,5.22368,3.424,7.276,2.30152-2.91687,4.15219-5.38677,6.14224-7.7387,1.23476-1.45936,2.66043-2.761,4.03775-4.09494,1.53516-1.48669,3.71784-2.65093,4.5464-4.44952a48.25913,48.25913,0,0,0,4.03068-11.916c1.896-11.23458,2.56521-22.31849-4.23581-32.65682-2.41926-3.67752-3.246-8.40322-4.79118-12.6535-.06383-.1756-.13266-.45375-.04611-.56457,2.96419-3.79455-.65-4.6752-2.72409-6.32307-1.92925-1.53277-4.72421-2.93869-5.29544-4.92926-.50418-1.757,1.53387-4.24349,2.86979-7.40182l-17.32427-4.23821v-4.62059c-4.11519,1.31559-7.838,2.24343-11.35209,3.68141-8.41394,3.44311-8.37431,3.54-10.19288-3.56618-6.87782-5.77156-13.21794-5.36-19.51407-.546-.39506,7.20678-1.09207,7.53141-8.655,4.53939-4.08649-1.61667-8.37367-2.72607-13.728-4.43345,2.59689,5.47053.10869,5.75554-3.34627,6.19373A77.57493,77.57493,0,0,0,245.40467,227.495ZM391.66951,263.8215c.33209-5.20892.51351-8.48913.75747-11.76466.27368-3.67441.85213-7.345.84573-11.01651-.00768-4.43593-.79137-8.878-.68875-13.30471.12155-5.24405,2.07381-10.728,1.06737-15.66672-4.211-20.66379-14.09008-37.3-35.17409-45.03994-5.80455-2.13087-11.43678-4.16425-17.05255,1.30925-.56566-1.9719-.95589-3.33221-1.45843-5.08415-2.107,1.24851-3.81068,2.77243-5.77637,3.27828-1.96662.50608-4.20324-.14727-6.30634-.02722-1.76051.1005-3.49377.6179-5.24843.8909-5.93414.92332-5.6117,6.41443-7.14729,10.26627-2.41147,6.04892.23264,9.131,6.41475,10.97729,5.01589,1.498,9.59679,4.55106,14.24092,7.14652,1.843,1.03,3.336,2.68615,4.98835,4.05723q.49845-.51568.997-1.03135c3.24356,5.01839,6.48711,10.03679,9.76957,15.11534C372.579,223.45688,379.43728,244.98431,391.66951,263.8215Zm-145.614-98.26c-.11395.254-.68934,1.53677-1.47038,3.278-4.56951-4.8913-9.88916-4.99264-14.79-2.60625-8.14531,3.96622-16.61722,7.81921-23.65651,13.364-9.69718,7.63839-11.79677,20.14423-16.41337,30.94673a4.15983,4.15983,0,0,0-.10014,1.697c.18144,5.19239.68625,10.39493.50638,15.574-.37075,10.67492-1.10458,21.3372-1.689,32.00467l2.1565,1.25944c1.20377-1.6894,2.53154-3.30482,3.591-5.08026,6.40592-10.73514,11.63222-22.26062,21.29753-30.7637,5.3588-4.7144,9.73567-10.91674,17.87913-10.91376.00445-3.60309,6.8778-13.4743,9.74894-14.882,4.80815-2.35732,9.42222-5.10739,14.18039-7.57165a11.15438,11.15438,0,0,1,4.72669-1.597c5.02765-.01516,8.36588-1.9227,8.76324-7.20946.48486-6.45054-4.526-13.71709-9.3853-14.466C256.54484,167.847,251.74964,166.70579,246.05551,165.5615Zm34.1022,97.72411c-5.49134,3.124-9.84271,5.03876-13.51422,7.84343-3.79439,2.89858-8.5735,6.077-10.02581,10.16242-3.5775,10.06369-3.01908,20.65645.86706,30.78479.57448,1.49722,2.29077,2.55631,3.69462,4.04732,1.74671-4.8399,3.05181-8.4562,3.81148-10.56112,4.4437,1.86367,8.22468,3.44937,12.00424,5.0345.59929-2.26245,1.05062-3.96638,1.488-5.6177l13.842,14.66423c2.176-2.74423,1.94826-8.6543,8.13247-7.83557,1.12908-2.14014,2.42926-4.60458,4.2044-7.96934.825,2.74291,1.29678,4.31143,2.10412,6.99562,4.06679-2.00962,7.77777-3.84343,11.72536-5.79419.85666,2.7917,2.01323,6.56077,3.60675,11.7538,1.72826-2.19694,3.78107-3.64633,4.08743-5.40074,1.19539-6.84581,2.54845-13.79192,2.512-20.69371-.0494-9.33186-3.8694-16.67393-13.52417-20.26972-3.9168-1.45875-7.17854-4.67638-11.179-7.393C294.00423,267.76942,288.51477,267.70891,280.15771,263.2856ZM197.896,151.05627c-6.5889-.87161-13.36482-.66894-17.32565-7.67624l3.49772-1.71956c-2.32647-2.34271-4.9726-4.00447-1.27983-7.25921,1.639-1.44457,2.13027-3.69254-1.26569-5.36237-5.7-2.80279-8.56539-12.52843-6.28882-18.31487a9.80265,9.80265,0,0,0,.56267-4.77991c-1.09347-7.56939-2.39005-15.10943-3.92857-24.59363,10.27959,2.37356,19.58733,4.516,28.891,6.67587,2.2183.515,4.41868,1.10688,6.6349,1.63118,10.33862,2.44587,20.63615,4.962,28.14984,15.94276.85856-3.01551,2.44851-5.43071,1.8426-6.99579-3.44773-8.90558-8.67567-16.28423-18.32316-19.69784-6.13131-2.16946-12.0108-5.05065-18.001-7.61174-1.52084.58857-3.83813,2.26846-4.72814,1.70278-5.80021-3.68658-12.17045-3.308-18.49306-3.23308-4.92431.05835-9.844.50508-15.30626.80932,1.01662,10.73794,2.08462,21.08252,2.94178,31.44455.46909,5.67058.58182,11.37063.88667,17.71076,6.21924.75329,1.89594,5.03093,2.3678,8.00854,1.89319,5.79876,3.78639,11.59754,5.77028,17.67411,4.4309-.69041,3.08586,2.35342,1.69518,5.48379-1.20772,2.71848-2.34537,5.46807-3.514,8.20391l1.18825.46832,5.75263-7.65365,2.40366,4.64009,3.43182-2.22008v15.76911C189.72381,163.68523,186.183,152.91667,197.896,151.05627Zm200.0731,20.10942v-14.851c2.5926-1.29175,4.30129-2.14307,6.70447-3.34045,1.42057,1.91154,3.155,4.24537,4.88934,6.5792l1.37356-.63518c-1.15253-2.53413-2.18579-5.13127-3.4837-7.5886-2.32974-4.411-1.6785-5.79144,2.95094-6.23467.175-2.93653-.43514-6.19541.69432-8.65565,1.95508-4.25848,5.429-7.89122,3.30785-13.14324a1.85345,1.85345,0,0,1,.31748-1.656c5.05426-4.62828,2.03813-10.70566,2.7856-16.06067.687-4.92184-.10059-10.04351.51811-14.98238.82491-6.58487,2.38154-13.07808,3.83329-20.71149-10.44181.29571-19.1488,1.10535-27.76527.5387-4.05046-.26637-7.58156,7.37323-11.19889.64994-6.21961,2.6789-11.88542,5.59689-17.86071,7.58456-9.74082,3.2403-14.94753,10.44786-18.82128,19.28194-1.60678,3.66428-.3098,5.37124,2.54084,5.63439,4.16027-3.63849,8.2177-7.60011,13.0815-9.54392a179.48906,179.48906,0,0,1,25.0614-7.52951c8.11714-1.93269,16.43486-3.023,24.94634-4.53354-1.63253,8.53895-3.08932,15.49783-4.2232,22.50893a13.72375,13.72375,0,0,0,.55355,6.1964c1.4405,4.43654-.27647,15.27666-4.17173,17.04693-6.55548,2.97921-4.55822,6.02356-.91792,9.653-1.357,1.6952-2.4773,3.09468-3.61215,4.51234,1.116.498,2.10482.93934,3.313,1.47856-3.9916,7.27595-10.94543,6.62015-17.6076,7.6372C396.75434,152.57355,393.826,162.94487,397.96913,171.16569ZM211.86925,255.8208c-.38847,12.95873,5.26284,21.52994,13.70268,28.78478.5581-5.40038-.04452-11.18353,1.931-15.88288,2.75929-6.56366.45119-15.00959,7.35162-19.97015a1.68136,1.68136,0,0,0,.49377-1.5278c-2.91544-4.981,1.61769-6.32973,4.19581-8.49a60.04072,60.04072,0,0,1,5.88983-3.86585l-5.84948-6.89176c6.61126-2.2638,12.32912-4.2217,18.047-6.17959-10.77958.52319-16.49685-5.33894-18.22586-16.85386-3.16726,5.68637-3.346,12.002-10.42753,11.66591a1.696,1.696,0,0,0-1.035.50136c-5.98936,5.42406-12.47382,10.41567-17.78009,16.4437-4.26471,4.84485-9.34581,10.37566-3.61034,17.89831,1.37158,1.799,1.24445,4.74064,1.86948,7.42679Zm163.08125,4.107c.86049-3.6214.95032-6.74887,2.3301-9.12828,1.83124-3.15788,1.88493-5.82914-.26718-8.44889-6.12663-7.45789-12.59207-14.64537-18.53038-22.24689-3.29364-4.216-10.96282-3.105-11.74-10.11014a37.60474,37.60474,0,0,0-1.07938-4.58867q-.8143-.50276-1.62857-1.00551c-1.10931,11.64032-6.80141,17.98457-18.04928,17.34747l17.49544,6.12035c-2.32738,3.09913-3.67494,4.89355-5.24654,6.98631,4.54836,4.018,12.39168,5.46391,10.34416,13.88463-.02543.10469.2629.26843.3742.42617,2.38518,3.37945,4.4751,6.03444,4.42984,11.27247-.06976,8.06921,3.44627,16.16942,5.36605,23.9522,7.28138-6.63939,12.31152-15.81387,13.46312-28.02756C373.75872,258.37576,374.19536,258.94438,374.9505,259.92781Z"/><path class="ad3c47b0-fc22-408b-afb1-48ba93c036f5" d="M259.98558,191.93927c1.004-.11146,2.65692-.35732,4.31883-.46836,6.34-.4236,9.8126-5.13079,8.1457-11.22949-.66581-2.436-1.74858-4.766-2.31027-7.2201-.54981-2.40222-.67807-4.90093-1.06316-7.92029l-3.92184,2.64872c-.69982-1.33113-1.39376-2.651-2.08769-3.97092l-.31928,1.81065c-3.95184-.38027-7.97432-.43137-11.8302-1.25881-2.49016-.53437-4.61251-4.41-7.28256-.24288-.19149.29887-1.10661.38129-1.5687.22332-11.0451-3.77558-19.48947,2.84248-28.37577,7.26012-9.48776,4.71667-15.76283,12.43477-19.33945,22.40429-.8861,2.47-2.10173,4.82169-3.74579,8.539.35679-22.15382,3.80986-41.86954,16.27317-59.066.456-.62913,1.25633-1.37376,1.17823-1.97065-1.3864-10.59686,8.81786-12.77181,13.60248-18.86211,3.24449-4.12992,6.12124-8.61722,9.78981-12.32374a31.38206,31.38206,0,0,1,10.33028-7.26622c8.0346-3.14679,16.28044-6.1623,24.71858-7.72493a38.08138,38.08138,0,0,1,17.11385,1.34041,28.3084,28.3084,0,0,0,15.80264.10727c5.7127-1.41756,12.00355-2.28925,17.73284-1.40316,7.11774,1.10083,13.91444,4.26323,20.86041,6.50234a32.14476,32.14476,0,0,1,3.94052,1.04788,25.02389,25.02389,0,0,1,11.09756,10.16279c3.95966,6.38594,10.57826,11.21591,16.40592,16.312,2.94291,2.57347,6.54144,4.20977,5.1188,9.19148-.30058,1.05253.55594,2.71116,1.33149,3.75433,13.02863,17.525,16.39046,37.83883,16.917,59.73866-.91253-2.39495-1.67489-4.13992-2.25-5.94459-5.74422-18.02556-20.00243-26.55225-36.48025-32.41211-2.42018-.86068-5.37623-.13372-8.06885-.34187-1.42078-.10984-2.81817-.96961-4.2082-.92564-2.09935.0664-4.57447.029-6.19832,1.092-4.4531,2.91513-8.03938.86145-12.09785-1.24888-.72025,1.1366-1.50119,2.369-2.45083,3.8676-1.15332-1.02567-2.08178-1.85135-3.168-2.8174a8.43274,8.43274,0,0,0-.9869,1.67948c-1.044,3.82981-1.78123,7.76336-3.09436,11.49563-2.80792,7.98107.08933,12.75166,8.54935,13.72177a20.22448,20.22448,0,0,1,3.52206.93585c-3.554,4.03409-7.79088,7.42043-10.08394,11.8199-2.6384,5.062-.24336,10.21139,3.63965,14.76244-2.59225.97574-5.037,1.83653-7.43594,2.81-7.55349,3.065-7.88311,2.90974-9.33542-4.9972-3.64865-.8016-7.40141-2.26816-11.154-2.26761-3.66053.00054-7.32085,1.50044-10.85118,2.31219-1.44872,7.79929-1.49869,7.81426-8.85254,4.99568-2.36041-.90472-4.75912-1.70952-6.25662-2.24437.88954-4.87471,3.08316-9.82665,2.21756-14.16877C266.9328,199.95734,262.95564,196.36075,259.98558,191.93927Z"/><path class="ad3c47b0-fc22-408b-afb1-48ba93c036f5" d="M245.40467,227.495a77.57493,77.57493,0,0,1,10.62061-2.57147c3.455-.43819,5.94316-.7232,3.34627-6.19373,5.35434,1.70738,9.64152,2.81678,13.728,4.43345,7.563,2.992,8.26,2.66738,8.655-4.53939,6.29612-4.814,12.63625-5.22552,19.51407.546,1.81858,7.10614,1.77895,7.00928,10.19288,3.56618,3.51406-1.438,7.23691-2.36582,11.35209-3.68141v4.62059l17.32427,4.23821c-1.33591,3.15833-3.374,5.64486-2.86979,7.40182.57123,1.99057,3.36618,3.39649,5.29544,4.92926,2.07413,1.64787,5.68828,2.52852,2.72409,6.32307-.08655.11082-.01772.389.04611.56457,1.54523,4.25028,2.37193,8.976,4.79118,12.6535,6.801,10.33833,6.13178,21.42225,4.23581,32.65682a48.25913,48.25913,0,0,1-4.03068,11.916c-.82855,1.79859-3.01124,2.96284-4.5464,4.44952-1.37731,1.33391-2.803,2.63557-4.03775,4.09494-1.99,2.35192-3.84072,4.82183-6.14224,7.7387-.96582-2.05231-1.64475-3.495-3.424-7.276-2.04438,3.62647-3.55171,6.3003-5.059,8.97417q-.70789-.6003-1.41578-1.20057c1.25972-4.99964,3.3131-9.95413,3.60075-15.00907.48039-8.44334,1.03187-17.2089-.71857-25.3503-1.4145-6.57866-6.50447-11.96622-14.117-13.69594-1.3168-.29919-2.10821-2.62379-3.31217-3.84547-.49254-.49979-1.43632-.55487-3.42948-1.24958a15.19332,15.19332,0,0,1,1.33352-4.34254c5.474-9.3212,3.20862-16.18885-7.30756-18.23193a55.09257,55.09257,0,0,0-20.03623.03308c-10.4596,1.92461-13.06926,9.27751-7.44278,18.18035.70757,1.1196,1.41977,2.23626,1.92277,3.02824-2.02177,1.80774-3.65542,3.48245-5.50268,4.87348-3.37245,2.53956-7.28531,4.5051-10.19612,7.472-2.678,2.72962-5.287,6.20139-6.26821,9.79854-3.34525,12.2633-.75785,24.26906,2.97895,36.07919a24.72562,24.72562,0,0,1,.44708,3.01617c-2.73278-2.51059-4.81-4.41888-7.527-6.915-.54012,2.09167-.89115,3.45109-1.52039,5.88792-1.98212-2.09542-3.46643-3.90055-5.19244-5.43353-2.54617-2.26141-5.2839-4.30586-7.894-6.49754a4.19935,4.19935,0,0,1-1.37085-1.79752c-4.79638-16.05966-11.6167-32.09356-.17149-48.28684,1.04258-1.47508,4.61419-3.58607.57962-5.9747a4.97167,4.97167,0,0,1,.78015-1.86873c.68139-.93584,2.35066-2.03193,2.16756-2.58441-2.35737-7.11308,4.54241-7.6268,7.32211-11.14313C246.2015,235.54764,245.24589,231.97393,245.40467,227.495Z"/><path class="ad3c47b0-fc22-408b-afb1-48ba93c036f5" d="M391.66951,263.8215c-12.23223-18.8372-19.0905-40.36462-39.7711-49.89419-3.28246-5.07855-6.526-10.09694-9.76957-15.11534q-.4985.51568-.997,1.03135c-1.65235-1.37108-3.1454-3.02724-4.98835-4.05723-4.64412-2.59546-9.225-5.64847-14.24092-7.14652-6.1821-1.84631-8.82622-4.92836-6.41475-10.97729,1.53559-3.85184,1.21315-9.343,7.14729-10.26627,1.75466-.273,3.48792-.7904,5.24843-.8909,2.1031-.12005,4.33972.53329,6.30634.02722,1.96569-.50584,3.66941-2.02977,5.77637-3.27828.50254,1.75194.89278,3.11225,1.45843,5.08415,5.61577-5.4735,11.248-3.44012,17.05255-1.30925,21.084,7.74,30.96314,24.37615,35.17409,45.03994,1.00644,4.93872-.94582,10.42267-1.06737,15.66672-.10262,4.42668.68107,8.86878.68875,13.30471.00639,3.67148-.572,7.3421-.84573,11.01651C392.183,255.33237,392.00159,258.61258,391.66951,263.8215Z"/><path class="ad3c47b0-fc22-408b-afb1-48ba93c036f5" d="M246.05551,165.5615c5.69412,1.1443,10.48932,2.2855,15.34507,3.03385,4.85928.74888,9.87016,8.01543,9.3853,14.466-.39736,5.28676-3.7356,7.19429-8.76324,7.20946a11.15438,11.15438,0,0,0-4.72669,1.597c-4.75818,2.46426-9.37224,5.21433-14.18039,7.57165-2.87114,1.40768-9.7445,11.27889-9.74894,14.882-8.14345-.003-12.52032,6.19936-17.87913,10.91376-9.66531,8.50308-14.89161,20.02855-21.29753,30.7637-1.05946,1.77544-2.38723,3.39087-3.591,5.08026l-2.1565-1.25944c.58444-10.66747,1.31827-21.32975,1.689-32.00467.17987-5.17906-.32494-10.38161-.50638-15.574a4.15983,4.15983,0,0,1,.10014-1.697c4.6166-10.80249,6.71618-23.30833,16.41337-30.94673,7.03929-5.54479,15.5112-9.39778,23.65651-13.364,4.90086-2.38639,10.22051-2.28506,14.79,2.60625C245.36618,167.09826,245.94157,165.81552,246.05551,165.5615Z"/><path class="ad3c47b0-fc22-408b-afb1-48ba93c036f5" d="M280.15771,263.2856c8.35706,4.42331,13.84652,4.48381,23.83668-.24893,4.00051,2.71659,7.26225,5.93421,11.179,7.393,9.65477,3.59579,13.47477,10.93785,13.52417,20.26972.03647,6.90178-1.31659,13.8479-2.512,20.69371-.30637,1.75441-2.35917,3.2038-4.08743,5.40074-1.59352-5.193-2.75009-8.96209-3.60675-11.7538-3.94759,1.95076-7.65858,3.78457-11.72536,5.79419-.80734-2.68419-1.2791-4.25271-2.10412-6.99562-1.77514,3.36475-3.07532,5.82919-4.2044,7.96934-6.18421-.81873-5.95646,5.09133-8.13247,7.83557l-13.842-14.66423c-.4374,1.65132-.88874,3.35525-1.488,5.6177-3.77957-1.58513-7.56054-3.17083-12.00424-5.0345-.75967,2.10492-2.06477,5.72121-3.81148,10.56112-1.40385-1.491-3.12015-2.5501-3.69462-4.04732-3.88614-10.12834-4.44456-20.7211-.86706-30.78479,1.45231-4.08543,6.23142-7.26384,10.02581-10.16242C270.315,268.32436,274.66637,266.40964,280.15771,263.2856Z"/><path class="ad3c47b0-fc22-408b-afb1-48ba93c036f5" d="M197.896,151.05627c-11.713,1.8604-8.17222,12.629-12.43735,19.0471V154.33426l-3.43182,2.22008-2.40366-4.64009-5.75263,7.65365-1.18825-.46832c1.16862-2.73584,2.30627-5.48543,3.514-8.20391,1.39067-3.13036,2.73571-6.17419-1.69518-5.48379-1.98389-6.07657-3.87708-11.87535-5.77028-17.67411-.47186-2.97761,3.85143-7.25525-2.3678-8.00854-.30485-6.34013-.41758-12.04018-.88667-17.71076-.85716-10.362-1.92516-20.70661-2.94178-31.44455,5.46226-.30424,10.38195-.751,15.30626-.80932,6.32261-.07494,12.69285-.4535,18.49306,3.23308.89.56567,3.2073-1.11421,4.72814-1.70278,5.9902,2.56109,11.86969,5.44228,18.001,7.61174,9.64748,3.41361,14.87543,10.79227,18.32316,19.69784.60591,1.56508-.984,3.98027-1.8426,6.99579-7.5137-10.98081-17.81122-13.4969-28.14984-15.94276-2.21622-.5243-4.41661-1.1162-6.6349-1.63118-9.30368-2.15986-18.61141-4.30231-28.891-6.67587,1.53852,9.4842,2.8351,17.02424,3.92857,24.59363a9.80265,9.80265,0,0,1-.56267,4.77991c-2.27657,5.78644.58878,15.51207,6.28882,18.31487,3.396,1.66984,2.90472,3.9178,1.26569,5.36237-3.69277,3.25474-1.04664,4.9165,1.27983,7.25921L180.57038,143.38C184.53121,150.38733,191.30713,150.18466,197.896,151.05627Z"/><path class="ad3c47b0-fc22-408b-afb1-48ba93c036f5" d="M397.96913,171.16569c-4.14316-8.22082-1.21479-18.59214-12.79084-20.16415,6.66218-1.017,13.616-.36125,17.6076-7.6372-1.20822-.53922-2.19708-.98054-3.313-1.47856,1.13485-1.41766,2.25512-2.81714,3.61215-4.51234-3.6403-3.62944-5.63756-6.67379.91792-9.653,3.89526-1.77027,5.61223-12.61039,4.17173-17.04693a13.72375,13.72375,0,0,1-.55355-6.1964c1.13388-7.0111,2.59067-13.97,4.2232-22.50893-8.51149,1.51057-16.8292,2.60085-24.94634,4.53354a179.48906,179.48906,0,0,0-25.0614,7.52951c-4.8638,1.94381-8.92123,5.90543-13.0815,9.54392-2.85064-.26315-4.14762-1.97011-2.54084-5.63439,3.87376-8.83408,9.08047-16.04164,18.82128-19.28194,5.97529-1.98767,11.6411-4.90566,17.86071-7.58456,3.61733,6.72329,7.14843-.91631,11.19889-.64994,8.61647.56666,17.32345-.243,27.76527-.5387-1.45175,7.63341-3.00838,14.12662-3.83329,20.71149-.6187,4.93886.16892,10.06053-.51811,14.98238-.74747,5.355,2.26866,11.43239-2.7856,16.06067a1.85345,1.85345,0,0,0-.31748,1.656c2.12114,5.252-1.35277,8.88476-3.30785,13.14324-1.12945,2.46024-.51929,5.71912-.69432,8.65565-4.62944.44323-5.28068,1.82368-2.95094,6.23467,1.29791,2.45733,2.33117,5.05447,3.4837,7.5886l-1.37356.63518c-1.73437-2.33383-3.46877-4.66766-4.88934-6.5792-2.40318,1.19738-4.11187,2.0487-6.70447,3.34045Z"/><path class="ad3c47b0-fc22-408b-afb1-48ba93c036f5" d="M211.86925,255.8208l-3.44705,3.05892c-.625-2.68615-.4979-5.62781-1.86948-7.42679-5.73547-7.52264-.65437-13.05346,3.61034-17.89831,5.30628-6.028,11.79073-11.01963,17.78009-16.4437a1.696,1.696,0,0,1,1.035-.50136c7.08154.33609,7.26027-5.97954,10.42753-11.66591,1.729,11.51492,7.44628,17.377,18.22586,16.85386-5.71787,1.95788-11.43573,3.91578-18.047,6.17959l5.84948,6.89176a60.04072,60.04072,0,0,0-5.88983,3.86585c-2.57812,2.16029-7.11124,3.509-4.19581,8.49a1.68136,1.68136,0,0,1-.49377,1.5278c-6.90043,4.96056-4.59233,13.40649-7.35162,19.97015-1.97556,4.69935-1.37294,10.4825-1.931,15.88288C217.13209,277.35074,211.48078,268.77953,211.86925,255.8208Z"/><path class="ad3c47b0-fc22-408b-afb1-48ba93c036f5" d="M374.9505,259.92781c-.75515-.98343-1.19179-1.55205-2.73841-3.56632-1.1516,12.21369-6.18175,21.38817-13.46312,28.02756-1.91979-7.78277-5.43581-15.883-5.36605-23.9522.04526-5.238-2.04466-7.893-4.42984-11.27247-.1113-.15774-.39963-.32148-.3742-.42617,2.04752-8.42073-5.7958-9.86662-10.34416-13.88463,1.57159-2.09276,2.91915-3.88719,5.24654-6.98631l-17.49544-6.12035c11.24786.6371,16.94-5.70716,18.04928-17.34747q.81425.50276,1.62857,1.00551a37.60474,37.60474,0,0,1,1.07938,4.58867c.77719,7.0051,8.44637,5.89412,11.74,10.11014,5.93832,7.60151,12.40375,14.789,18.53038,22.24689,2.15211,2.61975,2.09842,5.291.26718,8.44889C375.90083,253.17894,375.811,256.30641,374.9505,259.92781Z"/><path class="d8cde288-3683-4831-b54a-be69749e51d0" d="M486.28,191.08V205a5.01025,5.01025,0,0,0-.19269.89353,188.331,188.331,0,0,1-2.98479,27.50435,197.28122,197.28122,0,0,1-133.421,152.2442,193.33465,193.33465,0,0,1-47.1922,9.00032c-1.77842.1147-3.55295.29027-5.32928.43761H281.32a9.03226,9.03226,0,0,0-1.02107-.19559c-4.541-.35552-9.09828-.563-13.62144-1.07364a192.11669,192.11669,0,0,1-41.28431-9.30325A196.8808,196.8808,0,0,1,92.63651,210.68184c-.11953-1.89558-.28982-3.788-.43651-5.68184V191.08a4.94253,4.94253,0,0,0,.19285-.88433,191.12626,191.12626,0,0,1,3.48936-30.09583A196.78981,196.78981,0,0,1,281.37357,1.23146c.78394-.02987,1.56437-.1522,2.34643-.23146H295a3.55283,3.55283,0,0,0,.76438.19195,187.13582,187.13582,0,0,1,27.16608,2.73974A196.87918,196.87918,0,0,1,485.84412,185.52842C485.96,187.38079,486.13337,189.22955,486.28,191.08Zm-76.48081,97.7361c41.7457-53.65794,44.2176-140.91463-15.38777-198.96557C336.87846,33.818,252.48348,36.50562,199.96955,76.44906Q304.88843,182.63671,409.79919,288.8161Zm-32.95605,32.15769q-104.71-105.97636-209.41137-211.9441c-39.39357,52.01356-42.92826,136.52134,14.113,194.79254C236.529,359.992,320.788,361.768,376.84313,320.97379Z"/><path class="fc89f77b-6aca-4890-80c9-194a1d7e6056" d="M80.437,125.81121,18.8129,187.9828a13.57862,13.57862,0,0,0,.08493,19.20288l62.17159,61.6241"/></svg>