<svg id="c5157e3c-b304-4a00-a9fe-4c8f02b01c0d" data-name="Layer 1" xmlns="http://www.w3.org/2000/svg" viewBox="0 0 527.23274 389.94277"><defs><style>.b7c2145b-7eb6-44d3-9350-0e098506392e{fill:#f9cc9d;}.abe90d59-dfc7-41c4-bf95-c9ac92d632b1{fill:#fff;}.aae199c4-ba29-49cf-abc5-fae322a806d2{fill:#27b14c;}.\33 82c2cf3-cba0-413a-a7a2-637f359fd5b9{fill:none;stroke:#fff;stroke-linecap:round;stroke-miterlimit:10;stroke-width:18px;}</style></defs><title>dogicons FINAL-reduce</title><path class="b7c2145b-7eb6-44d3-9350-0e098506392e" d="M341.25874,218.88692c0,29.43614-13.15556,45.32871-33.07064,65.99581-24.16565,25.07817-58.81,51.97771-98.70892,51.97771-38.50771,0-49.78336-14.7863-73.87784-38.36274-21.44426-20.98321-57.90172-48.9292-57.90172-79.61077,0-24.43311-64.18379-118.26128-45.05284-132.30675,117.13739-85.99939,131.345-17.6409,176.83241-17.6409s88.97936-63.94826,162.19023,0C431.3611,121.0788,341.25874,194.4538,341.25874,218.88692Z"/><path d="M265.5207,54.39889c22.75835,9.29382,33.2852,28.593,41.475,49.59347,7.03126,18.02963,9.01049,37.05006,10.41846,56.15073.61184,8.30066,1.68845,16.5681,2.54979,24.85106,4.61236,44.35415-12.30817,79.28306-47.60649,106.4635-17.12,13.18278-35.57,22.3563-57.86983,22.24815-22.0812-.10708-40.3306-9.34052-57.22519-22.43233-23.81418-18.45392-40.43021-41.22023-46.13424-71.021-2.81659-14.71534-2.1221-29.39177-.38238-44.11751,1.90886-16.15741,2.98778-32.45127,5.78915-48.45508,3.96985-22.679,12.01192-44.0048,28.96709-60.64581,5.38635-5.28654,12.89219-8.48255,19.42815-12.6352h8.09349c5.77633,3.843,12.54456,6.8101,17.06354,11.76357,5.00162,5.48253,7.88852,12.81612,11.83444,19.26178.76864,1.25559,2.13581,3.00377,3.28569,3.04807,7.24482.27912,14.50624.1414,21.49589.1414,6.1922-15.03986,13.4207-28.39286,29.56775-34.21482Zm51.14042,139.74655c-1.213-12.47188-2.27382-29.316-4.64951-45.97855-1.99306-13.97869-4.51947-28.04022-8.623-41.53113-5.011-16.47422-13.47618-31.44707-27.77383-42.25582-11.58721-8.75971-22.77041-7.91793-31.90568,3.26458-5.09661,6.23882-8.8079,13.68881-12.40841,20.946-1.78079,3.58936-3.66784,4.56359-7.48818,4.314a120.76454,120.76454,0,0,0-17.78682.023c-4.00562.33195-5.89567-.96629-7.45977-4.44655a102.98416,102.98416,0,0,0-8.44415-16.09032c-11.64206-17.01546-25.86849-18.3331-40.72924-3.864A83.58984,83.58984,0,0,0,138.82,81.24589c-8.13084,11.9022-13.97386,25.02625-16.44465,39.06081-3.17665,18.044-4.77154,36.35326-7.26,54.52011-1.91045,13.94714-2.8982,27.81484-.548,41.85319,5.47531,32.70522,24.15309,56.64729,50.78632,75.53646,13.01944,9.23381,26.98534,15.87346,43.282,17.13449,21.71192,1.68,40.2293-5.69652,57.39866-18.17207C297.84271,268.06637,316.59323,238.28353,316.66112,194.14544Z"/><path class="abe90d59-dfc7-41c4-bf95-c9ac92d632b1" d="M316.66112,194.14544c-.06789,44.13809-18.81841,73.92093-50.62676,97.03344-17.16936,12.47555-35.68673,19.8521-57.39866,18.17207-16.29664-1.261-30.26254-7.90068-43.282-17.13449-26.63323-18.88918-45.311-42.83124-50.78632-75.53646-2.35022-14.03835-1.36248-27.906.548-41.85319,2.48847-18.16685,4.08336-36.47615,7.26-54.52011,2.47079-14.03455,8.31381-27.15861,16.44465-39.06081A83.58984,83.58984,0,0,1,149.39249,68.5266c14.86075-14.46906,29.08718-13.15141,40.72924,3.864A102.98416,102.98416,0,0,1,198.56588,88.481c1.5641,3.48026,3.45415,4.7785,7.45977,4.44655a120.76454,120.76454,0,0,1,17.78682-.023c3.82034.2496,5.70739-.72462,7.48818-4.314,3.60051-7.25722,7.31181-14.70721,12.40841-20.946,9.13527-11.18251,20.31847-12.02429,31.90568-3.26458,14.29765,10.80875,22.76283,25.7816,27.77383,42.25582,4.10355,13.49091,6.63,27.55244,8.623,41.53113C314.38729,164.82948,315.44817,181.67356,316.66112,194.14544ZM212.109,294.59683c12.34342-.03722,19.56251-4.69453,25.07008-13.36973a260.01171,260.01171,0,0,1,17.93812-24.0864c4.06188-5.00674,9.05015-9.27751,13.31024-14.14342.94971-1.08478.58695-3.28191.82847-4.96692-1.60209-.05161-3.5964-.74273-4.74764-.05923-18.23635,10.8272-38.55015,11.57593-58.849,11.31184-14.12467-.18377-27.65538-3.92849-40.39195-10.2355-1.919-.9503-4.48347-.63889-6.74937-.9111.71509,2.15339,1.3548,4.33571,2.19056,6.44277.25538.64384,1.06515,1.06615,1.59445,1.61473,11.09144,11.49515,22.77073,22.39061,30.05249,37.04975C196.48173,291.55021,204.741,294.6839,212.109,294.59683Zm2.01868-81.17992c-3.10293.44267-5.97088.72665-8.78378,1.281-4.80673.94731-8.79809,3.2065-10.0702,8.1871-1.29361,5.06473.76155,9.28022,4.49147,12.76442a20.40809,20.40809,0,0,0,29.71108-1.28587c6.4267-7.27315,3.97189-16.45795-5.331-19.23471C220.87653,214.15318,217.37014,213.94828,214.12767,213.41691Zm70.64895-87.66919c-3.48877-15.29915-8.359-29.44991-16.95943-42.19575a7.74633,7.74633,0,0,0-1.17368-1.24941c-3.05909-2.86243-6.38563-2.72388-8.045.90365-2.08965,4.56813-3.24029,9.589-4.39262,14.50614-.25036,1.06835.90613,2.86632,1.93031,3.74922C265.34438,109.39981,274.66775,117.20873,284.77662,125.74771Zm-141.80495.16142c10.31838-8.73326,19.76269-16.65071,29.073-24.71787a5.016,5.016,0,0,0,1.64745-3.89851c-.81993-4.23722-1.63741-8.598-3.38713-12.50875-2.54973-5.69876-6.81595-6.05761-10.41779-.83756C151.26268,96.44568,146.7483,110.59742,142.97167,125.90913Zm45.707,71.88793a37.70524,37.70524,0,0,0-3.5132-5.5343,14.57388,14.57388,0,0,0-16.81478-3.578c-5.89371,2.65745-9.61607,8.69295-8.99268,14.58083.67024,6.3304,5.17659,11.748,11.278,12.81436a6.35917,6.35917,0,0,0,4.98216-1.83308C179.93365,209.24172,183.87533,203.92462,188.67868,197.79705Zm50.86592.386c4.64286,5.87323,8.50164,11.0204,12.70339,15.88052a6.28577,6.28577,0,0,0,4.80016,2.011,14.22961,14.22961,0,0,0,11.5532-14.30591,15.35435,15.35435,0,0,0-12.68764-14.22531C248.14489,186.445,241.91652,190.74418,239.54461,198.18307Z"/><path d="M212.109,294.59683c-7.368.08707-15.62727-3.04661-19.75349-11.35321-7.28176-14.65914-18.961-25.55461-30.05249-37.04975-.5293-.54858-1.33907-.97089-1.59445-1.61473-.83576-2.10706-1.47547-4.28939-2.19056-6.44277,2.2659.27221,4.83034-.0392,6.74937.9111,12.73656,6.307,26.26728,10.05173,40.39195,10.2355,20.2988.26409,40.6126-.48465,58.849-11.31184,1.15124-.6835,3.14555.00762,4.74764.05923-.24152,1.685.12124,3.88214-.82847,4.96692-4.26009,4.86591-9.24836,9.13669-13.31024,14.14342a260.01171,260.01171,0,0,0-17.93812,24.0864C231.67151,289.9023,224.45241,294.55961,212.109,294.59683Zm-20.20565-40.4707c1.53754,6.94221,2.14293,14.00754,4.70466,20.30209,4.7108,11.57513,24.80509,13.82,32.486,3.88278,5.59282-7.23572,5.61775-15.94852,6.03405-24.18488Z"/><path d="M214.12767,213.41691c3.24246.53137,6.74885.73627,10.01759,1.712,9.30287,2.77676,11.75769,11.96157,5.331,19.23471a20.40809,20.40809,0,0,1-29.71108,1.28587c-3.72992-3.4842-5.78508-7.69969-4.49147-12.76442,1.27211-4.98059,5.26347-7.23978,10.0702-8.1871C208.1568,214.14356,211.02475,213.85958,214.12767,213.41691Z"/><path d="M284.77662,125.74771c-10.10887-8.539-19.43224-16.34791-28.64045-24.28615-1.02418-.8829-2.18067-2.68087-1.93031-3.74922,1.15233-4.91709,2.303-9.938,4.39262-14.50614,1.65939-3.62753,4.98594-3.76609,8.045-.90365a7.74633,7.74633,0,0,1,1.17368,1.24941C276.41767,96.2978,281.28785,110.44856,284.77662,125.74771Z"/><path d="M142.97167,125.90913c3.77663-15.3117,8.291-29.46345,16.91554-41.9627,3.60185-5.22,7.86806-4.86119,10.41779.83756,1.74972,3.91072,2.5672,8.27153,3.38713,12.50875a5.016,5.016,0,0,1-1.64745,3.89851C162.73437,109.25841,153.29005,117.17586,142.97167,125.90913Z"/><path d="M188.67868,197.79705c-4.80336,6.12756-8.745,11.44467-13.06046,16.44979a6.35917,6.35917,0,0,1-4.98216,1.83308c-6.10145-1.06638-10.60779-6.484-11.278-12.81436-.62339-5.88788,3.099-11.92338,8.99268-14.58083a14.57388,14.57388,0,0,1,16.81478,3.578A37.70524,37.70524,0,0,1,188.67868,197.79705Z"/><path d="M239.54461,198.18307c2.37192-7.43889,8.60028-11.73806,16.36911-10.63974a15.35435,15.35435,0,0,1,12.68764,14.22531,14.22961,14.22961,0,0,1-11.5532,14.30591,6.28577,6.28577,0,0,1-4.80016-2.011C248.04625,209.20346,244.18747,204.0563,239.54461,198.18307Z"/><path class="abe90d59-dfc7-41c4-bf95-c9ac92d632b1" d="M191.90335,254.12613H235.128c-.41631,8.23636-.44124,16.94916-6.03405,24.18488-7.68088,9.93722-27.77518,7.69235-32.486-3.88278C194.04628,268.13367,193.44088,261.06834,191.90335,254.12613Z"/><path class="aae199c4-ba29-49cf-abc5-fae322a806d2" d="M429.23274,99.44991v30.77614c-.94274,4.08949-2.05191,8.14927-2.80212,12.27313-6.449,35.44894-24.49576,65.23892-49.04893,90.54686-35.02508,36.10174-71.74051,70.60377-108.01217,105.50541-17.66409,16.99687-35.95847,33.351-54.04569,50.06832-1.4493-1.17861-2.36253-1.838-3.1802-2.5982-39.8196-37.0199-79.90184-73.76822-119.34537-111.17735C67.66365,251.006,43.55331,226.13608,25.18768,196.46909,7.35842,167.66856-2.32168,136.17694,2.03891,102.81058,7.964,57.47328,34.15488,24.7859,77.06339,8.33436c41.36494-15.85972,79.21974-5.09916,111.75269,23.61,9.90549,8.74124,17.90388,19.603,27.06049,29.811,2.93252-3.97917,5.88645-8.10581,8.9613-12.1421C277.8682-19.999,375.18137-12.5852,416.18295,64.52264,421.9739,75.4132,424.95246,87.77116,429.23274,99.44991Zm-73.72385,3.62451c-28.79913-54.15984-97.151-59.36721-134.399-10.47222-2.15975,2.83505-4.23456,5.73356-6.29433,8.5285-6.43152-7.17-12.04952-14.79919-19.007-20.939-22.85084-20.16505-49.43971-27.72317-78.49406-16.58345C87.17588,75.1637,68.77963,98.123,64.61792,129.96752c-3.06284,23.43622,3.73637,45.55564,16.25948,65.78487,12.89985,20.83782,29.83473,38.30623,47.48905,55.05,27.70477,26.27583,55.85817,52.08751,83.82709,78.08995.57433.534,1.21577.99711,2.23374,1.825,12.7043-11.74209,25.5541-23.22908,37.9612-35.16753,25.47688-24.51459,51.26546-48.7485,75.86675-74.106,17.24592-17.77606,29.92178-38.70027,34.45152-63.59928.52694-2.89656,1.306-5.74811,1.96818-8.62053V127.607C361.66851,119.404,359.5764,110.72385,355.50889,103.07442Z"/><path class="382c2cf3-cba0-413a-a7a2-637f359fd5b9" d="M446.10525,122.61978l61.89845,61.89845a13.57862,13.57862,0,0,1,0,19.20307l-61.89845,61.89845"/></svg>