<svg id="2c67a632-e2c1-4528-958e-521151e0e44e" data-name="Layer 1" xmlns="http://www.w3.org/2000/svg" viewBox="0 0 1024 182.10049"><defs><style>.\38 93d7d3f-b31d-41ba-adb9-860d0e86dceb{fill:#fff;}.c2c5e53a-60b4-42e6-893e-b6a38569bf77,.e4797764-18be-4013-8952-0b88694d5fc1{fill:none;stroke-miterlimit:10;}.\30 c882c1c-562d-4cd2-b517-61725dec2a3e,.\33 2963cd9-7fff-4264-9ef9-0228acef3b16,.c2c5e53a-60b4-42e6-893e-b6a38569bf77,.e4797764-18be-4013-8952-0b88694d5fc1{stroke:#000;}.c2c5e53a-60b4-42e6-893e-b6a38569bf77{stroke-width:0.75px;}.e4797764-18be-4013-8952-0b88694d5fc1{stroke-width:0.46958px;}.\30 c882c1c-562d-4cd2-b517-61725dec2a3e,.\33 2963cd9-7fff-4264-9ef9-0228acef3b16{fill:#efefef;}.\30 c882c1c-562d-4cd2-b517-61725dec2a3e{stroke-width:0.63013px;}.\33 2963cd9-7fff-4264-9ef9-0228acef3b16{stroke-width:0.25px;}</style></defs><title>RyanReynolds-01b</title><path class="893d7d3f-b31d-41ba-adb9-860d0e86dceb" d="M1003.12076,91.10915a32.38137,32.38137,0,0,0,.598-3.43485c.10317-1.447.00372-2.90742.02393-4.36161.02185-1.57244.15626-3.14712.099-4.71561a34.87463,34.87463,0,0,0-.47756-3.56045l-.22585.02037q0,8.035.0001,16.06988l-.58965-.05385v1.735C1003.19152,92.09634,1003.19152,92.09634,1003.12076,91.10915ZM946.87124,71.94384l-.12741-.09536c-.0324.32773.011.90645-.10941.94285-.83758.25314-.44673.93684-.601,1.48754-.84853-.06976-1.25671.3809-1.21287,1.24561l-.66178.05019v1.28071H945.503a9.091,9.091,0,0,1-.00915,1.04756c-.03477.28446-.08646.75453-.238.80231-.48036.15147-.44054.49038-.34512.77366.21223.63.78,1.13322.67178,1.88616-.00212.01482.2022.02809.26569.08871.36654.34991.71967.71385,1.17121,1.1673a2.08806,2.08806,0,0,1,.44414.04337c1.26273.31441,2.31888-.36662,3.44312-.71056.0971-.02971.14307-.19986.234-.281.39873-.35562.80526-.70249,1.27744-1.1119l.668-.86719.59756-1.28724h-.61308c.96474-.325,1.701-.63312,1.98116-1.59554.45318.1602.68245-.05866.62168-.4813.661-.32954,1.25488-.6207,1.83666-.93427a1.7227,1.7227,0,0,0-.1093-.36057l.78632-.08888-.08792-.12036.5749-.52181.70759-1.08112-.47843-.32461v-2.4574l.17309-.13753.65616.6473,1.10239.05v1.31779l-.55432.0897v.72038h.5823l-.33.46965c.38308-.08186.88011-.10344.8974-.206.09054-.53664.4902-.35916.77117-.39962.35119-.05058.97231.06732,1.02515-.06624.29511-.74592.97071-.45988,1.45416-.61424v-1.252a9.032,9.032,0,0,1-1.67253-.29906c-.9139-.3468-1.78609-.80353-2.71374-1.23192a2.41536,2.41536,0,0,0-.15556-.72561c-.05952-.1154-.35048-.11145-.53665-.16153-.21018.90637-.84321.35888-1.36858.46762V67.79394h-3.239l-.07386.66045c-.41315.02275-.79347.03514-1.172.06808-.19282.01678-.52915.03223-.55037.11356-.17647.67642-.718.45693-1.13154.48042-.58655.03334-1.18061-.04082-1.76418.01173-.379.03413-.92159-.25251-1.06959.47751-.05.24672-.40663.46554-.6686.62-.1234.07274-.35428-.03687-.42872-.04789Zm36.88139,92.21683a11.46121,11.46121,0,0,0-1.19266.30408,6.776,6.776,0,0,0-.6743.42546c-.12677.06463-.42093.03-.42643.06974-.12119.87532-1.24239.29391-1.52258,1.08651-.12967.36679-.79047.54585-1.21048.81l.073.04765-.88044,1.13372-.05024-.1477-1.31209.37539.20228.04043c-.27163,1.02207-.86616,2.03188-.31159,3.09839a1.86065,1.86065,0,0,1,.24147-.18536c.6511.626,1.25414.22682,1.83915-.09664q3.96273-2.19108,7.9123-4.40589a3.15343,3.15343,0,0,0,.75386-.51827c2.05181-2.14422,4.1085-4.28454,6.11387-6.47176a6.65649,6.65649,0,0,0,.77834-1.53239c.09517-.18761.22226-.51784.32887-.51547.78439.01741,1.08437-.595,1.49671-1.06405q1.21077-1.3774,2.41629-2.7594l-.12945-.19874-1.41446.78991a2.88583,2.88583,0,0,1-.3983.71232c-.28382.26745-.73394.40132-.93135.70876a2.25784,2.25784,0,0,1-1.7274,1.2461c-.33271.03853-.63293.52695-.9083.84475-.28708.33132-.48308.74934-.79621,1.04858-.53513.51139-1.13057.95969-1.79507,1.5131l-.04055.34993c-.4079.22966-.7507.42217-1.093.61551-.71548.4041-1.34774,1.01569-2.2958.79935a1.37538,1.37538,0,0,0-.81836.10305,13.88353,13.88353,0,0,0-1.27107.73628l-.036-.09792ZM958.24744,84.80312c.5985-.07886.98677-.1254,1.37336-.1831.16971-.02533.47283-.05267.48218-.1144.0727-.48011.40725-.50377.77452-.54034.09153-.00912.1621-.16631.25474-.23976a6.37837,6.37837,0,0,1,.59056-.43375c.11658-.0723.352-.06328.38263-.14656.26129-.70985,1.23071-.38289,1.53746-1.11477.159-.37942.7016-.58238,1.01879-.91478a10.65571,10.65571,0,0,1,1.51628-1.65714c.50053-.33358.47794-.79185.273-.96216a1.57867,1.57867,0,0,0-1.12217-.18319c-.24684.60388-.74055.41015-1.15179.50929-.1472.03549-.25589.23073-.38215.35305l.10722.15931c-.42036.21717-1.17973-.22807-1.23686.70589-.99748-.26454-1.29177,1.12049-2.26769.90469-.05466.68194-.6399.38106-.983.526-.13184.05571-.39524.06159-.4014.11355-.07916.66787-.60124.36814-.94292.45616a3.28206,3.28206,0,0,0-.97187.286c-.55262.361-.92533,1.01148-1.72773.94264a3.858,3.858,0,0,0-.80744.08085l-.986,1.89075-.36716.02177c-.06268,1.33661-.3604,1.78228-1.19932,2.05513a13.8208,13.8208,0,0,0-.65916,1.26559.819.819,0,0,0,.10077.54216,6.52635,6.52635,0,0,0,.437.7079l2.40113.22683c.34723-.12619.66474-.53633,1.29333-.28234.19555.079.492-.09178.7423-.14821l-.38926-.37993,1.64008-1.69188c-.14474-.40892.37936-1.206-.40294-1.75155-.02252-.01571.11913-.42284.23488-.453a12.3291,12.3291,0,0,1,1.38017-.21332ZM948.03469,62.71155a1.16686,1.16686,0,0,1,.34581-.02133c.76773.22562,1.74518-.45009,2.34767.538a.54446.54446,0,0,0,.38947-.113,2.46024,2.46024,0,0,0,.67725-2.41951c-1.066,0-2.14577-.08191-3.20663.02475-.92286.09279-1.923-.47578-2.799.4218-.289.29614-1.01205.1687-1.50441.23087a2.76982,2.76982,0,0,1-.38469.67039c-.31.29832-.68839.52409-1.01648.8055a1.97368,1.97368,0,0,0-.61932.6676,1.38382,1.38382,0,0,1-1.15893,1.04364c-.216.03224-.40106.271-.60026.41542l.11173.15557.31454-.28475c.08495.53336.05248.723-.53051.63085a20.7157,20.7157,0,0,0-2.744-.14747c-.14115-.00328-.30078.136-.42041.24408-.03751.0339-.00616.21975.05158.27173.6788.61114,1.3604,1.22,2.06449,1.80131.10424.08605.3284.02686.54837.03729l-.19111-.44737.11217-.07868.41522.3945.13535-2.05819a6.95239,6.95239,0,0,0,.64749.70055,2.04216,2.04216,0,0,0,.5423.22979c.21784-1.01964,1.033-.49819,1.465-.42012.94185.17024,1.242-.64028,1.7862-1.00767.21285-.14371.36211-.41257.70318-.48135a3.2882,3.2882,0,0,0,.77179-.3773l-.09425-.2199C947.10853,63.95212,947.96953,63.90529,948.03469,62.71155Zm16.57622,39.00576a6.6583,6.6583,0,0,1-1.79933-1.06186c-.52118-.62608-.96218-1.2128-1.80747-1.14314-.1118-.277-.1382-.59374-.29952-.69456-.4629-.28932-.99029-.47306-1.47259-.73469-.26275-.14254-.4598-.42794-.73112-.52874-.74846-.27806-1.52046-.49274-2.283-.73294-.04849-.01526-.13578-.03089-.13773-.05245-.06512-.71882-.62613-.3192-1.15317-.59434.15515.39662.17431.67077.315.7666.64408.43884,1.33323.81116,1.98211,1.24352a4.37934,4.37934,0,0,1,.57926.61363c.34422.34648.68741.69516,1.04978,1.02215.39888.35994.65255.90463,1.29216.96339a1.75059,1.75059,0,0,1,1.39279,1.30884l1.74593.951c.11461.3077.11461.3077,1.28461.40664.43344.66845.86331,1.3417,1.85814,1.26405l-.37009.41652.88174.34576c.48109.42363.921.76571,1.30456,1.16227.34077.35233.82948.73934.88058,1.15664.10274.83885.66127,1.17632,1.24376,1.60626a3.18242,3.18242,0,0,0,.09044.79509c.035.09959.31823.112.48838.16411l.01071-1.73776c-.90056-.10583-.34994-.89-.62355-1.28695a2.06115,2.06115,0,0,1-.51552-.31306c-.28205-.31162-.45338-.80345-.79242-.96554-.56852-.2718-.7051-.80066-1.01257-1.22818-.16775-.23326-.09-.66381-.647-.53433-.21144.04915-.54728-.29559-.77963-.51121-.33919-.31477-.63218-.67881-.95219-1.0149C965.26463,102.38131,964.88743,102.00106,964.6109,101.71731Zm34.14116-19.10657c-.33821-.66055.20145-1.26884-.35729-1.96276-.31476-.39088-.18353-1.145-1.03256-1.21745-.024.35219-.04428.63051-.06172.909a3.06232,3.06232,0,0,1-.07823.984,7.839,7.839,0,0,1-.74317,1.16184l-1.6116.86466c-.08973,1.55666.12054,2.059.96761,2.47367l.59362-1.03643c-.20613-.20041-.874-.47278.07138-.79668.08229-.0282.07646-.26946.14517-.39307.07946-.14295.21566-.25465.29335-.39824C997.31066,82.51179,997.98878,82.6884,998.75206,82.61074ZM957.67659,59.46722c-.95817,0-1.76922-.01391-2.57919.00957a1.0468,1.0468,0,0,0-.60954.21029,10.41964,10.41964,0,0,0-.90348.92968c-.36979.40405-.72988.817-.97818,1.09586l1.0592,1.06472.13248-.68291,1.70772-.08427.17762-.69529.49093-.02841,1.08639-1.11.182.43847ZM945.779,115.05117l1.08171-1.13238,1.94918-.94827-.10977-1.73947c-1.2789-.30982-1.36492-.24646-1.38118.97111-.00373.27957-.00055.55923-.00055.87129l-1.8229.86433Zm55.88966-49.18367a9.08219,9.08219,0,0,0-.54137-1.75128,22.13787,22.13787,0,0,0-1.63145-2.47831c-.1243-.16987-.47035-.17748-.71424-.25985l-.18887.23488c.334.35372.69144.6885.99542,1.06633.32324.40178.90067.58768.9535,1.236.02254.27661.27408.53454.42156.801l.19551-.07222v1.22348ZM947.49055,95.55462l-.18814.25529c.29592.28037.55779.71745.89856.7915.27226.05917.64458-.31765.95362-.52858.01455-.00993-.13654-.40632-.24116-.42234C948.44522,95.57883,947.96587,95.57984,947.49055,95.55462Zm52.44292.72313-.15018-.20987,2.00177-1.59538-.19859-.21568L999.91105,95.853ZM998.71854,97.443l.94835-1.1148-.94835.04421Zm10.88941,22.45588-.11742-.006v2.69431l.11742-.00188Z"/><path d="M940.2745,8.887c.85967.09568,1.71767.25156,2.57933.27538a15.35575,15.35575,0,0,1,6.33268,1.87108,4.47408,4.47408,0,0,0,1.75111.44681c1.66285.059,3.32953-.00038,4.994.02775a2.94169,2.94169,0,0,1,2.55013.96645,1.00519,1.00519,0,0,0,.58868.30778c1.425.252,2.85591.47037,4.28129.72031a1.87277,1.87277,0,0,1,.68479.28531,54.12613,54.12613,0,0,1,8.70977,6.52259c.10322.103.284.25387.37546.22332.78139-.26092,1.17571.32863,1.6446.72612,1.36446,1.15669,2.70072,2.347,4.0757,3.49086,1.41924,1.18071,2.0708,2.88828,3.06388,4.36015a8.85489,8.85489,0,0,1,1.491,4.44691,7.53385,7.53385,0,0,0,.94012,2.30885c.81791,1.81439,1.589,3.65346,2.49293,5.42442a11.06454,11.06454,0,0,1,.94808,4.88818,2.05583,2.05583,0,0,0,.31166.91735c.51381.88262,1.10968,1.71942,1.59317,2.61736a16.10774,16.10774,0,0,1,1.90479,8.02694,9.43181,9.43181,0,0,0,1.37425,5.61275l2.31724-2.11078a1.34844,1.34844,0,0,1-1.13348,1.48832l-1.25712,2.16167c.13824.814-1.23136.75316-1.47951,1.74055-.47826-1.00942-1.32972-.63325-2.0372-.7818-.23855-.05009-.43136-.31809-.82486-.62817a10.10652,10.10652,0,0,0-.15368,1.18749c-.01268,2.38055-.00654,4.7612-.00654,7.20482h-1.1421l.08158-.18789a8.21287,8.21287,0,0,1-.73584-.4586c-.23972-.18454-.54253-.371-.64919-.62685-.21414-.51368-.935-.69875-.8172-1.44672.06231-.39572.23523-.951-.4707-1.20493-.17107-.06154-.10085-.79329-.14192-1.21682-.03562-.36726.10409-.85335-.61265-.69217a20.04141,20.04141,0,0,0-.02324-2.25785c-.04783-.40445-.45214-.77676-.46676-1.172-.012-.3239.41337-.64474.46882-.99481a4.4697,4.4697,0,0,0-.10934-1.68938l-.159.29236c-.08772-.102-.2414-.1977-.252-.30721-.0516-.533-.06494-1.06966-.09194-1.60716l-.88786-.32086,1.448-.32421c.33234-2.10789.23025-3.01-1.80755-3.25154-.14524-.323.15813-.98029-.67278-.7903,0-.5746-.00491-1.10817.00311-1.64154.00227-.15131-.014-.3656.07361-.44316.81091-.71762.41662-1.67029.46934-2.51162.04587-.732-.95674-1.26146-1.76921-.97534a3.39391,3.39391,0,0,0,.53611-1.07143c.0347-.39283.30568-1.01865-.60554-1.1367l.5262-.20653-.00637-.11432-.89-.07449-.77511-.79864-.15254.11294c-.02013-.30414-.04546-.608-.0592-.91247a2.17709,2.17709,0,0,0-.35021-1.40744,2.3527,2.3527,0,0,1-.24877-1.59453c.12195-.86855-.57121-1.31515-.82552-1.97816-.10178-.26534-.40183-.511-.38891-.75383a1.9278,1.9278,0,0,0-1.10744-1.77309,4.54868,4.54868,0,0,0-.92707-.67634,3.08144,3.08144,0,0,0-.01414-.75655c-.05587-.21429-.25791-.386-.34853-.5967-.15226-.354-.26727-.72407-.36238-.98851l-1.71061-.93771-.0339-.43907-1.59755-1.25779.07665-.11505a5.95575,5.95575,0,0,1-1.06466-.07741c-.23057-.05637-.41683-.27841-.63551-.4045a1.05952,1.05952,0,0,0-.44947-.16763c-.48323-.0213-.968-.00787-1.45215-.00787l.05789-.24124a3.21874,3.21874,0,0,0-.825-.36676c-.5775-.08048-1.17449-.029-1.74848-.12317a1.51907,1.51907,0,0,1-.74529-.54549c-1.01683-.12015-2.13248.00573-2.61715-1.22462a5.61958,5.61958,0,0,1-2.57454-1.29516,6.21788,6.21788,0,0,1-2.11828-.847c-1.05127-1.01053-2.25129-.41731-3.36577-.60883-.02477-.00426-.05273.0067-.07647.00035a6.47772,6.47772,0,0,1-1.18387-.33423c-.57859-.28327-1.09945-.632-1.5373.19592-.05919.11191-.35624.12619-.54565.13567-.52915.02648-1.05924-.165-1.47468.46967-.15709.24-.81163.15432-1.16283.20585-.32044.39936-.63884.75154-.9063,1.13889-.53845.77982-1.03771,1.58677-1.57934,2.36428a1.10027,1.10027,0,0,1-.56334.45474,3.52549,3.52549,0,0,1-.879.02031L942.125,33.50225l-.28594-.61818c-.0521.2558-.08373.38119-.10211.5085-.02547.17641.02547.44683-.07154.51647a1.97948,1.97948,0,0,0-.71888,1.8c-.00027.05126-.17269.16011-.22715.13991-.10062-.03732-.23779-.14467-.24573-.23309a4.59907,4.59907,0,0,0-.11787-1.00166,1.20349,1.20349,0,0,0-.07726.43395c.19018.87542-.46219,1.24127-.97426,1.71513-.15092.13966-.18116.40972-.29688.69418-.948.17071-2.10867-.3393-3.11324.43911l.32891.06136c-1.88391.01033-2.62219,1.62538-3.75558,2.71041l-.95872.09308-.409,1.04706-.18408-.41227c-.06624.08966-.12437.13433-.11753.16405.19046.82848-.72472,1.02637-.93021,1.6314a3.22624,3.22624,0,0,1-.32826.5991c-.17866.29595-.36583.58676-.54938.87975l-.2165-.1039-.09443.82015c-.07792-.08771-.146-.21951-.24881-.25768-.0544-.02019-.22336.10863-.24538.19457a2.72306,2.72306,0,0,0-.02517.53421,1.21348,1.21348,0,0,1-1.14947,1.20434c-.50128.03519-.73541.20338-.71888.74353a4.89981,4.89981,0,0,1-.16364,1.20985c-.02917.12908-.20739.22448-.313.33083l.80156,1.58646-.72486.1888-.01048.13475.64849.11931-1.13.38217c.29269.64646.58491,1.222.80318,1.82429.05295.14611-.12885.38487-.21935.573-.07417.15421-.17305.29654-.261.44414a1.69649,1.69649,0,0,0,.43627.22921,2.67143,2.67143,0,0,1,.81949.19463l-.59258.17446-.00188.17686c.66914.03116,1.33813.06752,2.00761.08724.08925.00263.24984-.06559.26125-.12377.16742-.85379.77923-.48911,1.2707-.4888.45255.00029.90513-.04318,1.33547-.06618a2.30868,2.30868,0,0,1,2.06832-1.41855l-.64949-.2805a6.0531,6.0531,0,0,0,1.21857-.08269c.26448-.07381.47419-.3332.71774-.49582.2172-.145.44737-.27063.72994-.43955l-.39952-.29437c.79752-.45487,1.95424.40418,2.68281-.87452.12377.60765.20124,1.09064.32469,1.56157.09813.37433.24886.73525.38369,1.09937.05238.14144.18517.278.17907.41216-.04136.9086-.11009,1.816-.16764,2.68835l-.97287-.50268-.24073,2.02358-.41229-.05564c-.29923.29985-.52151.515-.7335.73982a.3931.3931,0,0,0-.13061.23712,1.37648,1.37648,0,0,1-.4969,1.17532c-.2522.24493-.20428.77223-.38909,1.12112-.16734.3159-.01641,1.01656-.77032.78755-.03854-.01171-.10629.12974-.17535.15066-.19725.05977-.51048.19958-.58661.12142-.50558-.51909-1.06554-.37593-1.76959-.20438l.42592.18647-.08126.173a7.53544,7.53544,0,0,0-.838-.38311c-.36159-.11729-.65517-.26616-1.06958.13337-.67363.64946-1.15343,1.66338-2.41022,1.58882l.253.18386-.68629.96554.125.11021c-.17147.04131-.34123.09349-.51492.12059-.14657.02286-.29769.01661-.5664.02858l.34041.36429-2.118,1.15243-.80936-.08687a1.35018,1.35018,0,0,1-.39724,1.763c-.26529.21279-.28288.73437-.44056,1.20044,1.066-.07713.6953.65354.90567,1.1195l1.01961.17689.15033,1.06121a6.06329,6.06329,0,0,0,1.31092.75341c.7916.21444.62507.855.73054,1.40893h.7785l-.17468-.08985a12.87427,12.87427,0,0,1,.73461-1.1474,1.36472,1.36472,0,0,1,1.45356-.68542c.50619.13449.99726.32591,1.2543.41168a4.72821,4.72821,0,0,1,.72761.94938,4.18877,4.18877,0,0,1,.18218,1.158,1.737,1.737,0,0,0,1.26786,1.41757c.25173.8072.27735,1.86614.81656,2.33723.51508.45.22481,1.34431,1.035,1.4816.06429.01089.11117.30813.11343.473.02137,1.56111.01468,3.12286.06111,4.68309.00762.25614.25423.49819.35414.76056a7.1031,7.1031,0,0,1,.215.78637c.1657.6533-.32676,1.45717.53229,1.97875.18539.11257.10058.67015.14319,1.049l.67058.22178c0,2.10957-.0149,4.20254.01312,6.29494.00533.39765-.23173,1.01264.55421,1.0557.041.00225.09566.27349.09561.41947-.00025.66469.00893,1.33151-.044,1.99286-.01794.22423-.258.42328-.31085.65351-.15978.69653-.27752,1.4027-.4264,2.18244-1.15433.36809-.33392,1.38355-.64933,2.27132l.61518-.30833.06718.08-.507.57889.58242.17278-.15608.10409a11.2815,11.2815,0,0,0,.80643,1.39461,10.458,10.458,0,0,0,1.1238,1.09278l.16841-.1253.02625.46267a3.42525,3.42525,0,0,1,.707.30344,2.0595,2.0595,0,0,1,.42685.52831c.06836.10222.07709.32756.13952.33806.96725.1627.58093.91883.61758,1.44837.06.86692-.00107,1.74305.07631,2.60748.02761.30836.41588.5815.45234.89265a2.49856,2.49856,0,0,0,.70673,1.58853c.45278.435.959.81426,1.4846,1.25365l-.30664.33861h3.89858c0,.76031.02293,1.44273-.01851,2.12122-.00874.143-.25345.27167-.54481.56149v-1.38934a1.8417,1.8417,0,0,0-1.94338.90092c-.11564.18511-.424.24983-.68615.39285v1.12292c.5684.14077,1.097.27,1.62438.40381.098.02487.18876.08117.28728.10075.25509.05067.68859.19886.74119.11466.39917-.639.99446-.44405,1.55633-.48085.39424-.02582.82367.176,1.14415-.43116.14484-.27442.98843-.18,1.40376-.38235.47339-.38909.94581-.77938,1.42216-1.16481.03448-.02792.13513-.00916.14181-.03125.3163-1.04436,1.17871-.43312,1.78506-.58707.30881-.07841.75585.14206.8101-.44574.00686-.07429.33643-.10273.50233-.182a6.3499,6.3499,0,0,1,.8-.41345,1.16168,1.16168,0,0,1,.67694.02587c.14391.04909.23638.249.35184.38155l.40644-.56309,1.03612-.07112.05665-1.03887c.32337-.35393.52145-.74957.81139-.83558.26649-.079.63188.1753,1.09089.32859V112.587c1.57905-.36107,3.18588.424,4.50541-.93819l.07282-.53289h.99879l.60463-.669.19422.14493c-.23348.29347.37951.9453-.49018.98147-.03608.00149-.1127.18539-.09017.2601.22888.75919-.43493,1.18533-.69012,1.74769-.148.32609-.62923.50168-.9628.7418-.038.02735-.12316.02365-.13221.05179-.22489.699-.88742.98008-1.31152,1.44578-.476.52265-1.174.91186-1.47742,1.71545a1.57633,1.57633,0,0,1-1.75784.84277c-.30185-.07563-.7461-.16755-.81244.40331-.00682.05865-.2516.12249-.38792.12721-.45754.01585-.916.006-1.37408.006l.06542.2429c-.29466.136-.58242.29058-.88568.40348-.40449.15058-1.02088-.29316-1.23.505-.03518.13426-.70533.10218-1.15014.155l-.14807.62624-.998.19082a2.95619,2.95619,0,0,1-1.28059,1.7829c-.25533.19867-.2191.772-.31916,1.19033l-1.27628.86069a4.35647,4.35647,0,0,0,.21636-.44484,7.34838,7.34838,0,0,0-.6542-.35294c.0547,1.22694-.06467,2.23785-1.35723,2.62578l-.03164.58873-.94635.181.195.37373-2.33236.98344c0,.36043-.01345.84021.004,1.31888.01582.4345.6784,1.12764,1.10555,1.09439.54752-.04262.67056.24526.66981.68388a6.10716,6.10716,0,0,1-.0545,1.37211.96288.96288,0,0,1-.60357.55866,4.14337,4.14337,0,0,1-1.09.024l.00654.26935H946.787l.00279.13072-1.17234.55944.0252.16874,1.96349.10734c-.05-.52718-.23983-1.05052-.08778-1.18377.61381-.53788,1.01989-.44523,1.557.24988.27553-1.396,1.30205-.91463,2.15537-.9614a2.13656,2.13656,0,0,1,2.11256,1.26639l.62085-.0738-.17374,3.75414-.1559-.10237a6.13955,6.13955,0,0,0-.8874,1.43184,9.05384,9.05384,0,0,0-.23643,2.1201c-.06193,1.378-.49951,1.86-1.69214,1.91419-.26323.258-.471.437-.646.64378a.7735.7735,0,0,0-.16177.3874c-.06314.51551.99957,1.62861,1.58317,1.66111.02691.00151.06107-.12717.12412-.26656.03455.38924.04659.72065.1004,1.04514.02542.15331.11827.41134.20212.42031.5572.05956.46147.49774.58224.84509a5.94187,5.94187,0,0,0,.5533.97885c-.45431.26883-1.14143-.19584-1.29435.61032.50418.19523,1.27205-.21662,1.43122.64848a1.20406,1.20406,0,0,0,.39432-.0369c.1131-.86807.794-.37589,1.23408-.56359.19965.42408.29652,1.1894.88655.25139.14067-.22363.70665-.17973,1.14173-.2727l.13319-1.04354c.64682-.18272,1.12636-.11377,1.22394.70806.0153.12888.17693.24039.27089.35995a2.58564,2.58564,0,0,1,.26564-.28683c.13592-.11.2804-.26468.43644-.28537.87452-.116,1.75361-.19745,2.73559-.30179.15775.06337.48188.17567.789.32324.20791.09988.3843.34264.58813.35943a14.21377,14.21377,0,0,0,1.94186.02013c.19-.01044.35955-.28522.55586-.31216a10.6843,10.6843,0,0,0,1.65108-.14616,7.14614,7.14614,0,0,0,1.41623-.786l-.36383,1.34908c1.00468.27208,1.38138-.62126,2.06364-.8733a1.81543,1.81543,0,0,1,.22167.32053c.12771.28527.3488.55877-.18351.75249-.32236.1173-.74137.41755-.80474.70455-.13149.59549-.5279.4197-.86484.46671-.44906.06265-.82956-.01346-1.1686.57662-.28546.49683-1.1257.67489-1.80007.83821a11.52987,11.52987,0,0,0-1.09374,1.27231,2.26137,2.26137,0,0,0-.21086.99211c-.03253.35318-.07206.64179-.58488.49867v2.85062c.81523.10922,1.11708.66155,1.4492,1.3642.30277.64058,1.09235,1.04039.99873,1.9516a2.16,2.16,0,0,1,2.018,1.19178c.02714.05754.18128.0783.27592.07723a1.55986,1.55986,0,0,1,1.56559,1.23708c.13193.3483.55282.58881.84715.87356.543.52535,1.10146,1.03542,1.6296,1.57523.30113.30781.53108.6861.83711.988.29378.28984.66617.50026.95791.79173.0991.099.08438.34006.07511.51369a2.0177,2.0177,0,0,1-1.27823,1.17751c-.535.01049-1.07031.00261-1.64614.00261l-.1194.64866a4.37044,4.37044,0,0,1-3.21609-.246,2.17637,2.17637,0,0,1-.96744-.59628,7.11181,7.11181,0,0,0-4.74494-2.30046,1.55325,1.55325,0,0,1-.71675-.386c-1.07764-.907-2.07742-1.91963-3.21971-2.73356-1.89136-1.34768-2.65931-3.34756-3.20052-5.41316a29.93612,29.93612,0,0,0-2.28435-5.174.79931.79931,0,0,0-.55327-.28789c-1.46644-.21048-2.94034-.37167-4.40273-.60566a2.01709,2.01709,0,0,1-1.03968-.50864c-2.53373-2.50079-4.97108-5.10391-7.5821-7.51986a32.77492,32.77492,0,0,0-4.69522-3.43107,17.40473,17.40473,0,0,1-4.25418-3.811c-2.53872-3.1502-5.16987-6.22585-7.75475-9.339a6.1138,6.1138,0,0,1-.58283-.89681c-3.71784-6.54525-6.738-13.43909-10.02512-20.19834a15.38629,15.38629,0,0,1-.79675-3.65617c-.17763-.87738-.28795-1.77249-.52536-2.63291-.849-3.07691-.65349-6.24882-.89869-9.37963-.14393-1.83775-.20957-3.68156-.33734-5.52077a.96027.96027,0,0,0-.31536-.62485,7.56248,7.56248,0,0,1-3.06185-6.05,34.66844,34.66844,0,0,0-.17171-3.74905,12.14962,12.14962,0,0,0-.797-2.38062c-.94561-2.62126-2.04185-5.20039-2.78186-7.87816a7.1746,7.1746,0,0,0-1.72505-2.99637,2.15916,2.15916,0,0,1-.47124-1.162c-.24789-2.47074-.44286-4.94674-.66791-7.41986a1.44116,1.44116,0,0,0-.20674-.72366,4.25191,4.25191,0,0,1-.70891-2.972,12.31838,12.31838,0,0,0-.14068-1.65385q0-.84529,0-1.69058c.10234-1.11514.2616-2.22852.29623-3.34576a21.76739,21.76739,0,0,1,2.53754-9.0407c.07443-.15024.03331-.35394.09074-.517a12.37276,12.37276,0,0,1,1.234-3.281c1.739-2.34984,3.31007-4.86978,5.71242-6.66728.56318-.42139.98428-1.04108,1.56421-1.43026q4.31655-2.89672,8.69209-5.705c.8898-.57029,1.89669-.95591,2.79878-1.5095,1.1937-.73254,2.14681-1.77711,3.73166-1.914a4.96448,4.96448,0,0,0,3.747-1.74765c.05451-.072.1804-.09067.27389-.13235q1.76672-.78772,3.53419-1.57377a3.61016,3.61016,0,0,1,.50086-.19229c.92765-.25474,1.8575-.50147,2.7866-.751Zm-15.83084,104.439-.23512.08125a10.51284,10.51284,0,0,0,.714,1.6176,3.3528,3.3528,0,0,0,1.15862,1.19207,9.23081,9.23081,0,0,0,1.99274.51654.85269.85269,0,0,1,.02138-.27055c.21534-.8526-.19011-1.72636.47674-2.63475.42638-.58082.08863-1.72258.09345-2.61285-.74567-.12418-.44006-.81888-.69378-1.3041h-1.75641l-.69915,2.52678Zm3.49006,12.05455c.1583-.10582.57366-.24367.73718-.52689.2228-.38591.005-.71351-.49088-.759-.02507-.00229-.04907-.08093-.06328-.12719-.22186-.72208-.43908-1.44561-.66564-2.16619-.03544-.11272-.12059-.20881-.1672-.31917a4.17535,4.17535,0,0,1-.32334-.8312c-.10973-.59967-.16352-1.20959-.24029-1.81529l-.28507.01533-.24066,2.23281h-.43848a6.93951,6.93951,0,0,0,.16412,1.04014c.07173.234.35113.41734.38649.64664a7.43686,7.43686,0,0,1,.01855,1.19219Zm-3.06419-6.50448c.03647-.80257.0884-1.53259.08143-2.26206-.001-.10263-.4025-.31313-.42847-.28671-.29229.29724-.6807.59529-.77967.9639a6.70176,6.70176,0,0,0-.03276,1.64192Zm12.63224-65.38539-.0057-.3203-1.4571.16547a2.89552,2.89552,0,0,0,.62173-.9206c.03234-.138-.50179-.4088-.77794-.61913-.069.42078.06108.683-.00063.88725-.07116.23552-.31158.4199-.62458.8073ZM934.00884,108.559c.08162.80106.67394.87786,1.738.208Z"/><path d="M946.87124,71.94384l1.26469-1.76606c.07444.011.30532.12063.42872.04789.262-.15443.61858-.37324.6686-.62.148-.73.69063-.44338,1.06959-.47751.58358-.05255,1.17763.0216,1.76418-.01173.41351-.0235.95506.196,1.13154-.48042.02122-.08133.35754-.09678.55037-.11356.37853-.03294.75886-.04534,1.172-.06808l.07386-.66045h3.239v1.31547c.52537-.10875,1.1584.43874,1.36858-.46762.18618.05008.47713.04612.53665.16153a2.41536,2.41536,0,0,1,.15556.72561c.92765.42839,1.79984.88512,2.71374,1.23192a9.032,9.032,0,0,0,1.67253.29906v1.252c-.48345.15436-1.159-.13168-1.45416.61424-.05284.13356-.674.01566-1.02515.06624-.281.04046-.68063-.137-.77117.39962-.01729.10251-.51432.12409-.8974.206l.33-.46965h-.5823v-.72038l.55432-.0897V71.00044l-1.10239-.05-.65616-.6473-.17309.13753v2.4574l.47843.32461-.70759,1.08112-.5749.52181.08792.12036-.78632.08888a1.7227,1.7227,0,0,1,.1093.36057c-.58178.31356-1.17563.60472-1.83666.93427.06077.42264-.1685.6415-.62168.4813-.28017.96242-1.01642,1.27053-1.98116,1.59554h.61308l-.59756,1.28724-.668.86719c-.47218.40941-.87871.75628-1.27744,1.1119-.09094.08112-.13691.25127-.234.281-1.12424.34395-2.18039,1.025-3.44312.71056a2.08806,2.08806,0,0,0-.44414-.04337c-.45154-.45345-.80467-.81739-1.17121-1.1673-.0635-.06062-.26782-.07389-.26569-.08871.10823-.75294-.45955-1.2562-.67178-1.88616-.09543-.28327-.13524-.62219.34512-.77366.15153-.04778.20322-.51786.238-.80231a9.091,9.091,0,0,0,.00915-1.04756h-1.34422V75.57466l.66178-.05019c-.04384-.86471.36434-1.31537,1.21287-1.24561.15422-.5507-.23663-1.2344.601-1.48754.12045-.0364.077-.61511.10941-.94285Zm9.6284-.70177c0,.91762-.00312,1.83527.00681,2.75278.00068.0631.10234.17958.15109.17651a.50224.50224,0,0,0,.30743-.12227c.20439-.20768.38505-.43871.69876-.80493C958.14566,72.32779,956.67317,72.10957,956.49964,71.24207Z"/><path d="M983.75263,164.16067l.92-1.13457.036.09792a13.88353,13.88353,0,0,1,1.27107-.73628,1.37538,1.37538,0,0,1,.81836-.10305c.94806.21634,1.58032-.39525,2.2958-.79935.34233-.19334.68513-.38585,1.093-.61551l.04055-.34993c.6645-.55341,1.25993-1.00171,1.79507-1.5131.31313-.29925.50913-.71727.79621-1.04858.27537-.31781.57558-.80623.9083-.84475a2.25784,2.25784,0,0,0,1.7274-1.2461c.1974-.30743.64752-.4413.93135-.70876a2.88583,2.88583,0,0,0,.3983-.71232l1.41446-.78991.12945.19874q-1.20787,1.38-2.41629,2.7594c-.41234.4691-.71232,1.08146-1.49671,1.06405-.10661-.00236-.23369.32786-.32887.51547a6.65649,6.65649,0,0,1-.77834,1.53239c-2.00538,2.18722-4.06206,4.32754-6.11387,6.47176a3.15343,3.15343,0,0,1-.75386.51827q-3.95174,2.21084-7.9123,4.40589c-.585.32346-1.188.72265-1.83915.09664a1.86065,1.86065,0,0,0-.24147.18536c-.55456-1.06652.04-2.07632.31159-3.09839l-.20228-.04043,1.31209-.37539.05024.1477.88044-1.13372-.073-.04765c.42-.26417,1.08081-.44323,1.21048-.81.28019-.7926,1.4014-.21119,1.52258-1.08651.0055-.0397.29966-.00511.42643-.06974a6.776,6.776,0,0,1,.6743-.42546A11.46121,11.46121,0,0,1,983.75263,164.16067Z"/><path d="M948.03469,62.71155c-.06516,1.19374-.92616,1.24057-1.84041,1.207l.09425.2199a3.2882,3.2882,0,0,1-.77179.3773c-.34107.06879-.49032.33764-.70318.48135-.54415.36738-.84435,1.17791-1.7862,1.00767-.432-.07808-1.24711-.59953-1.465.42012a2.04216,2.04216,0,0,1-.5423-.22979,6.95239,6.95239,0,0,1-.64749-.70055l-.13535,2.05819-.41522-.3945-.11217.07868.19111.44737c-.22-.01044-.44413.04876-.54837-.03729-.70409-.58133-1.3857-1.19017-2.06449-1.80131-.05774-.052-.08909-.23783-.05158-.27173.11964-.10812.27926-.24736.42041-.24408a20.7157,20.7157,0,0,1,2.744.14747c.583.0921.61546-.09749.53051-.63085l-.31454.28475-.11173-.15557c.1992-.14438.38431-.38318.60026-.41542a1.38382,1.38382,0,0,0,1.15893-1.04364,1.97368,1.97368,0,0,1,.61932-.6676c.32809-.28141.70652-.50718,1.01648-.8055a2.76982,2.76982,0,0,0,.38469-.67039c.49236-.06216,1.21539.06528,1.50441-.23087.876-.89758,1.8761-.329,2.799-.4218,1.06086-.10666,2.14068-.02475,3.20663-.02475a2.46024,2.46024,0,0,1-.67725,2.41951.54446.54446,0,0,1-.38947.113c-.60249-.98813-1.57994-.31242-2.34767-.538A1.16686,1.16686,0,0,0,948.03469,62.71155Z"/><path d="M964.6109,101.71731c.27653.28376.65373.664,1.023,1.0518.32.33608.613.70013.95219,1.0149.23235.21562.56819.56036.77963.51121.55706-.12948.47929.30106.647.53433.30746.42752.444.95638,1.01257,1.22818.339.16208.51037.65392.79242.96554a2.06115,2.06115,0,0,0,.51552.31306c.27361.397-.277,1.18112.62355,1.28695l-.0107,1.73776c-.17016-.05212-.45341-.06452-.48838-.16411a3.18242,3.18242,0,0,1-.09044-.79509c-.58249-.42993-1.141-.7674-1.24376-1.60626-.0511-.41731-.53981-.80432-.88058-1.15664-.38356-.39657-.82347-.73864-1.30456-1.16227l-.88174-.34576.37009-.41652c-.99483.07765-1.4247-.5956-1.85843-1.26367-1.1697-.09933-1.1697-.09933-1.28432-.407l-1.74593-.951a1.75059,1.75059,0,0,0-1.39279-1.30884c-.63961-.05876-.89328-.60345-1.29216-.96339-.36237-.327-.70555-.67567-1.04978-1.02215a4.37934,4.37934,0,0,0-.57926-.61363c-.64888-.43235-1.338-.80468-1.98211-1.24352-.14066-.09583-.15982-.37-.315-.7666.527.27515,1.08805-.12448,1.15317.59434.002.02156.08924.03718.13773.05245.76254.2402,1.53454.45488,2.283.73294.27132.10079.46837.3862.73112.52874.4823.26163,1.00969.44537,1.47259.73469.16132.10082.18772.41752.29952.69456.84529-.06966,1.2863.51706,1.80747,1.14314A6.6583,6.6583,0,0,0,964.6109,101.71731Z"/><path d="M1003.1383,91.12711V75.057l.22585-.02037a34.87463,34.87463,0,0,1,.47756,3.56045c.05723,1.5685-.07718,3.14318-.099,4.71561-.02021,1.45418.07925,2.91461-.02393,4.36161a32.38137,32.38137,0,0,1-.598,3.43485Z"/><path d="M998.75206,82.61074c-.76328.07767-1.4414-.09895-1.81345.58859-.0777.14359-.21389.25529-.29335.39824-.06871.12361-.06288.36487-.14517.39307-.94542.32391-.27751.59628-.07138.79668l-.59362,1.03643c-.84707-.41462-1.05734-.917-.96761-2.47367l1.6116-.86466a7.839,7.839,0,0,0,.74317-1.16184,3.06232,3.06232,0,0,0,.07823-.984c.01744-.2785.03769-.55682.06172-.909.849.07248.7178.82657,1.03256,1.21745C998.95351,81.34189,998.41385,81.95019,998.75206,82.61074Z"/><path d="M957.67659,59.46722l-.23406,1.14767-.182-.43847-1.08639,1.11-.49093.02841-.17762.69529-1.70772.08427-.13248.68291-1.0592-1.06472c.2483-.27887.60839-.69181.97818-1.09586a10.41964,10.41964,0,0,1,.90348-.92968,1.0468,1.0468,0,0,1,.60954-.21029C955.90737,59.45331,956.71842,59.46722,957.67659,59.46722Z"/><path d="M945.779,115.05117l-.2835-1.11338,1.8229-.86433c0-.31206-.00318-.59173.00055-.87129.01626-1.21757.10228-1.28093,1.38118-.97111l.10977,1.73947-1.94918.94827Z"/><path d="M1001.66863,65.86749h-.50994V64.644l-.19551.07222c-.14748-.26642-.399-.52436-.42156-.801-.05283-.64831-.63026-.83422-.9535-1.236-.304-.37784-.66147-.71261-.99542-1.06633l.18887-.23488c.24389.08236.58994.09.71424.25985a22.13787,22.13787,0,0,1,1.63145,2.47831A9.08219,9.08219,0,0,1,1001.66863,65.86749Z"/><path d="M947.49055,95.55462c.47533.02522.95467.02421,1.42288.09588.10462.016.25571.4124.24116.42234-.309.21093-.68137.58775-.95362.52858-.34077-.074-.60264-.51113-.89856-.7915Z"/><path d="M999.93347,96.27774l-.02242-.42475,1.67542-1.59618.19859.21568-2.00177,1.59538Z"/><path d="M1003.12076,91.10915c.07076.98719.07076.98719-.572,1.69892V91.073c.20977.01915.39972.03651.58961.054Z"/><path d="M998.71854,97.443V96.37238l.94835-.04421Z"/><path class="893d7d3f-b31d-41ba-adb9-860d0e86dceb" d="M924.44366,113.32595l1.07247-.888.69915-2.52678h1.75641c.25371.48521-.05189,1.17992.69378,1.3041-.00482.89028.33293,2.032-.09345,2.61285-.66685.90839-.26139,1.78215-.47674,2.63475a.85269.85269,0,0,0-.02138.27055,9.23081,9.23081,0,0,1-1.99274-.51654,3.3528,3.3528,0,0,1-1.15862-1.19207,10.51284,10.51284,0,0,1-.714-1.6176Z"/><path class="893d7d3f-b31d-41ba-adb9-860d0e86dceb" d="M927.93372,125.38049l-1.60848-1.41779a7.43686,7.43686,0,0,0-.01855-1.19219c-.03535-.2293-.31476-.41265-.38649-.64664a6.93951,6.93951,0,0,1-.16412-1.04014h.43848l.24066-2.23281.28507-.01533c.07677.6057.13056,1.21562.24029,1.81529a4.17535,4.17535,0,0,0,.32334.8312c.04661.11036.13176.20645.1672.31917.22656.72059.44378,1.44412.66564,2.16619.01421.04625.03821.1249.06328.12719.49592.04545.71368.37305.49088.759C928.50738,125.13683,928.092,125.27467,927.93372,125.38049Z"/><path class="893d7d3f-b31d-41ba-adb9-860d0e86dceb" d="M924.86953,118.876l-1.15947.057a6.70176,6.70176,0,0,1,.03276-1.64192c.099-.3686.48738-.66666.77967-.9639.026-.02642.42748.18408.42847.28671C924.95793,117.34343,924.906,118.07345,924.86953,118.876Z"/><path class="893d7d3f-b31d-41ba-adb9-860d0e86dceb" d="M937.50177,53.49062h-2.24422c.313-.3874.55342-.57178.62458-.8073.06171-.20427-.06834-.46647.00063-.88725.27615.21032.81028.48108.77794.61913a2.89552,2.89552,0,0,1-.62173.9206l1.4571-.16547Z"/><path class="893d7d3f-b31d-41ba-adb9-860d0e86dceb" d="M934.00884,108.559l1.738.208C934.68278,109.43685,934.09046,109.36,934.00884,108.559Z"/><path class="893d7d3f-b31d-41ba-adb9-860d0e86dceb" d="M956.49964,71.24207c.17353.8675,1.646,1.08572,1.16409,2.00209-.31371.36622-.49436.59725-.69876.80493a.50224.50224,0,0,1-.30743.12227c-.04875.00307-.1504-.11341-.15109-.17651C956.49652,73.07733,956.49964,72.15968,956.49964,71.24207Z"/><rect x="-2.77629" y="160.9765" width="963.35535" height="3.15652"/><rect class="c2c5e53a-60b4-42e6-893e-b6a38569bf77" x="-2.53291" y="156.84925" width="963.35535" height="2.52583"/><rect x="-2.4613" y="24.99781" width="931.61699" height="0.95706"/><path class="e4797764-18be-4013-8952-0b88694d5fc1" d="M954.8966,140.88362l-.1642-.10684a6.39834,6.39834,0,0,0-.9346,1.49437,9.36755,9.36755,0,0,0-.249,2.21268c-.06523,1.43822-.52608,1.9412-1.78214,1.99778-.27723.26931-.49608.45612-.68041.67189a.80345.80345,0,0,0-.17037.40432c-.0665.538,1.05274,1.69973,1.66738,1.73364.02834.00158.06431-.13272.13072-.2782.03639.40624.04907.75212.10574,1.09078.02677.16.12456.4293.21287.43866.58684.06216.486.51947.61321.882a6.18634,6.18634,0,0,0,.58274,1.02159c-.47848.28057-1.20214-.20439-1.3632.637.531.20376,1.33971-.22608,1.50735.6768a1.27923,1.27923,0,0,0,.41529-.03851c.11912-.906.83628-.39231,1.29972-.5882.21027.4426.3123,1.24134.93371.26236.14816-.2334.74424-.18758,1.20246-.28461l.14027-1.08912c.68122-.1907,1.18627-.11873,1.289.739.01612.13451.18634.25089.2853.37566a2.70818,2.70818,0,0,1,.27977-.29936c.14315-.1148.29532-.27624.45966-.29783.921-.12106,1.84689-.20607,2.8811-.315.16614.06614.50751.18334.831.33736.219.10424.40474.3576.61941.37513a15.106,15.106,0,0,0,2.04515.021c.20016-.0109.37867-.29768.58542-.32579a11.35254,11.35254,0,0,0,1.7389-.15254,7.54629,7.54629,0,0,0,1.49156-.8203l-.38319,1.408c1.05812.284,1.45486-.64839,2.1734-.91144a1.8945,1.8945,0,0,1,.23346.33453c.1345.29773.36735.58317-.19327.78535-.33951.12242-.78081.43579-.84754.73532-.13848.62149-.556.438-.91084.48709-.47294.06539-.87368-.014-1.23076.60181-.30064.51852-1.18558.70437-1.89581.87481a12.06417,12.06417,0,0,0-1.15192,1.32788,2.34212,2.34212,0,0,0-.22208,1.03544c-.03426.36861-.07589.66982-.616.52045v2.9751c.85859.114,1.1765.69043,1.52628,1.42377.31888.66855,1.15045,1.08583,1.05186,2.03682a2.27791,2.27791,0,0,1,2.12534,1.24383c.02859.06005.19092.08172.29059.0806a1.63991,1.63991,0,0,1,1.64886,1.2911c.13894.36351.58223.61452.89221.91171.5719.54829,1.16,1.08064,1.71628,1.644.31715.32125.55933.71606.88164,1.03117.3094.30249.7016.5221,1.00886.8263.10437.10334.08887.35491.07911.53612a2.11764,2.11764,0,0,1-1.34622,1.22893c-.56343.01095-1.12724.00272-1.7337.00272l-.12575.677a4.64123,4.64123,0,0,1-3.38716-.25679,2.2955,2.2955,0,0,1-1.0189-.62232,7.51661,7.51661,0,0,0-4.99733-2.40092,1.64056,1.64056,0,0,1-.75488-.40288c-1.135-.94656-2.18792-2.00346-3.391-2.85293-1.992-1.40653-2.80076-3.49374-3.37076-5.64954a31.10082,31.10082,0,0,0-2.40586-5.4.84412.84412,0,0,0-.5827-.30047c-1.54444-.21967-3.09674-.3879-4.63692-.63211a2.13208,2.13208,0,0,1-1.095-.53085c-2.6685-2.61-5.23549-5.32679-7.9854-7.84824a34.50584,34.50584,0,0,0-4.945-3.5809,18.27556,18.27556,0,0,1-4.48046-3.97743c-2.67376-3.28777-5.44486-6.49772-8.16723-9.74684a6.37488,6.37488,0,0,1-.61384-.936c-3.9156-6.83108-7.09637-14.026-10.55837-21.08038a15.93394,15.93394,0,0,1-.83913-3.81583c-.18707-.91569-.30326-1.84989-.55331-2.74789-.89418-3.21128-.68825-6.5217-.94649-9.78923-.15158-1.918-.22072-3.84233-.35528-5.76185a.99909.99909,0,0,0-.33213-.65214,7.86972,7.86972,0,0,1-3.22471-6.31415,35.85779,35.85779,0,0,0-.18085-3.91277,12.6008,12.6008,0,0,0-.83941-2.48458c-.99591-2.73573-2.15046-5.42748-2.92983-8.22219a7.47227,7.47227,0,0,0-1.81681-3.12722,2.24242,2.24242,0,0,1-.49631-1.21278c-.26107-2.57863-.46642-5.16276-.70344-7.74387a1.494,1.494,0,0,0-.21774-.75526,4.40637,4.40637,0,0,1-.74661-3.10179,12.74284,12.74284,0,0,0-.14817-1.72607q0-.8822,0-1.7644c.10778-1.16384.27551-2.32584.312-3.49187a22.56192,22.56192,0,0,1,2.67251-9.4355c.07838-.1568.03509-.36939.09557-.53955A12.841,12.841,0,0,1,901.5,28.526c1.83153-2.45245,3.48613-5.08244,6.01627-6.95843.59314-.43979,1.03663-1.08654,1.64742-1.49272q4.54615-3.02322,9.15442-5.95415c.93713-.5952,1.99758-.99766,2.94765-1.57541,1.2572-.76453,2.261-1.85472,3.93015-1.99754a5.24822,5.24822,0,0,0,3.94626-1.824c.05741-.07515.19-.09463.28845-.13812q1.86069-.82212,3.72217-1.64249a3.8235,3.8235,0,0,1,.5275-.20069c.977-.26587,1.95631-.52337,2.93482-.78376h4.04659c.9054.09986,1.809.26254,2.71653.28741a16.28181,16.28181,0,0,1,6.66952,1.95279,4.74643,4.74643,0,0,0,1.84425.46632c1.7513.06159,3.50663-.00039,5.25963.029a3.11347,3.11347,0,0,1,2.68577,1.00866,1.06176,1.06176,0,0,0,.62.32122c1.50079.263,3.00782.49091,4.509.75177a1.98219,1.98219,0,0,1,.72121.29777,56.96727,56.96727,0,0,1,9.173,6.80742c.10871.10749.29907.265.39543.23307.823-.27231,1.23824.343,1.73207.75783,1.437,1.2072,2.84437,2.44947,4.29249,3.6433,1.49473,1.23227,2.18094,3.0144,3.22685,4.55056a9.18594,9.18594,0,0,1,1.57035,4.6411,7.82274,7.82274,0,0,0,.99012,2.40967c.86141,1.89362,1.67354,3.813,2.62553,5.6613a11.45719,11.45719,0,0,1,.99851,5.10164,2.13266,2.13266,0,0,0,.32823.95741c.54114.92116,1.1687,1.79451,1.67791,2.73166a16.6881,16.6881,0,0,1,2.00611,8.37747,9.77348,9.77348,0,0,0,1.44735,5.85786l2.44049-2.203a1.40969,1.40969,0,0,1-1.19378,1.55331l-1.324,2.25607"/><rect class="893d7d3f-b31d-41ba-adb9-860d0e86dceb" x="992.42261" y="75.251" width="7.90894" height="12.72308"/><path d="M51.03149,144.15855a9.55444,9.55444,0,0,1,.903,3.13013q0,2.28837-3.73216,3.85267a8.28358,8.28358,0,0,1-3.09988.84253,3.09433,3.09433,0,0,1-1.92608-.57177,4.29547,4.29547,0,0,1-1.1138-1.1738q-.60228-1.143-4.6952-10.89547l-1.86608.12051H27.917v6.8023a17.38668,17.38668,0,0,1-.09077,2.07684,4.81731,4.81731,0,0,1-.57177,1.59481q-.84381,1.62532-4.6952,1.62558-4.21368,0-4.9357-2.2276a10.0476,10.0476,0,0,1-.36152-3.13013V112.79723a17.53381,17.53381,0,0,1,.09025-2.07684,4.81433,4.81433,0,0,1,.57229-1.59532q.84227-1.62532,4.6952-1.62506H35.62184a16.69968,16.69968,0,0,1,10.29344,3.85216,14.14756,14.14756,0,0,1,3.97266,5.05672,15.91642,15.91642,0,0,1,1.56507,7.1028,14.95208,14.95208,0,0,1-4.51469,11.19648Q48.26211,137.89957,51.03149,144.15855ZM27.917,128.8089h7.70482a5.76434,5.76434,0,0,0,3.49114-1.32405,4.671,4.671,0,0,0,1.74557-3.97318,4.75691,4.75691,0,0,0-1.74557-4.00292,5.83083,5.83083,0,0,0-3.61165-1.35431H27.917Z"/><path class="0c882c1c-562d-4cd2-b517-61725dec2a3e" d="M83.1084,121.77783q3.38159,1.49121,3.38184,3.61133a4.30511,4.30511,0,0,1-.4585,1.94873,9.28736,9.28736,0,0,0-.4585.97412L70.55615,161.8999q-.46,1.08838-.77393,1.66211a3.535,3.535,0,0,1-1.00293,1.08887,2.78351,2.78351,0,0,1-1.71973.51611,8.63637,8.63637,0,0,1-3.0376-.85986q-3.38306-1.49121-3.38184-3.55371,0-1.37549,5.50244-13.12549L54.73633,128.42676a6.4019,6.4019,0,0,1-1.146-2.80859q0-1.83325,3.09521-3.668a6.71542,6.71542,0,0,1,3.0376-1.14648,3.15024,3.15024,0,0,1,1.77686.4585,3.46151,3.46151,0,0,1,1.00293.9458q.31421.48779,3.15234,5.33057,2.8374,4.84424,5.4165,9.02734.28638-.91626,3.09521-7.07861,2.80737-6.16113,3.00928-6.563a5.78563,5.78563,0,0,1,.65918-.97412,2.48117,2.48117,0,0,1,2.0918-.97461A8.17519,8.17519,0,0,1,83.1084,121.77783Z"/><path class="0c882c1c-562d-4cd2-b517-61725dec2a3e" d="M109.24414,124.644q.34424-3.20947,4.52783-3.21a11.88571,11.88571,0,0,1,3.32471.34375,2.40578,2.40578,0,0,1,1.51855,1.2041,4.91132,4.91132,0,0,1,.51611,1.51855,16.70683,16.70683,0,0,1,.08594,1.97754v20.061a16.68408,16.68408,0,0,1-.08594,1.97754,5.31794,5.31794,0,0,1-.4873,1.51855q-.80347,1.49121-3.92627,1.49023-3.12451,0-4.18408-.77344a3.09293,3.09293,0,0,1-1.23242-2.26416q-2.12109,3.03882-7.07861,3.0376-4.95776,0-9.19922-4.52783a15.0897,15.0897,0,0,1,.02881-21.00684q4.26929-4.49854,9.37109-4.499a8.934,8.934,0,0,1,3.55371.6875,7.91443,7.91443,0,0,1,2.23535,1.28955A8.01871,8.01871,0,0,1,109.24414,124.644ZM98.8125,136.56592a4.75247,4.75247,0,0,0,1.49023,3.41016,4.86811,4.86811,0,0,0,3.61084,1.519,4.56,4.56,0,0,0,3.5249-1.54785,4.96589,4.96589,0,0,0,1.4043-3.41016,5.29745,5.29745,0,0,0-1.34668-3.46777,4.47613,4.47613,0,0,0-3.61084-1.605,4.64306,4.64306,0,0,0-3.66846,1.605A5.20214,5.20214,0,0,0,98.8125,136.56592Z"/><path class="0c882c1c-562d-4cd2-b517-61725dec2a3e" d="M140.59619,121.43408a12.123,12.123,0,0,1,9.54346,4.38477,15.73112,15.73112,0,0,1,3.81152,10.68945v10.08789a16.68408,16.68408,0,0,1-.08594,1.97754,4.6968,4.6968,0,0,1-.4873,1.46143q-.80347,1.54761-4.4707,1.54785-4.07007,0-4.7002-2.12109a9.33846,9.33846,0,0,1-.34375-2.92285V136.45117a4.60428,4.60428,0,0,0-4.958-4.98682,5.01628,5.01628,0,0,0-3.668,1.376,4.82487,4.82487,0,0,0-1.4043,3.61084v10.145a16.68408,16.68408,0,0,1-.08594,1.97754,4.08792,4.08792,0,0,1-.54443,1.46143q-.74561,1.54761-4.41357,1.54785-3.61084,0-4.41357-1.54785a5.31794,5.31794,0,0,1-.4873-1.51855,16.68408,16.68408,0,0,1-.08594-1.97754V126.24854a16.04618,16.04618,0,0,1,.08594-1.91992,4.0719,4.0719,0,0,1,.54492-1.46143q.802-1.43188,4.41309-1.43311,3.49585,0,4.29883,1.31836a4.56723,4.56723,0,0,1,.57324,2.3501,5.81522,5.81522,0,0,1,1.03174-1.14648,10.09156,10.09156,0,0,1,1.54736-1.20361A7.50913,7.50913,0,0,1,140.59619,121.43408Z"/><path d="M205.14774,144.15855a9.55444,9.55444,0,0,1,.903,3.13013q0,2.28837-3.73216,3.85267a8.28358,8.28358,0,0,1-3.09988.84253,3.09433,3.09433,0,0,1-1.92608-.57177,4.29547,4.29547,0,0,1-1.1138-1.1738q-.60228-1.143-4.6952-10.89547l-1.86608.12051h-7.58432v6.8023a17.38667,17.38667,0,0,1-.09077,2.07684,4.81731,4.81731,0,0,1-.57177,1.59481q-.84381,1.62532-4.6952,1.62558-4.21368,0-4.9357-2.2276a10.0476,10.0476,0,0,1-.36152-3.13013V112.79723a17.53382,17.53382,0,0,1,.09025-2.07684,4.81433,4.81433,0,0,1,.57229-1.59532q.84227-1.62532,4.6952-1.62506h13.00205a16.69968,16.69968,0,0,1,10.29344,3.85216,14.14756,14.14756,0,0,1,3.97266,5.05672,15.91642,15.91642,0,0,1,1.56507,7.1028,14.95208,14.95208,0,0,1-4.51469,11.19648Q202.37836,137.89957,205.14774,144.15855ZM182.03327,128.8089h7.70482a5.76434,5.76434,0,0,0,3.49114-1.32405,4.671,4.671,0,0,0,1.74557-3.97318,4.75691,4.75691,0,0,0-1.74557-4.00292,5.83082,5.83082,0,0,0-3.61165-1.35431h-7.58432Z"/><path class="0c882c1c-562d-4cd2-b517-61725dec2a3e" d="M237.17432,132.92627q0,3.52515-1.748,5.21582a5.45366,5.45366,0,0,1-3.86914,1.69092h-13.584a3.14141,3.14141,0,0,0,1.8916,2.69385,7.5226,7.5226,0,0,0,3.78271,1.08887,15.76657,15.76657,0,0,0,5.21582-.688l.63037-.229a5.78752,5.78752,0,0,1,2.293-.63037q1.83325,0,3.15234,2.5791a6.33741,6.33741,0,0,1,.74512,2.63672q0,5.10205-12.2085,5.10107a18.42157,18.42157,0,0,1-7.53711-1.46143,12.79517,12.79517,0,0,1-5.12988-3.86914,16.48039,16.48039,0,0,1-3.61084-10.374q0-7.22241,4.6709-11.5498a16.508,16.508,0,0,1,11.66406-4.32715q7.96655,0,11.69287,5.61719A11.65788,11.65788,0,0,1,237.17432,132.92627Zm-12.09375,1.69092q2.17749,0,2.17773-1.83447a2.585,2.585,0,0,0-1.00293-2.12061,4.49323,4.49323,0,0,0-2.86572-.80225,5.79512,5.79512,0,0,0-3.69678,1.51855,4.26206,4.26206,0,0,0-1.83447,3.23877Z"/><path class="0c882c1c-562d-4cd2-b517-61725dec2a3e" d="M267.26563,121.77783q3.38159,1.49121,3.38184,3.61133a4.30511,4.30511,0,0,1-.4585,1.94873,9.28735,9.28735,0,0,0-.4585.97412L254.71338,161.8999q-.46,1.08838-.77393,1.66211a3.535,3.535,0,0,1-1.00293,1.08887,2.78351,2.78351,0,0,1-1.71973.51611,8.63637,8.63637,0,0,1-3.0376-.85986q-3.38306-1.49121-3.38184-3.55371,0-1.37549,5.50244-13.12549l-11.40625-19.20117a6.4019,6.4019,0,0,1-1.146-2.80859q0-1.83325,3.09521-3.668a6.71542,6.71542,0,0,1,3.0376-1.14648,3.15024,3.15024,0,0,1,1.77686.4585,3.46151,3.46151,0,0,1,1.00293.9458q.31421.48779,3.15234,5.33057,2.8374,4.84424,5.4165,9.02734.28638-.91626,3.09521-7.07861,2.80737-6.16113,3.00928-6.563a5.78564,5.78564,0,0,1,.65918-.97412,2.48117,2.48117,0,0,1,2.0918-.97461A8.17519,8.17519,0,0,1,267.26563,121.77783Z"/><path class="0c882c1c-562d-4cd2-b517-61725dec2a3e" d="M290.02,121.43408a12.123,12.123,0,0,1,9.54346,4.38477A15.73112,15.73112,0,0,1,303.375,136.5083v10.08789a16.68408,16.68408,0,0,1-.08594,1.97754,4.6968,4.6968,0,0,1-.4873,1.46143q-.80347,1.54761-4.4707,1.54785-4.07007,0-4.7002-2.12109a9.33846,9.33846,0,0,1-.34375-2.92285V136.45117a4.60428,4.60428,0,0,0-4.958-4.98682,5.01628,5.01628,0,0,0-3.668,1.376,4.82487,4.82487,0,0,0-1.4043,3.61084v10.145a16.68408,16.68408,0,0,1-.08594,1.97754,4.08792,4.08792,0,0,1-.54443,1.46143q-.74561,1.54761-4.41357,1.54785-3.61084,0-4.41357-1.54785a5.31794,5.31794,0,0,1-.4873-1.51855,16.68408,16.68408,0,0,1-.08594-1.97754V126.24854a16.04618,16.04618,0,0,1,.08594-1.91992,4.07191,4.07191,0,0,1,.54492-1.46143q.802-1.43188,4.41309-1.43311,3.49585,0,4.29883,1.31836a4.56724,4.56724,0,0,1,.57324,2.3501,5.81522,5.81522,0,0,1,1.03174-1.14648,10.09156,10.09156,0,0,1,1.54736-1.20361A7.50913,7.50913,0,0,1,290.02,121.43408Z"/><path class="0c882c1c-562d-4cd2-b517-61725dec2a3e" d="M311.91455,125.21729a15.74548,15.74548,0,0,1,21.95215-.02881,15.80063,15.80063,0,0,1,2.293,19.77441,15.45607,15.45607,0,0,1-5.98975,5.44482,16.25013,16.25013,0,0,1-7.30811,1.748,15.6122,15.6122,0,0,1-7.33643-1.86279,16.25411,16.25411,0,0,1-5.98975-5.50244,14.44249,14.44249,0,0,1-2.43555-8.22461A14.81183,14.81183,0,0,1,311.91455,125.21729Zm7.16455,15.44678a6.08817,6.08817,0,0,0,3.72559,1.4043,6.24984,6.24984,0,0,0,3.7832-1.43311,5.75731,5.75731,0,0,0,.11426-8.42578,6.14894,6.14894,0,0,0-3.84033-1.37549,6,6,0,0,0-3.83984,1.43311,5.0915,5.0915,0,0,0-1.77686,4.21289A4.93885,4.93885,0,0,0,319.0791,140.66406Z"/><path class="0c882c1c-562d-4cd2-b517-61725dec2a3e" d="M342.34912,112.26367a16.69545,16.69545,0,0,1,.08594-1.97754,5.3252,5.3252,0,0,1,.4873-1.519q.802-1.54761,4.4707-1.54736,3.49585,0,4.35645,1.54736a4.59159,4.59159,0,0,1,.54443,1.54736,17.49852,17.49852,0,0,1,.08594,2.00635v26.5376a6.00135,6.00135,0,0,0,.34375,2.60791q.34424.54565,1.519.54443a9.20705,9.20705,0,0,1,1.57617.08594,2.899,2.899,0,0,1,.97412.4873q1.14624.74561,1.14648,4.06982,0,3.61084-1.14648,4.41309-1.49048,1.032-7.10693.34375-4.41431-.572-5.73193-2.92285-1.60547-2.80811-1.605-8.94141Z"/><path class="0c882c1c-562d-4cd2-b517-61725dec2a3e" d="M381.353,108.853a2.42985,2.42985,0,0,1,1.519-1.1748,12.34147,12.34147,0,0,1,5.78906,0,2.40489,2.40489,0,0,1,1.51855,1.20361,4.93078,4.93078,0,0,1,.51611,1.519,16.69166,16.69166,0,0,1,.08594,1.97705v34.21826a16.68408,16.68408,0,0,1-.08594,1.97754,4.08792,4.08792,0,0,1-.54443,1.46143q-.85986,1.54761-4.84326,1.54785-3.98511,0-4.44238-2.80859a8.44165,8.44165,0,0,1-6.70605,2.751q-5.15845,0-9.3999-4.499a15.08977,15.08977,0,0,1,.02881-21.00684q4.26929-4.5271,9.37109-4.52783a8.04906,8.04906,0,0,1,6.59131,2.86572V112.3208a16.57791,16.57791,0,0,1,.08643-1.97754A4.62428,4.62428,0,0,1,381.353,108.853Zm-9.314,31.15186a4.82609,4.82609,0,0,0,3.61084,1.54736,4.5603,4.5603,0,0,0,3.5249-1.54736,4.96791,4.96791,0,0,0,1.4043-3.41064,5.29529,5.29529,0,0,0-1.34668-3.46729,4.508,4.508,0,0,0-3.63965-1.605,4.62757,4.62757,0,0,0-3.66846,1.57617,5.15989,5.15989,0,0,0-1.37549,3.46777A4.84954,4.84954,0,0,0,372.03906,140.00488Z"/><path class="0c882c1c-562d-4cd2-b517-61725dec2a3e" d="M395.59619,148.94629a2.385,2.385,0,0,1-1.08887-2.17822q0-1.48975,2.17773-4.52783a2.24227,2.24227,0,0,1,2.03467-.97461,8.37392,8.37392,0,0,1,3.812,1.4043,8.82,8.82,0,0,0,4.356,1.4043q3.49512,0,3.49609-1.37549,0-1.08838-3.84033-1.605a18.75059,18.75059,0,0,1-7.16455-2.69385,7.656,7.656,0,0,1-2.751-3.23828,11.723,11.723,0,0,1-1.08887-5.24463q0-9.05566,12.4375-9.05615a20.21032,20.21032,0,0,1,8.36816,1.94873q2.0061.91772,2.00635,2.293a6.764,6.764,0,0,1-1.26123,3.38135q-1.26123,2.00757-2.5791,2.00635a7.75394,7.75394,0,0,1-2.55078-.85986,9.52449,9.52449,0,0,0-4.04053-.85986q-3.38306,0-3.38184,1.26123,0,1.71973,3.89746,2.23535a21.3454,21.3454,0,0,1,7.33643,2.17822,6.49053,6.49053,0,0,1,2.78027,2.77979,9.96675,9.96675,0,0,1,1.11768,4.95752,10.63982,10.63982,0,0,1-1.11768,5.07275,7.25008,7.25008,0,0,1-3.124,3.124,21.057,21.057,0,0,1-9.19922,1.77637A19.67125,19.67125,0,0,1,395.59619,148.94629Z"/><path class="32963cd9-7fff-4264-9ef9-0228acef3b16" d="M699.56836,144.72412q.76758.33618.76758.82764a1.95174,1.95174,0,0,1-.19238.6543q-.19189.44971-.32324.78613L698.5,150.208a1.24145,1.24145,0,0,1-.59961.74414,1.087,1.087,0,0,1-.45605.084.839.839,0,0,1-.53418-.21,1.07677,1.07677,0,0,1-.3418-.42627l-.09668-.2041q-.09521-.2395-.708-1.87158-.12012.28784-.35352.94189-.23437.65405-.2998.81592c-.04395.10791-.07227.18018-.084.21582a1.478,1.478,0,0,1-.10254.19824,1.25806,1.25806,0,0,1-.19141.252.90936.90936,0,0,1-.66016.28809.94366.94366,0,0,1-.624-.21,1.0916,1.0916,0,0,1-.33594-.42627l-1.8125-4.416a2.00575,2.00575,0,0,1-.12012-.46777q0-.47974.68457-.75635a1.7661,1.7661,0,0,1,.624-.15576.68333.68333,0,0,1,.59961.30615,1.05144,1.05144,0,0,1,.0957.21q.20508.47974.85254,2.25586l.708-1.94385a.93364.93364,0,0,1,.26367-.41992.9712.9712,0,0,1,1.32617-.15625,1.15646,1.15646,0,0,1,.35449.38428l.0957.20361q.59912,1.68018.708,1.91992l.73145-1.9917q.28857-.76758.86426-.76807A1.11729,1.11729,0,0,1,699.56836,144.72412Z"/><path class="32963cd9-7fff-4264-9ef9-0228acef3b16" d="M706.85254,147.082a1.456,1.456,0,0,1-.36621,1.0918,1.13968,1.13968,0,0,1-.80957.354H702.832a.6587.6587,0,0,0,.39648.564,1.57185,1.57185,0,0,0,.792.228,3.29606,3.29606,0,0,0,1.0918-.144l.13184-.04785a1.21507,1.21507,0,0,1,.48047-.13184q.38379,0,.66016.54a1.328,1.328,0,0,1,.15527.55176q0,1.0686-2.55566,1.06836a3.864,3.864,0,0,1-1.57812-.30615A2.6819,2.6819,0,0,1,701.332,150.04a3.45087,3.45087,0,0,1-.75586-2.17187,3.13657,3.13657,0,0,1,.97852-2.418,3.454,3.454,0,0,1,2.44141-.90625,2.72758,2.72758,0,0,1,2.44824,1.17627A2.44258,2.44258,0,0,1,706.85254,147.082Zm-2.53223.354q.45557,0,.45605-.38428a.54213.54213,0,0,0-.21-.44385.93975.93975,0,0,0-.59961-.168,1.21232,1.21232,0,0,0-.77441.31787.89326.89326,0,0,0-.38379.67822Z"/><path class="32963cd9-7fff-4264-9ef9-0228acef3b16" d="M711.10059,144.688a2.66309,2.66309,0,0,1,1.96191.94824,3.16,3.16,0,0,1,.00586,4.39795,2.60912,2.60912,0,0,1-1.9082.94189,1.69954,1.69954,0,0,1-1.45215-.57617q-.09521.58813-1.03125.58789-.75732,0-.9248-.32373a1.11381,1.11381,0,0,1-.10156-.31787,3.57271,3.57271,0,0,1-.01758-.41406v-7.16406a3.57271,3.57271,0,0,1,.01758-.41406.98458.98458,0,0,1,.10156-.30615q.16846-.32373.93652-.32373.75586,0,.91211.32373a.96375.96375,0,0,1,.11328.31836,3.31181,3.31181,0,0,1,.01855.41357v2.49609A1.66463,1.66463,0,0,1,711.10059,144.688Zm-1.0498,3.876a.953.953,0,0,0,.7373.32422,1.08874,1.08874,0,0,0,1.06836-1.04395,1.07774,1.07774,0,0,0-.28809-.72607.96853.96853,0,0,0-.76758-.33008.94432.94432,0,0,0-.7627.33594,1.11187,1.11187,0,0,0-.28223.72607A1.03948,1.03948,0,0,0,710.05078,148.564Z"/><path d="M718.27539,149.332h-2.85547q-.67236,0-.80371-.4082a2.10344,2.10344,0,0,1-.06055-.55176,1.66541,1.66541,0,0,1,.07227-.54.49894.49894,0,0,1,.22754-.28809,1.30208,1.30208,0,0,1,.57617-.10791h2.85645q.6709,0,.792.396a1.78025,1.78025,0,0,1,.07227.55176,1.86756,1.86756,0,0,1-.06641.54639.49407.49407,0,0,1-.21.29395A1.369,1.369,0,0,1,718.27539,149.332Z"/><path class="32963cd9-7fff-4264-9ef9-0228acef3b16" d="M724.17383,142.042a.51207.51207,0,0,1,.31836-.24609,2.59369,2.59369,0,0,1,1.21191,0,.50679.50679,0,0,1,.31836.252,1.03064,1.03064,0,0,1,.10742.31836,3.31181,3.31181,0,0,1,.01855.41357v7.16406a3.31548,3.31548,0,0,1-.01855.41406.85255.85255,0,0,1-.11328.30615q-.18018.32373-1.01465.32373-.8335,0-.92969-.58789a1.76618,1.76618,0,0,1-1.4043.57617,2.662,2.662,0,0,1-1.96777-.94189,3.16,3.16,0,0,1,.00586-4.39795,2.66151,2.66151,0,0,1,1.96191-.94824,1.68549,1.68549,0,0,1,1.37988.6001v-2.52a3.32078,3.32078,0,0,1,.01855-.41406A.97276.97276,0,0,1,724.17383,142.042Zm-1.94922,6.522a1.00992,1.00992,0,0,0,.75586.32422.953.953,0,0,0,.7373-.32422,1.03834,1.03834,0,0,0,.29395-.71387,1.11068,1.11068,0,0,0-.28125-.72607.94432.94432,0,0,0-.7627-.33594.96853.96853,0,0,0-.76758.33008,1.07774,1.07774,0,0,0-.28809.72607A1.012,1.012,0,0,0,722.22461,148.564Z"/><path class="32963cd9-7fff-4264-9ef9-0228acef3b16" d="M733.2041,147.082a1.456,1.456,0,0,1-.36621,1.0918,1.13968,1.13968,0,0,1-.80957.354h-2.84473a.6587.6587,0,0,0,.39648.564,1.57185,1.57185,0,0,0,.792.228,3.29606,3.29606,0,0,0,1.0918-.144l.13184-.04785a1.21507,1.21507,0,0,1,.48047-.13184q.38379,0,.66016.54a1.328,1.328,0,0,1,.15527.55176q0,1.0686-2.55566,1.06836a3.864,3.864,0,0,1-1.57812-.30615,2.6819,2.6819,0,0,1-1.07422-.81006,3.45087,3.45087,0,0,1-.75586-2.17187,3.13657,3.13657,0,0,1,.97852-2.418,3.454,3.454,0,0,1,2.44141-.90625,2.72758,2.72758,0,0,1,2.44824,1.17627A2.44258,2.44258,0,0,1,733.2041,147.082Zm-2.53223.354q.45557,0,.45605-.38428a.54213.54213,0,0,0-.21-.44385.93975.93975,0,0,0-.59961-.168,1.21232,1.21232,0,0,0-.77441.31787.89326.89326,0,0,0-.38379.67822Z"/><path class="32963cd9-7fff-4264-9ef9-0228acef3b16" d="M739.99512,144.81982q.624.37207.624.792a1.48318,1.48318,0,0,1-.23926.66016l-2.48437,4.26025a1.098,1.098,0,0,1-.38379.36572.99489.99489,0,0,1-.52246.16162,1.03035,1.03035,0,0,1-.49219-.12549.96678.96678,0,0,1-.3291-.2583l-.1084-.13184-2.49609-4.272a1.35253,1.35253,0,0,1-.24023-.64795q0-.43213.624-.8042a1.59442,1.59442,0,0,1,.7207-.26367.53775.53775,0,0,1,.41406.16162,2.298,2.298,0,0,1,.31738.48633l1.57227,3.02393,1.57227-3.02393c.08789-.15186.15332-.26221.19727-.33008a.79943.79943,0,0,1,.21-.2041.65625.65625,0,0,1,.38477-.10205A1.43006,1.43006,0,0,1,739.99512,144.81982Z"/><path class="32963cd9-7fff-4264-9ef9-0228acef3b16" d="M747.01563,147.082a1.456,1.456,0,0,1-.36621,1.0918,1.13968,1.13968,0,0,1-.80957.354h-2.84473a.6587.6587,0,0,0,.39648.564,1.57185,1.57185,0,0,0,.792.228,3.29605,3.29605,0,0,0,1.0918-.144l.13184-.04785a1.21507,1.21507,0,0,1,.48047-.13184q.38379,0,.66016.54a1.328,1.328,0,0,1,.15527.55176q0,1.0686-2.55566,1.06836a3.864,3.864,0,0,1-1.57812-.30615,2.6819,2.6819,0,0,1-1.07422-.81006,3.45087,3.45087,0,0,1-.75586-2.17187,3.13657,3.13657,0,0,1,.97852-2.418,3.454,3.454,0,0,1,2.44141-.90625,2.72758,2.72758,0,0,1,2.44824,1.17627A2.44259,2.44259,0,0,1,747.01563,147.082Zm-2.53223.354q.45557,0,.45605-.38428a.54213.54213,0,0,0-.21-.44385.93975.93975,0,0,0-.59961-.168,1.21232,1.21232,0,0,0-.77441.31787.89326.89326,0,0,0-.38379.67822Z"/><path class="32963cd9-7fff-4264-9ef9-0228acef3b16" d="M747.7959,142.75586a3.57849,3.57849,0,0,1,.01758-.41406,1.1138,1.1138,0,0,1,.10156-.31787q.16846-.32373.93652-.32373.731,0,.91211.32373a.96026.96026,0,0,1,.11328.32422,3.46738,3.46738,0,0,1,.01855.41992v5.55615a1.24225,1.24225,0,0,0,.07227.5459c.04785.07617.15332.11377.31738.11377a1.94725,1.94725,0,0,1,.33008.01807.615.615,0,0,1,.2041.10205q.24023.156.24023.85205,0,.75586-.24023.92383a2.59886,2.59886,0,0,1-1.48828.07227,1.4955,1.4955,0,0,1-1.19922-.6123,3.92925,3.92925,0,0,1-.33594-1.87207Z"/><path class="32963cd9-7fff-4264-9ef9-0228acef3b16" d="M752.54688,145.46777a3.29833,3.29833,0,0,1,4.59668-.00586,3.30664,3.30664,0,0,1,.47949,4.14014,3.233,3.233,0,0,1-1.25391,1.14014,3.40266,3.40266,0,0,1-1.53027.36621,3.263,3.263,0,0,1-1.53516-.39062,3.40931,3.40931,0,0,1-1.25488-1.15186,3.02587,3.02587,0,0,1-.50977-1.72168A3.10194,3.10194,0,0,1,752.54688,145.46777Zm1.5,3.23438a1.27728,1.27728,0,0,0,.78027.29395,1.30785,1.30785,0,0,0,.792-.30029,1.20429,1.20429,0,0,0,.02441-1.76367,1.28988,1.28988,0,0,0-.80469-.28809,1.25644,1.25644,0,0,0-.80371.2998,1.06668,1.06668,0,0,0-.37207.88232A1.0347,1.0347,0,0,0,754.04688,148.70215Z"/><path class="32963cd9-7fff-4264-9ef9-0228acef3b16" d="M758.91992,152.71582V145.708a3.41226,3.41226,0,0,1,.01758-.4082.98722.98722,0,0,1,.10156-.2998c.1123-.21582.37988-.32422.80469-.32422a1.56981,1.56981,0,0,1,.85742.16211.6446.6446,0,0,1,.25781.47412,1.65846,1.65846,0,0,1,1.43457-.624,2.55556,2.55556,0,0,1,1.85352.92383,3.08066,3.08066,0,0,1,.00684,4.29639,2.54441,2.54441,0,0,1-1.85449.92383,1.72423,1.72423,0,0,1-1.42773-.55225v2.42432a3.1829,3.1829,0,0,1-.01855.4082.97593.97593,0,0,1-.10742.30566.5057.5057,0,0,1-.30664.24609,1.92308,1.92308,0,0,1-.58789.07227,1.98723,1.98723,0,0,1-.59375-.07227.508.508,0,0,1-.31152-.24023.9.9,0,0,1-.1084-.2998A3.401,3.401,0,0,1,758.91992,152.71582Zm2.376-5.65186a1.06661,1.06661,0,0,0-.27637.708,1.03219,1.03219,0,0,0,.28223.70215.91831.91831,0,0,0,.71973.31787,1.00345,1.00345,0,0,0,.74414-.312.98419.98419,0,0,0,.30566-.708,1.0345,1.0345,0,0,0-.28809-.71387.96307.96307,0,0,0-.75-.31787A.9193.9193,0,0,0,761.2959,147.064Z"/><path class="32963cd9-7fff-4264-9ef9-0228acef3b16" d="M772,147.082a1.456,1.456,0,0,1-.36621,1.0918,1.13968,1.13968,0,0,1-.80957.354h-2.84473a.6587.6587,0,0,0,.39648.564,1.57185,1.57185,0,0,0,.792.228,3.29605,3.29605,0,0,0,1.0918-.144l.13184-.04785a1.21507,1.21507,0,0,1,.48047-.13184q.38379,0,.66016.54a1.328,1.328,0,0,1,.15527.55176q0,1.0686-2.55566,1.06836a3.864,3.864,0,0,1-1.57812-.30615,2.6819,2.6819,0,0,1-1.07422-.81006,3.45087,3.45087,0,0,1-.75586-2.17187,3.13657,3.13657,0,0,1,.97852-2.418,3.454,3.454,0,0,1,2.44141-.90625,2.72758,2.72758,0,0,1,2.44824,1.17627A2.44259,2.44259,0,0,1,772,147.082Zm-2.53223.354q.45557,0,.45605-.38428a.54213.54213,0,0,0-.21-.44385.93975.93975,0,0,0-.59961-.168,1.21232,1.21232,0,0,0-.77441.31787.89326.89326,0,0,0-.38379.67822Z"/><path class="32963cd9-7fff-4264-9ef9-0228acef3b16" d="M777.07617,144.748a.81354.81354,0,0,1,.37793.24609.84733.84733,0,0,1,.14941.55762,1.90606,1.90606,0,0,1-.22754.84033.715.715,0,0,1-.66016.45605.93943.93943,0,0,1-.41406-.09619,1.20243,1.20243,0,0,0-.52148-.09619.94563.94563,0,0,0-.60645.228.6879.6879,0,0,0-.28223.55225v2.52a3.56689,3.56689,0,0,1-.01758.41406.97015.97015,0,0,1-.11426.31787q-.18018.312-.93555.312a1.32074,1.32074,0,0,1-.82812-.2041.71764.71764,0,0,1-.21582-.51611v-4.55957a3.56689,3.56689,0,0,1,.01758-.41406A.98458.98458,0,0,1,772.89941,145q.16846-.32373.93652-.32422c.47949,0,.78027.09229.89941.27637a.68465.68465,0,0,1,.13281.396,1.97251,1.97251,0,0,1,.17383-.2041,2.22165,2.22165,0,0,1,.48535-.32422,1.40749,1.40749,0,0,1,.6543-.20361,3.15683,3.15683,0,0,1,.47461.02979A2.95265,2.95265,0,0,1,777.07617,144.748Z"/><path d="M781.2998,142.75586q0-.81592.34766-.96a1.60178,1.60178,0,0,1,.94824,0,.436.436,0,0,1,.252.252,2.00131,2.00131,0,0,1,.0957.72021V152.752q0,.81592-.34766.96a1.59144,1.59144,0,0,1-.94824,0,.43326.43326,0,0,1-.252-.252,2.08494,2.08494,0,0,1-.0957-.73242Z"/><path class="32963cd9-7fff-4264-9ef9-0228acef3b16" d="M795.02734,144.72412q.76758.33618.76758.82764a1.95174,1.95174,0,0,1-.19238.6543q-.19189.44971-.32324.78613L793.959,150.208a1.24145,1.24145,0,0,1-.59961.74414,1.087,1.087,0,0,1-.45605.084.839.839,0,0,1-.53418-.21,1.07677,1.07677,0,0,1-.3418-.42627l-.09668-.2041q-.09521-.2395-.708-1.87158-.12012.28784-.35352.94189-.23437.65405-.2998.81592c-.04395.10791-.07227.18018-.084.21582a1.478,1.478,0,0,1-.10254.19824,1.25806,1.25806,0,0,1-.19141.252.90936.90936,0,0,1-.66016.28809.94366.94366,0,0,1-.624-.21,1.0916,1.0916,0,0,1-.33594-.42627l-1.8125-4.416a2.00575,2.00575,0,0,1-.12012-.46777q0-.47974.68457-.75635a1.7661,1.7661,0,0,1,.624-.15576.68333.68333,0,0,1,.59961.30615,1.05144,1.05144,0,0,1,.0957.21q.20508.47974.85254,2.25586l.708-1.94385a.93364.93364,0,0,1,.26367-.41992.9712.9712,0,0,1,1.32617-.15625,1.15646,1.15646,0,0,1,.35449.38428l.0957.20361q.59912,1.68018.708,1.91992l.73145-1.9917q.28857-.76758.86426-.76807A1.11729,1.11729,0,0,1,795.02734,144.72412Z"/><path class="32963cd9-7fff-4264-9ef9-0228acef3b16" d="M802.31152,147.082a1.456,1.456,0,0,1-.36621,1.0918,1.13968,1.13968,0,0,1-.80957.354H798.291a.6587.6587,0,0,0,.39648.564,1.57185,1.57185,0,0,0,.792.228,3.29606,3.29606,0,0,0,1.0918-.144l.13184-.04785a1.21507,1.21507,0,0,1,.48047-.13184q.38379,0,.66016.54a1.328,1.328,0,0,1,.15527.55176q0,1.0686-2.55566,1.06836a3.864,3.864,0,0,1-1.57812-.30615A2.6819,2.6819,0,0,1,796.791,150.04a3.45087,3.45087,0,0,1-.75586-2.17187,3.13657,3.13657,0,0,1,.97852-2.418,3.454,3.454,0,0,1,2.44141-.90625,2.72758,2.72758,0,0,1,2.44824,1.17627A2.44258,2.44258,0,0,1,802.31152,147.082Zm-2.53223.354q.45557,0,.45605-.38428a.54213.54213,0,0,0-.21-.44385.93975.93975,0,0,0-.59961-.168,1.21232,1.21232,0,0,0-.77441.31787.89326.89326,0,0,0-.38379.67822Z"/><path class="32963cd9-7fff-4264-9ef9-0228acef3b16" d="M806.55957,144.688a2.66309,2.66309,0,0,1,1.96191.94824,3.16,3.16,0,0,1,.00586,4.39795,2.60912,2.60912,0,0,1-1.9082.94189,1.69954,1.69954,0,0,1-1.45215-.57617q-.09521.58813-1.03125.58789-.75732,0-.9248-.32373a1.11381,1.11381,0,0,1-.10156-.31787,3.57269,3.57269,0,0,1-.01758-.41406v-7.16406a3.57269,3.57269,0,0,1,.01758-.41406.98458.98458,0,0,1,.10156-.30615q.16846-.32373.93652-.32373.75586,0,.91211.32373a.96375.96375,0,0,1,.11328.31836,3.31182,3.31182,0,0,1,.01855.41357v2.49609A1.66463,1.66463,0,0,1,806.55957,144.688Zm-1.0498,3.876a.953.953,0,0,0,.7373.32422,1.08874,1.08874,0,0,0,1.06836-1.04395,1.07774,1.07774,0,0,0-.28809-.72607.96853.96853,0,0,0-.76758-.33008.94432.94432,0,0,0-.7627.33594,1.11187,1.11187,0,0,0-.28223.72607A1.03948,1.03948,0,0,0,805.50977,148.564Z"/><path d="M813.73438,149.332h-2.85547q-.67236,0-.80371-.4082a2.10344,2.10344,0,0,1-.06055-.55176,1.66541,1.66541,0,0,1,.07227-.54.49894.49894,0,0,1,.22754-.28809,1.30208,1.30208,0,0,1,.57617-.10791h2.85645q.6709,0,.792.396a1.78025,1.78025,0,0,1,.07227.55176,1.86756,1.86756,0,0,1-.06641.54639.49407.49407,0,0,1-.21.29395A1.369,1.369,0,0,1,813.73438,149.332Z"/><path class="32963cd9-7fff-4264-9ef9-0228acef3b16" d="M819.63281,142.042a.51207.51207,0,0,1,.31836-.24609,2.59369,2.59369,0,0,1,1.21191,0,.50679.50679,0,0,1,.31836.252,1.03065,1.03065,0,0,1,.10742.31836,3.31181,3.31181,0,0,1,.01855.41357v7.16406a3.31548,3.31548,0,0,1-.01855.41406.85255.85255,0,0,1-.11328.30615q-.18018.32373-1.01465.32373-.8335,0-.92969-.58789a1.76618,1.76618,0,0,1-1.4043.57617,2.662,2.662,0,0,1-1.96777-.94189,3.16,3.16,0,0,1,.00586-4.39795,2.66151,2.66151,0,0,1,1.96191-.94824,1.68549,1.68549,0,0,1,1.37988.6001v-2.52a3.32078,3.32078,0,0,1,.01855-.41406A.97276.97276,0,0,1,819.63281,142.042Zm-1.94922,6.522a1.00992,1.00992,0,0,0,.75586.32422.953.953,0,0,0,.7373-.32422,1.03834,1.03834,0,0,0,.29395-.71387,1.11068,1.11068,0,0,0-.28125-.72607.94432.94432,0,0,0-.7627-.33594.96853.96853,0,0,0-.76758.33008,1.07774,1.07774,0,0,0-.28809.72607A1.012,1.012,0,0,0,817.68359,148.564Z"/><path class="32963cd9-7fff-4264-9ef9-0228acef3b16" d="M828.66309,147.082a1.456,1.456,0,0,1-.36621,1.0918,1.13968,1.13968,0,0,1-.80957.354h-2.84473a.6587.6587,0,0,0,.39648.564,1.57185,1.57185,0,0,0,.792.228,3.29606,3.29606,0,0,0,1.0918-.144l.13184-.04785a1.21507,1.21507,0,0,1,.48047-.13184q.38379,0,.66016.54a1.328,1.328,0,0,1,.15527.55176q0,1.0686-2.55566,1.06836a3.864,3.864,0,0,1-1.57812-.30615,2.6819,2.6819,0,0,1-1.07422-.81006,3.45087,3.45087,0,0,1-.75586-2.17187,3.13657,3.13657,0,0,1,.97852-2.418,3.454,3.454,0,0,1,2.44141-.90625,2.72758,2.72758,0,0,1,2.44824,1.17627A2.44258,2.44258,0,0,1,828.66309,147.082Zm-2.53223.354q.45557,0,.45605-.38428a.54213.54213,0,0,0-.21-.44385.93975.93975,0,0,0-.59961-.168,1.21232,1.21232,0,0,0-.77441.31787.89326.89326,0,0,0-.38379.67822Z"/><path class="32963cd9-7fff-4264-9ef9-0228acef3b16" d="M829.49121,150.436a.49964.49964,0,0,1-.22852-.45605,1.9743,1.9743,0,0,1,.45605-.94775.46937.46937,0,0,1,.42578-.2041,1.75811,1.75811,0,0,1,.79883.29395,1.84455,1.84455,0,0,0,.91113.29395q.73242,0,.73242-.28809c0-.15186-.26855-.26416-.80371-.33594a3.92233,3.92233,0,0,1-1.5-.564,1.59726,1.59726,0,0,1-.57617-.67822,2.44964,2.44964,0,0,1-.22852-1.09766q0-1.89624,2.60449-1.896a4.22913,4.22913,0,0,1,1.752.40771q.42041.19263.41992.48a1.415,1.415,0,0,1-.26367.708q-.26514.42041-.54.41992a1.61224,1.61224,0,0,1-.53418-.17969,1.9913,1.9913,0,0,0-.8457-.18018c-.47266,0-.708.08838-.708.26416q0,.35962.81543.46777a4.47806,4.47806,0,0,1,1.53613.45605,1.36,1.36,0,0,1,.582.582,2.08384,2.08384,0,0,1,.23438,1.03809,2.22471,2.22471,0,0,1-.23437,1.062,1.51869,1.51869,0,0,1-.6543.65381,4.404,4.404,0,0,1-1.92578.37256A4.11609,4.11609,0,0,1,829.49121,150.436Z"/><path class="32963cd9-7fff-4264-9ef9-0228acef3b16" d="M837.28516,143.50586a.50883.50883,0,0,1-.31836.24609,2.57664,2.57664,0,0,1-1.21191,0,.49924.49924,0,0,1-.31738-.252,1.012,1.012,0,0,1-.1084-.31787,4.8855,4.8855,0,0,1,0-.82812.98458.98458,0,0,1,.10156-.30615q.16846-.32373.93652-.32373.75586,0,.91211.32373a.96375.96375,0,0,1,.11328.31836,4.62389,4.62389,0,0,1,0,.82764A.965.965,0,0,1,837.28516,143.50586Zm-1.97363,2.22607a3.57269,3.57269,0,0,1,.01758-.41406A1.1138,1.1138,0,0,1,835.43066,145q.16846-.312.93652-.312a1.266,1.266,0,0,1,.81543.2041.6621.6621,0,0,1,.2168.51611q.01172.12012.01172.34766v4.2002a3.31548,3.31548,0,0,1-.01855.41406.96538.96538,0,0,1-.11328.31787q-.15674.312-.92383.312-.75732,0-.9248-.32422a1.1127,1.1127,0,0,1-.10156-.312,3.53934,3.53934,0,0,1-.01758-.41992Z"/><path class="32963cd9-7fff-4264-9ef9-0228acef3b16" d="M842.37891,150.208a1.70814,1.70814,0,0,1-1.45215.6001,2.559,2.559,0,0,1-1.86621-.918,3.07162,3.07162,0,0,1,.00586-4.29,2.61305,2.61305,0,0,1,1.91992-.92432,1.80129,1.80129,0,0,1,.74414.15039,1.62844,1.62844,0,0,1,.46191.27588,1.5865,1.5865,0,0,1,.19824.23389.73062.73062,0,0,1,.24609-.50977,1.05826,1.05826,0,0,1,.67773-.17432,2.34218,2.34218,0,0,1,.68457.07227.50643.50643,0,0,1,.30566.24609,1.00249,1.00249,0,0,1,.1084.30566,3.41225,3.41225,0,0,1,.01758.4082v4.96777a2.82365,2.82365,0,0,1-.96,2.22607,3.182,3.182,0,0,1-2.16016.8457,3.63369,3.63369,0,0,1-1.74023-.44336q-.82764-.44385-.82812-.80469a1.13537,1.13537,0,0,1,.36035-.82715,3.08366,3.08366,0,0,1,.35449-.34863.47364.47364,0,0,1,.29395-.0957.56593.56593,0,0,1,.34766.14355,2.00306,2.00306,0,0,0,1.248.44434.91035.91035,0,0,0,.74414-.36035,1.34158,1.34158,0,0,0,.28809-.86377Zm-2.13672-2.4541a.979.979,0,0,0,.30664.70215,1.00345,1.00345,0,0,0,.74414.312.93747.93747,0,0,0,.72559-.31787,1.01529,1.01529,0,0,0,.28809-.69629,1.08251,1.08251,0,0,0-.27637-.708.919.919,0,0,0-.74316-.33008.96539.96539,0,0,0-.75684.32422A1.054,1.054,0,0,0,840.24219,147.75391Z"/><path class="32963cd9-7fff-4264-9ef9-0228acef3b16" d="M848.90625,144.67578a2.53792,2.53792,0,0,1,1.998.91846,3.2909,3.2909,0,0,1,.79785,2.23779v2.11182a3.56689,3.56689,0,0,1-.01758.41406,1.00691,1.00691,0,0,1-.10254.30615q-.16846.32373-.93555.32373-.85254,0-.98437-.44385a1.95516,1.95516,0,0,1-.07227-.61182v-2.1123a.96289.96289,0,0,0-1.03809-1.04395,1.05146,1.05146,0,0,0-.76758.28809,1.00925,1.00925,0,0,0-.29395.75586v2.124a3.31548,3.31548,0,0,1-.01855.41406.85255.85255,0,0,1-.11328.30615q-.15674.32373-.92383.32373-.75732,0-.9248-.32373a1.11381,1.11381,0,0,1-.10156-.31787,3.57271,3.57271,0,0,1-.01758-.41406v-4.248a3.42541,3.42541,0,0,1,.01758-.40186.83817.83817,0,0,1,.11426-.30615q.167-.29956.92383-.30029c.4873,0,.78809.09229.89941.27637a.95183.95183,0,0,1,.12012.4917,1.24091,1.24091,0,0,1,.2168-.23975,2.0894,2.0894,0,0,1,.32324-.252A1.57363,1.57363,0,0,1,848.90625,144.67578Z"/><path class="32963cd9-7fff-4264-9ef9-0228acef3b16" d="M858.75879,147.082a1.456,1.456,0,0,1-.36621,1.0918,1.13968,1.13968,0,0,1-.80957.354h-2.84473a.6587.6587,0,0,0,.39648.564,1.57185,1.57185,0,0,0,.792.228,3.29606,3.29606,0,0,0,1.0918-.144l.13184-.04785a1.21507,1.21507,0,0,1,.48047-.13184q.38379,0,.66016.54a1.328,1.328,0,0,1,.15527.55176q0,1.0686-2.55566,1.06836a3.864,3.864,0,0,1-1.57812-.30615,2.6819,2.6819,0,0,1-1.07422-.81006,3.45087,3.45087,0,0,1-.75586-2.17187,3.13657,3.13657,0,0,1,.97852-2.418,3.454,3.454,0,0,1,2.44141-.90625,2.72758,2.72758,0,0,1,2.44824,1.17627A2.44258,2.44258,0,0,1,858.75879,147.082Zm-2.53223.354q.45557,0,.45605-.38428a.54213.54213,0,0,0-.21-.44385.93975.93975,0,0,0-.59961-.168,1.21232,1.21232,0,0,0-.77441.31787.89326.89326,0,0,0-.38379.67822Z"/><path class="32963cd9-7fff-4264-9ef9-0228acef3b16" d="M863.835,144.748a.81354.81354,0,0,1,.37793.24609.84733.84733,0,0,1,.14941.55762,1.90606,1.90606,0,0,1-.22754.84033.715.715,0,0,1-.66016.45605.93943.93943,0,0,1-.41406-.09619,1.20243,1.20243,0,0,0-.52148-.09619.94563.94563,0,0,0-.60645.228.6879.6879,0,0,0-.28223.55225v2.52a3.56692,3.56692,0,0,1-.01758.41406.97015.97015,0,0,1-.11426.31787q-.18018.312-.93555.312a1.32074,1.32074,0,0,1-.82812-.2041.71764.71764,0,0,1-.21582-.51611v-4.55957a3.56692,3.56692,0,0,1,.01758-.41406A.98458.98458,0,0,1,859.6582,145q.16846-.32373.93652-.32422c.47949,0,.78027.09229.89941.27637a.68465.68465,0,0,1,.13281.396,1.97253,1.97253,0,0,1,.17383-.2041,2.22165,2.22165,0,0,1,.48535-.32422,1.40749,1.40749,0,0,1,.6543-.20361,3.15683,3.15683,0,0,1,.47461.02979A2.95265,2.95265,0,0,1,863.835,144.748Z"/><path d="M868.05859,142.75586q0-.81592.34766-.96a1.60178,1.60178,0,0,1,.94824,0,.436.436,0,0,1,.252.252,2.00131,2.00131,0,0,1,.0957.72021V152.752q0,.81592-.34766.96a1.59144,1.59144,0,0,1-.94824,0,.43326.43326,0,0,1-.252-.252,2.08494,2.08494,0,0,1-.0957-.73242Z"/><path class="32963cd9-7fff-4264-9ef9-0228acef3b16" d="M878.94727,142.042a.51207.51207,0,0,1,.31836-.24609,2.59369,2.59369,0,0,1,1.21191,0,.50679.50679,0,0,1,.31836.252,1.03064,1.03064,0,0,1,.10742.31836,3.31181,3.31181,0,0,1,.01855.41357v7.16406a3.31548,3.31548,0,0,1-.01855.41406.85255.85255,0,0,1-.11328.30615q-.18018.32373-1.01465.32373-.8335,0-.92969-.58789a1.76618,1.76618,0,0,1-1.4043.57617,2.662,2.662,0,0,1-1.96777-.94189,3.16,3.16,0,0,1,.00586-4.39795,2.66151,2.66151,0,0,1,1.96191-.94824,1.68549,1.68549,0,0,1,1.37988.6001v-2.52a3.32076,3.32076,0,0,1,.01855-.41406A.97276.97276,0,0,1,878.94727,142.042Zm-1.94922,6.522a1.00992,1.00992,0,0,0,.75586.32422.953.953,0,0,0,.7373-.32422,1.03834,1.03834,0,0,0,.29395-.71387,1.11068,1.11068,0,0,0-.28125-.72607.94432.94432,0,0,0-.7627-.33594.96853.96853,0,0,0-.76758.33008,1.07774,1.07774,0,0,0-.28809.72607A1.012,1.012,0,0,0,876.998,148.564Z"/><path class="32963cd9-7fff-4264-9ef9-0228acef3b16" d="M887.97754,147.082a1.456,1.456,0,0,1-.36621,1.0918,1.13968,1.13968,0,0,1-.80957.354H883.957a.6587.6587,0,0,0,.39648.564,1.57185,1.57185,0,0,0,.792.228,3.29606,3.29606,0,0,0,1.0918-.144l.13184-.04785a1.21507,1.21507,0,0,1,.48047-.13184q.38379,0,.66016.54a1.328,1.328,0,0,1,.15527.55176q0,1.0686-2.55566,1.06836a3.864,3.864,0,0,1-1.57812-.30615A2.6819,2.6819,0,0,1,882.457,150.04a3.45087,3.45087,0,0,1-.75586-2.17187,3.13657,3.13657,0,0,1,.97852-2.418,3.454,3.454,0,0,1,2.44141-.90625,2.72758,2.72758,0,0,1,2.44824,1.17627A2.44258,2.44258,0,0,1,887.97754,147.082Zm-2.53223.354q.45557,0,.45605-.38428a.54213.54213,0,0,0-.21-.44385.93975.93975,0,0,0-.59961-.168,1.21232,1.21232,0,0,0-.77441.31787.89326.89326,0,0,0-.38379.67822Z"/><path class="32963cd9-7fff-4264-9ef9-0228acef3b16" d="M888.80566,150.436a.49964.49964,0,0,1-.22852-.45605,1.9743,1.9743,0,0,1,.45605-.94775.46937.46937,0,0,1,.42578-.2041,1.75811,1.75811,0,0,1,.79883.29395,1.84455,1.84455,0,0,0,.91113.29395q.73242,0,.73242-.28809c0-.15186-.26855-.26416-.80371-.33594a3.92233,3.92233,0,0,1-1.5-.564,1.59726,1.59726,0,0,1-.57617-.67822,2.44964,2.44964,0,0,1-.22852-1.09766q0-1.89624,2.60449-1.896a4.22913,4.22913,0,0,1,1.752.40771q.42041.19263.41992.48a1.415,1.415,0,0,1-.26367.708q-.26514.42041-.54.41992a1.61224,1.61224,0,0,1-.53418-.17969,1.9913,1.9913,0,0,0-.8457-.18018c-.47266,0-.708.08838-.708.26416q0,.35962.81543.46777a4.47806,4.47806,0,0,1,1.53613.45605,1.35994,1.35994,0,0,1,.582.582,2.08384,2.08384,0,0,1,.23438,1.03809,2.22471,2.22471,0,0,1-.23437,1.062,1.51869,1.51869,0,0,1-.6543.65381,4.404,4.404,0,0,1-1.92578.37256A4.11609,4.11609,0,0,1,888.80566,150.436Z"/><path class="32963cd9-7fff-4264-9ef9-0228acef3b16" d="M896.59961,143.50586a.50883.50883,0,0,1-.31836.24609,2.57664,2.57664,0,0,1-1.21191,0,.49924.49924,0,0,1-.31738-.252,1.012,1.012,0,0,1-.1084-.31787,4.88553,4.88553,0,0,1,0-.82812.98458.98458,0,0,1,.10156-.30615q.16846-.32373.93652-.32373.75586,0,.91211.32373a.96374.96374,0,0,1,.11328.31836,4.62389,4.62389,0,0,1,0,.82764A.965.965,0,0,1,896.59961,143.50586Zm-1.97363,2.22607a3.57269,3.57269,0,0,1,.01758-.41406A1.1138,1.1138,0,0,1,894.74512,145q.16846-.312.93652-.312a1.266,1.266,0,0,1,.81543.2041.6621.6621,0,0,1,.2168.51611q.01172.12012.01172.34766v4.2002a3.31546,3.31546,0,0,1-.01855.41406.96538.96538,0,0,1-.11328.31787q-.15674.312-.92383.312-.75732,0-.9248-.32422a1.1127,1.1127,0,0,1-.10156-.312,3.53935,3.53935,0,0,1-.01758-.41992Z"/><path class="32963cd9-7fff-4264-9ef9-0228acef3b16" d="M901.69336,150.208a1.70814,1.70814,0,0,1-1.45215.6001,2.559,2.559,0,0,1-1.86621-.918,3.07162,3.07162,0,0,1,.00586-4.29,2.61305,2.61305,0,0,1,1.91992-.92432,1.80129,1.80129,0,0,1,.74414.15039,1.62843,1.62843,0,0,1,.46191.27588,1.5865,1.5865,0,0,1,.19824.23389.73062.73062,0,0,1,.24609-.50977,1.05826,1.05826,0,0,1,.67773-.17432,2.34218,2.34218,0,0,1,.68457.07227.50643.50643,0,0,1,.30566.24609,1.00249,1.00249,0,0,1,.1084.30566,3.41228,3.41228,0,0,1,.01758.4082v4.96777a2.82365,2.82365,0,0,1-.96,2.22607,3.182,3.182,0,0,1-2.16016.8457,3.63369,3.63369,0,0,1-1.74023-.44336q-.82764-.44385-.82812-.80469a1.13537,1.13537,0,0,1,.36035-.82715,3.08365,3.08365,0,0,1,.35449-.34863.47364.47364,0,0,1,.29395-.0957.56593.56593,0,0,1,.34766.14355,2.00306,2.00306,0,0,0,1.248.44434.91035.91035,0,0,0,.74414-.36035,1.34158,1.34158,0,0,0,.28809-.86377Zm-2.13672-2.4541a.979.979,0,0,0,.30664.70215,1.00345,1.00345,0,0,0,.74414.312.93747.93747,0,0,0,.72559-.31787,1.01529,1.01529,0,0,0,.28809-.69629,1.08251,1.08251,0,0,0-.27637-.708.919.919,0,0,0-.74316-.33008.96539.96539,0,0,0-.75684.32422A1.054,1.054,0,0,0,899.55664,147.75391Z"/><path class="32963cd9-7fff-4264-9ef9-0228acef3b16" d="M908.2207,144.67578a2.53792,2.53792,0,0,1,1.998.91846,3.2909,3.2909,0,0,1,.79785,2.23779v2.11182a3.56689,3.56689,0,0,1-.01758.41406,1.00691,1.00691,0,0,1-.10254.30615q-.16846.32373-.93555.32373-.85254,0-.98437-.44385a1.95516,1.95516,0,0,1-.07227-.61182v-2.1123a.96289.96289,0,0,0-1.03809-1.04395,1.05146,1.05146,0,0,0-.76758.28809,1.00925,1.00925,0,0,0-.29395.75586v2.124a3.31548,3.31548,0,0,1-.01855.41406.85255.85255,0,0,1-.11328.30615q-.15674.32373-.92383.32373-.75732,0-.9248-.32373a1.11381,1.11381,0,0,1-.10156-.31787,3.57271,3.57271,0,0,1-.01758-.41406v-4.248a3.42541,3.42541,0,0,1,.01758-.40186.83817.83817,0,0,1,.11426-.30615q.167-.29956.92383-.30029c.4873,0,.78809.09229.89941.27637a.95183.95183,0,0,1,.12012.4917,1.24091,1.24091,0,0,1,.2168-.23975,2.0894,2.0894,0,0,1,.32324-.252A1.57363,1.57363,0,0,1,908.2207,144.67578Z"/><path class="32963cd9-7fff-4264-9ef9-0228acef3b16" d="M918.07324,147.082a1.456,1.456,0,0,1-.36621,1.0918,1.13968,1.13968,0,0,1-.80957.354h-2.84473a.6587.6587,0,0,0,.39648.564,1.57185,1.57185,0,0,0,.792.228,3.29606,3.29606,0,0,0,1.0918-.144l.13184-.04785a1.21507,1.21507,0,0,1,.48047-.13184q.38379,0,.66016.54a1.328,1.328,0,0,1,.15527.55176q0,1.0686-2.55566,1.06836a3.864,3.864,0,0,1-1.57812-.30615,2.6819,2.6819,0,0,1-1.07422-.81006,3.45087,3.45087,0,0,1-.75586-2.17187,3.13657,3.13657,0,0,1,.97852-2.418,3.454,3.454,0,0,1,2.44141-.90625,2.72758,2.72758,0,0,1,2.44824,1.17627A2.44259,2.44259,0,0,1,918.07324,147.082Zm-2.53223.354q.45557,0,.45605-.38428a.54213.54213,0,0,0-.21-.44385.93975.93975,0,0,0-.59961-.168,1.21232,1.21232,0,0,0-.77441.31787.89326.89326,0,0,0-.38379.67822Z"/><path class="32963cd9-7fff-4264-9ef9-0228acef3b16" d="M923.14941,144.748a.81355.81355,0,0,1,.37793.24609.84733.84733,0,0,1,.14941.55762,1.90606,1.90606,0,0,1-.22754.84033.715.715,0,0,1-.66016.45605.93943.93943,0,0,1-.41406-.09619,1.20243,1.20243,0,0,0-.52148-.09619.94563.94563,0,0,0-.60645.228.6879.6879,0,0,0-.28223.55225v2.52a3.56689,3.56689,0,0,1-.01758.41406.97015.97015,0,0,1-.11426.31787q-.18018.312-.93555.312a1.32074,1.32074,0,0,1-.82812-.2041.71764.71764,0,0,1-.21582-.51611v-4.55957a3.56689,3.56689,0,0,1,.01758-.41406A.98458.98458,0,0,1,918.97266,145q.16846-.32373.93652-.32422c.47949,0,.78027.09229.89941.27637a.68465.68465,0,0,1,.13281.396,1.97252,1.97252,0,0,1,.17383-.2041,2.22165,2.22165,0,0,1,.48535-.32422,1.40749,1.40749,0,0,1,.6543-.20361,3.15683,3.15683,0,0,1,.47461.02979A2.95265,2.95265,0,0,1,923.14941,144.748Z"/></svg>