<?xml version="1.0" encoding="utf-8"?>
<!-- Generator: Adobe Illustrator 21.0.1, SVG Export Plug-In . SVG Version: 6.00 Build 0)  -->
<svg version="1.1" id="_x32_c67a632-e2c1-4528-958e-521151e0e44e"
	 xmlns="http://www.w3.org/2000/svg" xmlns:xlink="http://www.w3.org/1999/xlink" x="0px" y="0px" viewBox="0 0 1024 182.1"
	 style="enable-background:new 0 0 1024 182.1;" xml:space="preserve">
<style type="text/css">
	.st0{fill:none;}
	.st1{fill:#FFFFFF;}
	.st2{fill:none;stroke:#000000;stroke-width:0.5;stroke-miterlimit:10;}
	.st3{fill:none;stroke:#000000;stroke-width:0.75;stroke-miterlimit:10;}
	.st4{fill:url(#SVGID_1_);stroke:#000000;stroke-width:0.6;stroke-miterlimit:10;}
	.st5{fill:none;stroke:#000000;stroke-width:0.4;stroke-miterlimit:10;}
	.st6{fill:#EFEFEF;stroke:#000000;stroke-width:0.4;stroke-miterlimit:10;}
	.st7{fill:#EFEFEF;stroke:#000000;stroke-width:0.6301;}
	.st8{fill:#EFEFEF;stroke:#000000;stroke-width:0.3359;}
</style>
<pattern  y="182.1" width="122.9" height="13.4" patternUnits="userSpaceOnUse" id="New_Pattern_Swatch_1" viewBox="0 -13.4 122.9 13.4" style="overflow:visible;">
	<g>
		<rect y="-13.4" class="st0" width="122.9" height="13.4"/>
		<rect y="-13.4" class="st1" width="122.9" height="13.4"/>
		<g>
			<line class="st2" x1="0" y1="-0.2" x2="122.9" y2="-0.2"/>
			<line class="st2" x1="0" y1="-1.6" x2="122.9" y2="-1.6"/>
			<path class="st2" d="M118.5-2.7"/>
		</g>
		<g>
			<line class="st2" x1="0" y1="-2.9" x2="122.9" y2="-2.9"/>
			<line class="st2" x1="0" y1="-4.3" x2="122.9" y2="-4.3"/>
			<path class="st2" d="M118.5-5.4"/>
		</g>
		<g>
			<line class="st2" x1="0" y1="-5.6" x2="122.9" y2="-5.6"/>
			<line class="st2" x1="0" y1="-7" x2="122.9" y2="-7"/>
			<path class="st2" d="M118.5-8"/>
		</g>
		<g>
			<line class="st2" x1="0" y1="-8.3" x2="122.9" y2="-8.3"/>
			<line class="st2" x1="0" y1="-9.6" x2="122.9" y2="-9.6"/>
			<path class="st2" d="M118.5-10.7"/>
		</g>
		<g>
			<line class="st2" x1="0" y1="-11" x2="122.9" y2="-11"/>
			<line class="st2" x1="0" y1="-12.3" x2="122.9" y2="-12.3"/>
		</g>
	</g>
</pattern>
<title>RyanReynolds-01b</title>
<rect x="-1.8" y="161" width="963.4" height="3.2"/>
<rect x="-1.5" y="156.8" class="st3" width="963.4" height="2.5"/>
<rect x="-1.5" y="25" width="931.6" height="1"/>
<g>
	
		<pattern  id="SVGID_1_" xlink:href="#New_Pattern_Swatch_1" patternTransform="matrix(0.9623 -0.272 0.3571 1.2632 2716.8386 91.3476)">
	</pattern>
	<path class="st4" d="M936.4,8.2c0.9,0.1,1.7,0.3,2.6,0.3c2.3,0.1,4.3,0.9,6.3,1.9c0.5,0.3,1.2,0.4,1.8,0.4c1.7,0.1,3.3,0,5,0
		c1,0,1.9,0.1,2.6,1c0.1,0.2,0.4,0.3,0.6,0.3c1.4,0.3,2.9,0.5,4.3,0.7c0.2,0,0.5,0.2,0.7,0.3c3,2,6.1,3.9,8.7,6.5
		c0.1,0.1,0.3,0.3,0.4,0.2c0.8-0.3,1.2,0.3,1.6,0.7c1.4,1.2,2.7,2.3,4.1,3.5c1.4,1.2,2.1,2.9,3.1,4.4c0.9,1.3,1.4,2.8,1.5,4.4
		c0.1,0.8,0.6,1.5,0.9,2.3c0.8,1.8,1.6,3.7,2.5,5.4c0.8,1.6,0.9,3.2,0.9,4.9c0,0.3,0.2,0.6,0.3,0.9c0.5,0.9,1.1,1.7,1.6,2.6
		c1.3,2.5,2,5.2,1.9,8c0,2,0.2,3.8,1.4,5.6c0.7-0.7,1.5-1.3,2.3-2.1c0.1,0.7-0.5,1.4-1.1,1.5c-0.4,0.7-0.8,1.3-1.3,2.2
		c0.1,0.8-1.2,0.8-1.5,1.7c-0.5-1-1.3-0.6-2-0.8c-0.2-0.1-0.4-0.3-0.8-0.6c-0.1,0.5-0.2,0.8-0.2,1.2c0,2.4,0,4.8,0,7.2
		c-0.4,0-0.8,0-1.1,0c0-0.1,0.1-0.1,0.1-0.2c-0.2-0.2-0.5-0.3-0.7-0.5c-0.2-0.2-0.5-0.4-0.6-0.6c-0.2-0.5-0.9-0.7-0.8-1.4
		c0.1-0.4,0.2-1-0.5-1.2c-0.2-0.1-0.1-0.8-0.1-1.2c0-0.4,0.1-0.9-0.6-0.7c0-0.8,0.1-1.6,0-2.3c0-0.4-0.5-0.8-0.5-1.2
		c0-0.3,0.4-0.6,0.5-1c0.1-0.5,0-1.1-0.1-1.7c-0.1,0.1-0.1,0.2-0.2,0.3c-0.1-0.1-0.2-0.2-0.3-0.3c-0.1-0.5-0.1-1.1-0.1-1.6
		c-0.3-0.1-0.5-0.2-0.9-0.3c0.6-0.1,1-0.2,1.4-0.3c0.3-2.1,0.2-3-1.8-3.3c-0.1-0.3,0.2-1-0.7-0.8c0-0.6,0-1.1,0-1.6
		c0-0.2,0-0.4,0.1-0.4c0.8-0.7,0.4-1.7,0.5-2.5c0-0.7-1-1.3-1.8-1c0.2-0.4,0.5-0.7,0.5-1.1c0-0.4,0.3-1-0.6-1.1
		c0.3-0.1,0.4-0.2,0.5-0.2c0,0,0-0.1,0-0.1c-0.3,0-0.7-0.1-0.9-0.1c-0.3-0.3-0.5-0.6-0.8-0.8c-0.1,0-0.1,0.1-0.2,0.1
		c0-0.3,0-0.6-0.1-0.9c0-0.5,0-0.9-0.4-1.4c-0.3-0.4-0.3-1.1-0.2-1.6c0.1-0.9-0.6-1.3-0.8-2c-0.1-0.3-0.4-0.5-0.4-0.8
		c0-0.9-0.5-1.3-1.1-1.8c-0.3-0.2-0.5-0.5-0.9-0.7c0-0.3,0-0.5,0-0.8c-0.1-0.2-0.3-0.4-0.3-0.6c-0.2-0.4-0.3-0.7-0.4-1
		c-0.6-0.3-1.1-0.6-1.7-0.9c0-0.1,0-0.3,0-0.4c-0.6-0.5-1.1-0.9-1.6-1.3c0,0,0.1-0.1,0.1-0.1c-0.4,0-0.7,0-1.1-0.1
		c-0.2-0.1-0.4-0.3-0.6-0.4c-0.1-0.1-0.3-0.2-0.4-0.2c-0.5,0-1,0-1.5,0c0-0.1,0-0.2,0.1-0.2c-0.3-0.1-0.5-0.3-0.8-0.4
		c-0.6-0.1-1.2,0-1.7-0.1c-0.3,0-0.5-0.3-0.7-0.5c-1-0.1-2.1,0-2.6-1.2c-1.1-0.1-1.8-0.7-2.6-1.3c-0.7-0.3-1.6-0.4-2.1-0.8
		c-1.1-1-2.3-0.4-3.4-0.6c0,0-0.1,0-0.1,0c-0.4-0.1-0.8-0.2-1.2-0.3c-0.6-0.3-1.1-0.6-1.5,0.2c-0.1,0.1-0.4,0.1-0.5,0.1
		c-0.5,0-1.1-0.2-1.5,0.5c-0.2,0.2-0.8,0.2-1.2,0.2c-0.3,0.4-0.6,0.8-0.9,1.1c-0.5,0.8-1,1.6-1.6,2.4c-0.1,0.2-0.4,0.4-0.6,0.5
		c-0.3,0.1-0.7,0-0.9,0c-0.4,0.9-0.8,1.6-1.3,2.4c-0.1-0.2-0.2-0.3-0.3-0.6c-0.1,0.3-0.1,0.4-0.1,0.5c0,0.2,0,0.4-0.1,0.5
		c-0.6,0.5-0.7,1.1-0.7,1.8c0,0.1-0.2,0.2-0.2,0.1c-0.1,0-0.2-0.1-0.2-0.2c0-0.3,0-0.7-0.1-1c0,0.1-0.1,0.3-0.1,0.4
		c0.2,0.9-0.5,1.2-1,1.7c-0.2,0.1-0.2,0.4-0.3,0.7c-0.9,0.2-2.1-0.3-3.1,0.4c0.1,0,0.2,0,0.3,0.1c-1.9,0-2.6,1.6-3.8,2.7
		c-0.3,0-0.7,0.1-1,0.1c-0.1,0.3-0.3,0.7-0.4,1c-0.1-0.2-0.1-0.3-0.2-0.4c-0.1,0.1-0.1,0.1-0.1,0.2c0.2,0.8-0.7,1-0.9,1.6
		c-0.1,0.2-0.2,0.4-0.3,0.6c-0.2,0.3-0.4,0.6-0.5,0.9c-0.1,0-0.1-0.1-0.2-0.1c0,0.3-0.1,0.5-0.1,0.8c-0.1-0.1-0.1-0.2-0.2-0.3
		c-0.1,0-0.2,0.1-0.2,0.2c0,0.2,0,0.4,0,0.5c0,0.7-0.5,1.2-1.1,1.2c-0.5,0-0.7,0.2-0.7,0.7c0,0.4-0.1,0.8-0.2,1.2
		c0,0.1-0.2,0.2-0.3,0.3c0.2,0.5,0.5,1,0.8,1.6c-0.2,0.1-0.5,0.1-0.7,0.2c0,0,0,0.1,0,0.1c0.2,0,0.4,0.1,0.6,0.1
		c-0.3,0.1-0.7,0.2-1.1,0.4c0.3,0.6,0.6,1.2,0.8,1.8c0.1,0.1-0.1,0.4-0.2,0.6c-0.1,0.2-0.2,0.3-0.3,0.4c0.1,0.1,0.3,0.2,0.4,0.2
		c0.3,0.1,0.5,0,0.8,0.2c-0.2,0.1-0.4,0.1-0.6,0.2c0,0.1,0,0.1,0,0.2c0.7,0,1.3,0.1,2,0.1c0.1,0,0.2-0.1,0.3-0.1
		c0.2-0.9,0.8-0.5,1.3-0.5c0.5,0,0.9,0,1.3-0.1c0.4-0.9,1.1-1.3,2.1-1.4c-0.2-0.1-0.4-0.2-0.6-0.3c0.5,0,0.9,0,1.2-0.1
		c0.3-0.1,0.5-0.3,0.7-0.5c0.2-0.1,0.4-0.3,0.7-0.4c-0.1-0.1-0.2-0.2-0.4-0.3c0.8-0.5,2,0.4,2.7-0.9c0.1,0.6,0.2,1.1,0.3,1.6
		c0.1,0.4,0.2,0.7,0.4,1.1c0.1,0.1,0.2,0.3,0.2,0.4c0,0.9-0.1,1.8-0.2,2.7c-0.3-0.2-0.6-0.3-1-0.5c-0.1,0.8-0.2,1.4-0.2,2
		c-0.2,0-0.4,0-0.4-0.1c-0.3,0.3-0.5,0.5-0.7,0.7c-0.1,0.1-0.1,0.2-0.1,0.2c0,0.5-0.1,0.8-0.5,1.2c-0.3,0.2-0.2,0.8-0.4,1.1
		c-0.2,0.3,0,1-0.8,0.8c0,0-0.1,0.1-0.2,0.2c-0.2,0.1-0.5,0.2-0.6,0.1c-0.5-0.5-1.1-0.4-1.8-0.2c0.2,0.1,0.3,0.1,0.4,0.2
		c0,0.1-0.1,0.1-0.1,0.2c-0.3-0.1-0.5-0.3-0.8-0.4c-0.4-0.1-0.7-0.3-1.1,0.1c-0.7,0.6-1.2,1.7-2.4,1.6c0.2,0.1,0.3,0.2,0.3,0.2
		c-0.2,0.3-0.5,0.6-0.7,1c0,0,0.1,0.1,0.1,0.1c-0.2,0-0.3,0.1-0.5,0.1c-0.1,0-0.3,0-0.6,0c0.1,0.2,0.2,0.2,0.3,0.4
		c-0.7,0.4-1.4,0.8-2.1,1.2c-0.2,0-0.4,0-0.8-0.1c0.4,0.7,0.1,1.4-0.4,1.8c-0.3,0.2-0.3,0.7-0.4,1.2c1.1-0.1,0.7,0.7,0.9,1.1
		c0.3,0,0.6,0.1,1,0.2c0.1,0.4,0.1,0.8,0.2,1.1c0.5,0.3,0.9,0.6,1.3,0.8c0.8,0.2,0.6,0.9,0.7,1.4c0.3,0,0.5,0,0.8,0
		c-0.1,0-0.1-0.1-0.2-0.1c0.2-0.4,0.5-0.8,0.7-1.1c0.4-0.5,0.8-0.9,1.5-0.7c0.5,0.1,1,0.3,1.3,0.4c0.3,0.4,0.6,0.7,0.7,0.9
		c0.1,0.4,0.2,0.8,0.2,1.2c0,0.6,0.7,1.3,1.3,1.4c0.3,0.8,0.3,1.9,0.8,2.3c0.5,0.5,0.2,1.3,1,1.5c0.1,0,0.1,0.3,0.1,0.5
		c0,1.6,0,3.1,0.1,4.7c0,0.3,0.3,0.5,0.4,0.8c0.1,0.3,0.1,0.5,0.2,0.8c0.2,0.7-0.3,1.5,0.5,2c0.2,0.1,0.1,0.7,0.1,1
		c0.2,0.1,0.4,0.1,0.7,0.2c0,2.1,0,4.2,0,6.3c0,0.4-0.2,1,0.6,1.1c0,0,0.1,0.3,0.1,0.4c0,0.7,0,1.3,0,2c0,0.2-0.3,0.4-0.3,0.7
		c-0.2,0.7-0.3,1.4-0.4,2.2c-1.2,0.4-0.3,1.4-0.6,2.3c0.3-0.2,0.5-0.2,0.6-0.3c0,0,0,0.1,0.1,0.1c-0.2,0.2-0.3,0.4-0.5,0.6
		c0.2,0.1,0.4,0.1,0.6,0.2c-0.1,0-0.1,0.1-0.2,0.1c0.3,0.5,0.5,1,0.8,1.4c0.3,0.4,0.7,0.7,1.1,1.1c0.1,0,0.1-0.1,0.2-0.1
		c0,0.2,0,0.4,0,0.5c0.3,0.1,0.5,0.2,0.7,0.3c0.2,0.1,0.3,0.3,0.4,0.5c0.1,0.1,0.1,0.3,0.1,0.3c1,0.2,0.6,0.9,0.6,1.4
		c0.1,0.9,0,1.7,0.1,2.6c0,0.3,0.4,0.6,0.5,0.9c0.1,0.6,0.3,1.2,0.7,1.6c0.5,0.4,1,0.8,1.5,1.3c0,0-0.1,0.1-0.3,0.3
		c1.3,0,2.6,0,3.9,0c0,0.8,0,1.4,0,2.1c0,0.1-0.3,0.3-0.5,0.6c0-0.6,0-1,0-1.4c-0.9-0.1-1.5,0.2-1.9,0.9c-0.1,0.2-0.4,0.2-0.7,0.4
		c0,0.3,0,0.7,0,1.1c0.6,0.1,1.1,0.3,1.6,0.4c0.1,0,0.2,0.1,0.3,0.1c0.3,0.1,0.7,0.2,0.7,0.1c0.4-0.6,1-0.4,1.6-0.5
		c0.4,0,0.8,0.2,1.1-0.4c0.1-0.3,1-0.2,1.4-0.4c0.5-0.4,0.9-0.8,1.4-1.2c0,0,0.1,0,0.1,0c0.3-1,1.2-0.4,1.8-0.6
		c0.3-0.1,0.8,0.1,0.8-0.4c0-0.1,0.3-0.1,0.5-0.2c0.3-0.1,0.5-0.3,0.8-0.4c0.2-0.1,0.5,0,0.7,0c0.1,0,0.2,0.2,0.4,0.4
		c0.1-0.2,0.2-0.3,0.4-0.6c0.2,0,0.6,0,1-0.1c0-0.4,0-0.8,0.1-1c0.3-0.4,0.5-0.7,0.8-0.8c0.3-0.1,0.6,0.2,1.1,0.3c0-1.1,0-2.3,0-3.5
		c1.6-0.4,3.2,0.4,4.5-0.9c0,0,0-0.3,0.1-0.5c0.4,0,0.7,0,1,0c0.3-0.3,0.4-0.5,0.6-0.7c0.1,0,0.1,0.1,0.2,0.1
		c-0.2,0.3,0.4,0.9-0.5,1c0,0-0.1,0.2-0.1,0.3c0.2,0.8-0.4,1.2-0.7,1.7c-0.1,0.3-0.6,0.5-1,0.7c0,0-0.1,0-0.1,0.1
		c-0.2,0.7-0.9,1-1.3,1.4c-0.5,0.5-1.2,0.9-1.5,1.7c-0.2,0.4-0.9,1.1-1.8,0.8c-0.3-0.1-0.7-0.2-0.8,0.4c0,0.1-0.3,0.1-0.4,0.1
		c-0.5,0-0.9,0-1.4,0c0,0.1,0,0.2,0.1,0.2c-0.3,0.1-0.6,0.3-0.9,0.4c-0.4,0.2-1-0.3-1.2,0.5c0,0.1-0.7,0.1-1.2,0.2
		c0,0.2-0.1,0.4-0.1,0.6c-0.3,0.1-0.7,0.1-1,0.2c-0.2,0.8-0.7,1.3-1.3,1.8c-0.3,0.2-0.2,0.8-0.3,1.2c-0.4,0.2-0.8,0.5-1.3,0.9
		c0.1-0.3,0.2-0.4,0.2-0.4c-0.2-0.1-0.3-0.2-0.7-0.4c0.1,1.2-0.1,2.2-1.4,2.6c0,0.2,0,0.4,0,0.6c-0.3,0.1-0.6,0.1-0.9,0.2
		c0.1,0.2,0.1,0.3,0.2,0.4c-0.7,0.3-1.5,0.6-2.3,1c0,0.4,0,0.8,0,1.3c0,0.4,0.7,1.1,1.1,1.1c0.5,0,0.7,0.2,0.7,0.7
		c0,0.5,0,0.9-0.1,1.4c-0.1,0.2-0.4,0.5-0.6,0.6c-0.3,0.1-0.7,0-1.1,0c0,0.1,0,0.2,0,0.3c0.4,0,0.8,0,1.2,0c0,0,0,0.1,0,0.1
		c-0.4,0.2-0.8,0.4-1.2,0.6c0,0.1,0,0.1,0,0.2c0.7,0,1.4,0.1,2,0.1c-0.1-0.5-0.2-1.1-0.1-1.2c0.6-0.5,1-0.4,1.6,0.2
		c0.3-1.4,1.3-0.9,2.2-1c1-0.1,1.6,0.4,2.1,1.3c0.2,0,0.5-0.1,0.6-0.1c-0.1,1.3-0.1,2.5-0.2,3.8c-0.1,0-0.1-0.1-0.2-0.1
		c-0.3,0.5-0.7,0.9-0.9,1.4c-0.2,0.7-0.2,1.4-0.2,2.1c-0.1,1.4-0.5,1.9-1.7,1.9c-0.3,0.3-0.5,0.4-0.6,0.6c-0.1,0.1-0.1,0.3-0.2,0.4
		c-0.1,0.5,1,1.6,1.6,1.7c0,0,0.1-0.1,0.1-0.3c0,0.4,0,0.7,0.1,1c0,0.2,0.1,0.4,0.2,0.4c0.6,0.1,0.5,0.5,0.6,0.8
		c0.1,0.3,0.4,0.7,0.6,1c-0.5,0.3-1.1-0.2-1.3,0.6c0.5,0.2,1.3-0.2,1.4,0.6c0,0,0.4,0,0.4,0c0.1-0.9,0.8-0.4,1.2-0.6
		c0.2,0.4,0.3,1.2,0.9,0.3c0.1-0.2,0.7-0.2,1.1-0.3c0-0.3,0.1-0.7,0.1-1c0.6-0.2,1.1-0.1,1.2,0.7c0,0.1,0.2,0.2,0.3,0.4
		c0.1-0.1,0.2-0.2,0.3-0.3c0.1-0.1,0.3-0.3,0.4-0.3c0.9-0.1,1.8-0.2,2.7-0.3c0.2,0.1,0.5,0.2,0.8,0.3c0.2,0.1,0.4,0.3,0.6,0.4
		c0.6,0.1,1.3,0.1,1.9,0c0.2,0,0.4-0.3,0.6-0.3c0.5-0.1,1.1,0,1.7-0.1c0.5-0.2,1-0.5,1.4-0.8c-0.1,0.3-0.2,0.8-0.4,1.3
		c1,0.3,1.4-0.6,2.1-0.9c0.1,0.1,0.2,0.2,0.2,0.3c0.1,0.3,0.3,0.6-0.2,0.8c-0.3,0.1-0.7,0.4-0.8,0.7c-0.1,0.6-0.5,0.4-0.9,0.5
		c-0.4,0.1-0.8,0-1.2,0.6c-0.3,0.5-1.1,0.7-1.8,0.8c-0.4,0.4-0.8,0.8-1.1,1.3c-0.2,0.3-0.2,0.7-0.2,1c0,0.4-0.1,0.6-0.6,0.5
		c0,0.9,0,1.9,0,2.9c0.8,0.1,1.1,0.7,1.4,1.4c0.3,0.6,1.1,1,1,2c0.9,0.1,1.6,0.4,2,1.2c0,0.1,0.2,0.1,0.3,0.1c0.9,0,1.3,0.5,1.6,1.2
		c0.1,0.3,0.6,0.6,0.8,0.9c0.5,0.5,1.1,1,1.6,1.6c0.3,0.3,0.5,0.7,0.8,1c0.3,0.3,0.7,0.5,1,0.8c0.1,0.1,0.1,0.3,0.1,0.5
		c0,0.4-0.9,1.2-1.3,1.2c-0.5,0-1.1,0-1.6,0c0,0.3-0.1,0.5-0.1,0.6c-1.1,0.5-2.2,0.1-3.2-0.2c-0.4-0.1-0.7-0.3-1-0.6
		c-1.3-1.5-2.9-2.1-4.7-2.3c-0.3,0-0.5-0.2-0.7-0.4c-1.1-0.9-2.1-1.9-3.2-2.7c-1.9-1.3-2.7-3.3-3.2-5.4c-0.5-1.9-1.5-3.5-2.3-5.2
		c-0.1-0.2-0.4-0.3-0.6-0.3c-1.5-0.2-2.9-0.4-4.4-0.6c-0.4-0.1-0.8-0.2-1-0.5c-2.5-2.5-5-5.1-7.6-7.5c-1.4-1.3-3.1-2.4-4.7-3.4
		c-1.6-1-3-2.3-4.3-3.8c-2.5-3.2-5.2-6.2-7.8-9.3c-0.2-0.3-0.4-0.6-0.6-0.9c-3.7-6.5-6.7-13.4-10-20.2c-0.5-1.1-0.5-2.4-0.8-3.7
		c-0.2-0.9-0.3-1.8-0.5-2.6c-0.8-3.1-0.7-6.2-0.9-9.4c-0.1-1.8-0.2-3.7-0.3-5.5c0-0.2-0.1-0.5-0.3-0.6c-2-1.5-3-3.5-3.1-6
		c0-1.3,0-2.5-0.2-3.7c-0.1-0.8-0.5-1.6-0.8-2.4c-0.9-2.6-2-5.2-2.8-7.9c-0.3-1.2-0.9-2.1-1.7-3c-0.3-0.3-0.4-0.8-0.5-1.2
		c-0.2-2.5-0.4-4.9-0.7-7.4c0-0.2-0.1-0.5-0.2-0.7c-0.7-0.9-0.8-1.9-0.7-3c0-0.5-0.1-1.1-0.1-1.7c0-0.6,0-1.1,0-1.7
		c0.1-1.1,0.3-2.2,0.3-3.3c0.1-3.2,1.1-6.2,2.5-9c0.1-0.2,0-0.4,0.1-0.5c0.4-1.1,0.6-2.4,1.2-3.3c1.7-2.3,3.3-4.9,5.7-6.7
		c0.6-0.4,1-1,1.6-1.4c2.9-1.9,5.8-3.8,8.7-5.7c0.9-0.6,1.9-1,2.8-1.5c1.2-0.7,2.1-1.8,3.7-1.9c1.4-0.1,2.8-0.5,3.7-1.7
		c0.1-0.1,0.2-0.1,0.3-0.1c1.2-0.5,2.4-1.1,3.5-1.6c0.2-0.1,0.3-0.1,0.5-0.2c0.9-0.3,1.9-0.5,2.8-0.8C933.8,8.2,935.1,8.2,936.4,8.2
		z M933.6,52.8c0-0.1,0-0.2,0-0.3c-0.6,0.1-1.1,0.1-1.5,0.2c0.2-0.3,0.5-0.6,0.6-0.9c0-0.1-0.5-0.4-0.8-0.6c-0.1,0.4,0.1,0.7,0,0.9
		c-0.1,0.2-0.3,0.4-0.6,0.8C932.2,52.8,932.9,52.8,933.6,52.8z"/>
	<path class="st5" d="M955.5,72.6 M956.9,70.3 M941.3,78.1c0.2,0,0.2-0.5,0.2-0.8c0-0.3,0-0.7,0-1c-0.5,0-0.9,0-1.3,0
		c0-0.5,0-0.9,0-1.3c0.2,0,0.4,0,0.7-0.1c0-0.9,0.4-1.3,1.2-1.2c0.2-0.6-0.2-1.2,0.6-1.5c0.1,0,0.1-0.6,0.1-0.9c0,0,0.1,0.1,0.1,0.1
		c0.4-0.6,0.9-1.2,1.3-1.8c0.1,0,0.3,0.1,0.4,0c0.3-0.2,0.6-0.4,0.7-0.6c0.1-0.7,0.7-0.4,1.1-0.5c0.6-0.1,1.2,0,1.8,0
		c0.4,0,1,0.2,1.1-0.5c0-0.1,0.4-0.1,0.6-0.1c0.4,0,0.8,0,1.2-0.1c0-0.2,0-0.4,0.1-0.7c1.1,0,2.1,0,3.2,0c0,0.4,0,0.8,0,1.3
		c0.5-0.1,1.2,0.4,1.4-0.5c0.2,0.1,0.5,0,0.5,0.2c0.1,0.2,0.1,0.5,0.2,0.7c0.9,0.4,1.8,0.9,2.7,1.2c0.5,0.2,1.1,0.2,1.7,0.3
		c0,0.4-0.5,0.2-0.5,0.7c-0.5,0.2-0.7,0.4-1,1.2c-0.1,0.1-0.7,0-1,0.1c-0.3,0-0.7-0.1-0.8,0.4c0,0.1-0.5,0.1-0.9,0.2
		c0.1-0.2,0.2-0.3,0.3-0.5c-0.2,0-0.4,0-0.6,0"/>
	<path class="st6" d="M979.8,163.5c0.3-0.4,0.6-0.8,0.9-1.1c0,0,0,0.1,0,0.1c0.4-0.2,0.8-0.5,1.3-0.7c0.2-0.1,0.6-0.2,0.8-0.1
		c0.9,0.2,1.6-0.4,2.3-0.8c0.3-0.2,0.7-0.4,1.1-0.6c0-0.1,0-0.3,0-0.3c0.7-0.6,1.3-1,1.8-1.5c0.3-0.3,0.5-0.7,0.8-1
		c0.3-0.3,0.6-0.8,0.9-0.8c0.9-0.1,1.3-0.6,1.7-1.2c0.2-0.3,0.6-0.4,0.9-0.7c0.2-0.2,0.2-0.4,0.4-0.7c0.4-0.2,0.9-0.5,1.4-0.8
		c0,0.1,0.1,0.1,0.1,0.2c-0.8,0.9-1.6,1.8-2.4,2.8c-0.4,0.5-0.7,1.1-1.5,1.1c-0.1,0-0.2,0.3-0.3,0.5c-0.3,0.5-0.4,1.1-0.8,1.5
		c-2,2.2-4.1,4.3-6.1,6.5c-0.2,0.2-0.5,0.4-0.8,0.5c-2.6,1.5-5.3,2.9-7.9,4.4c-0.6,0.3-1.2,0.7-1.8,0.1c0,0-0.2,0.1-0.2,0.2
		c-0.6-1.1,0-2.1,0.3-3.1c-0.1,0-0.1,0-0.2,0c0.4-0.1,0.9-0.3,1.3-0.4c0,0,0,0.1,0.1,0.1c0.3-0.4,0.6-0.8,0.9-1.1c0,0,0,0-0.1,0
		c0.4-0.3,1.1-0.4,1.2-0.8c0.3-0.8,1.4-0.2,1.5-1.1c0,0,0.3,0,0.4-0.1c0.2-0.1,0.4-0.3,0.7-0.4C979,163.7,979.4,163.6,979.8,163.5z"
		/>
	<path class="st6" d="M944.1,62.1c-0.1,1.2-0.9,1.2-1.8,1.2c0,0.1,0.1,0.1,0.1,0.2c-0.3,0.1-0.5,0.3-0.8,0.4
		c-0.3,0.1-0.5,0.3-0.7,0.5c-0.5,0.4-0.8,1.2-1.8,1c-0.4-0.1-1.2-0.6-1.5,0.4c-0.2-0.1-0.4-0.1-0.5-0.2c-0.2-0.2-0.4-0.4-0.6-0.7
		c-0.1,0.8-0.1,1.4-0.1,2.1c-0.2-0.2-0.3-0.3-0.4-0.4c0,0-0.1,0.1-0.1,0.1c0.1,0.1,0.1,0.3,0.2,0.4c-0.2,0-0.4,0-0.5,0
		c-0.7-0.6-1.4-1.2-2.1-1.8c-0.1-0.1-0.1-0.2-0.1-0.3c0.1-0.1,0.3-0.2,0.4-0.2c0.9,0,1.8,0,2.7,0.1c0.6,0.1,0.6-0.1,0.5-0.6
		c-0.1,0.1-0.2,0.2-0.3,0.3c0-0.1-0.1-0.1-0.1-0.2c0.2-0.1,0.4-0.4,0.6-0.4c0.6-0.1,0.9-0.5,1.2-1c0.1-0.3,0.4-0.5,0.6-0.7
		c0.3-0.3,0.7-0.5,1-0.8c0.2-0.2,0.3-0.4,0.4-0.7c0.5-0.1,1.2,0.1,1.5-0.2c0.9-0.9,1.9-0.3,2.8-0.4c1.1-0.1,2.1,0,3.2,0
		c0.3,1-0.1,1.7-0.7,2.4c-0.1,0.1-0.4,0.1-0.4,0.1c-0.6-1-1.6-0.3-2.3-0.5C944.4,62,944.3,62,944.1,62.1z"/>
	<path class="st6" d="M960.7,101.1c0.3,0.3,0.7,0.7,1,1.1c0.3,0.3,0.6,0.7,1,1c0.2,0.2,0.6,0.6,0.8,0.5c0.6-0.1,0.5,0.3,0.6,0.5
		c0.3,0.4,0.4,1,1,1.2c0.3,0.2,0.5,0.7,0.8,1c0.1,0.1,0.3,0.2,0.5,0.3c0.3,0.4-0.3,1.2,0.6,1.3c0,0.6,0,1.2,0,1.7
		c-0.2-0.1-0.5-0.1-0.5-0.2c-0.1-0.3-0.1-0.6-0.1-0.8c-0.6-0.4-1.1-0.8-1.2-1.6c-0.1-0.4-0.5-0.8-0.9-1.2c-0.4-0.4-0.8-0.7-1.3-1.2
		c-0.2-0.1-0.5-0.2-0.9-0.3c0.1-0.1,0.2-0.2,0.4-0.4c-1,0.1-1.4-0.6-1.9-1.3c-1.2-0.1-1.2-0.1-1.3-0.4c-0.7-0.4-1.2-0.7-1.7-1
		c-0.1-0.6-0.8-1.3-1.4-1.3c-0.6-0.1-0.9-0.6-1.3-1c-0.4-0.3-0.7-0.7-1-1c-0.2-0.2-0.4-0.5-0.6-0.6c-0.6-0.4-1.3-0.8-2-1.2
		c-0.1-0.1-0.2-0.4-0.3-0.8c0.5,0.3,1.1-0.1,1.2,0.6c0,0,0.1,0,0.1,0.1c0.8,0.2,1.5,0.5,2.3,0.7c0.3,0.1,0.5,0.4,0.7,0.5
		c0.5,0.3,1,0.4,1.5,0.7c0.2,0.1,0.2,0.4,0.3,0.7c0.8-0.1,1.3,0.5,1.8,1.1C959.3,100.5,960,100.7,960.7,101.1z"/>
	<path d="M999.2,90.5c0-5.4,0-10.7,0-16.1c0.1,0,0.2,0,0.2,0c0.2,1.2,0.4,2.4,0.5,3.6c0.1,1.6-0.1,3.1-0.1,4.7c0,1.5,0.1,2.9,0,4.4
		C999.7,88.2,999.4,89.3,999.2,90.5L999.2,90.5z"/>
	<path d="M994.8,82c-0.8,0.1-1.4-0.1-1.8,0.6c-0.1,0.1-0.2,0.3-0.3,0.4c-0.1,0.1-0.1,0.4-0.1,0.4c-0.9,0.3-0.3,0.6-0.1,0.8
		c-0.2,0.4-0.4,0.7-0.6,1c-0.8-0.4-1.1-0.9-1-2.5c0.5-0.3,1.1-0.6,1.6-0.9c0.2-0.4,0.6-0.7,0.7-1.2c0.1-0.3,0.1-0.7,0.1-1
		c0-0.3,0-0.6,0.1-0.9c0.8,0.1,0.7,0.8,1,1.2C995,80.7,994.5,81.3,994.8,82z"/>
	<path class="st6" d="M953.8,58.8c-0.1,0.4-0.2,0.8-0.2,1.1c-0.1-0.2-0.1-0.3-0.2-0.4c-0.3,0.3-0.7,0.7-1.1,1.1c0,0-0.3,0-0.5,0
		c-0.1,0.2-0.1,0.5-0.2,0.7c-0.6,0-1.1,0.1-1.7,0.1c0,0.2-0.1,0.4-0.1,0.7c-0.4-0.4-0.6-0.6-1.1-1.1c0.2-0.3,0.6-0.7,1-1.1
		c0.3-0.3,0.6-0.7,0.9-0.9c0.2-0.1,0.4-0.2,0.6-0.2C952,58.8,952.8,58.8,953.8,58.8z"/>
	<path d="M941.9,114.4c-0.1-0.4-0.2-0.8-0.3-1.1c0.7-0.3,1.2-0.6,1.8-0.9c0-0.3,0-0.6,0-0.9c0-1.2,0.1-1.3,1.4-1
		c0,0.6,0.1,1.2,0.1,1.7c-0.7,0.3-1.3,0.6-1.9,0.9C942.6,113.6,942.3,113.9,941.9,114.4z"/>
	<path d="M997.7,65.2c-0.1,0-0.3,0-0.5,0c0-0.4,0-0.8,0-1.2c-0.1,0-0.1,0-0.2,0.1c-0.1-0.3-0.4-0.5-0.4-0.8c-0.1-0.6-0.6-0.8-1-1.2
		c-0.3-0.4-0.7-0.7-1-1.1c0.1-0.1,0.1-0.2,0.2-0.2c0.2,0.1,0.6,0.1,0.7,0.3c0.6,0.8,1.2,1.6,1.6,2.5C997.5,64,997.6,64.6,997.7,65.2
		z"/>
	<path d="M943.6,94.9c0.5,0,1,0,1.4,0.1c0.1,0,0.3,0.4,0.2,0.4c-0.3,0.2-0.7,0.6-1,0.5c-0.3-0.1-0.6-0.5-0.9-0.8
		C943.4,95.1,943.5,95,943.6,94.9z"/>
	<path d="M996,95.6c0-0.2,0-0.4,0-0.4c0.6-0.6,1.1-1.1,1.7-1.6c0.1,0.1,0.1,0.1,0.2,0.2c-0.7,0.5-1.3,1.1-2,1.6
		C995.9,95.5,996,95.6,996,95.6z"/>
	<path d="M999.2,90.5c0.1,1,0.1,1-0.6,1.7c0-0.6,0-1.1,0-1.7C998.8,90.4,999,90.5,999.2,90.5L999.2,90.5z"/>
	<path d="M994.8,96.8c0-0.3,0-0.6,0-1.1c0.3,0,0.5,0,0.9,0C995.4,96.1,995.1,96.4,994.8,96.8z"/>
	<path class="st1" d="M933.6,52.8c-0.7,0-1.4,0-2.2,0c0.3-0.4,0.6-0.6,0.6-0.8c0.1-0.2-0.1-0.5,0-0.9c0.3,0.2,0.8,0.5,0.8,0.6
		c-0.1,0.4-0.4,0.6-0.6,0.9c0.4,0,0.9-0.1,1.5-0.2C933.6,52.6,933.6,52.7,933.6,52.8z"/>
</g>
<g>
	<path d="M52,144.2c0.6,1.4,0.9,2.5,0.9,3.1c0,1.5-1.2,2.8-3.7,3.9c-1.3,0.6-2.3,0.8-3.1,0.8s-1.4-0.2-1.9-0.6
		c-0.5-0.4-0.9-0.8-1.1-1.2c-0.4-0.8-2-4.4-4.7-10.9l-1.9,0.1h-7.6v6.8c0,0.9,0,1.6-0.1,2.1c-0.1,0.5-0.3,1-0.6,1.6
		c-0.6,1.1-2.1,1.6-4.7,1.6c-2.8,0-4.5-0.7-4.9-2.2c-0.2-0.7-0.4-1.7-0.4-3.1v-33.4c0-0.9,0-1.6,0.1-2.1c0.1-0.5,0.3-1,0.6-1.6
		c0.6-1.1,2.1-1.6,4.7-1.6h13c3.5,0,7,1.3,10.3,3.9c1.6,1.2,2.9,2.9,4,5.1c1,2.1,1.6,4.5,1.6,7.1c0,4.5-1.5,8.3-4.5,11.2
		C48.8,136.8,50.2,140,52,144.2z M28.9,128.8h7.7c1.2,0,2.3-0.4,3.5-1.3c1.2-0.9,1.7-2.2,1.7-4c0-1.8-0.6-3.1-1.7-4
		c-1.2-0.9-2.4-1.4-3.6-1.4h-7.6V128.8z"/>
	<path class="st7" d="M84.1,121.8c2.3,1,3.4,2.2,3.4,3.6c0,0.7-0.2,1.3-0.5,1.9c-0.3,0.6-0.5,0.9-0.5,1l-15,33.6
		c-0.3,0.7-0.6,1.3-0.8,1.7c-0.2,0.4-0.5,0.7-1,1.1c-0.5,0.3-1,0.5-1.7,0.5c-0.7,0-1.7-0.3-3-0.9c-2.3-1-3.4-2.2-3.4-3.6
		c0-0.9,1.8-5.3,5.5-13.1l-11.4-19.2c-0.8-1.3-1.1-2.2-1.1-2.8c0-1.2,1-2.4,3.1-3.7c1.3-0.8,2.3-1.1,3-1.1c0.7,0,1.3,0.2,1.8,0.5
		c0.5,0.3,0.8,0.6,1,0.9c0.2,0.3,1.3,2.1,3.2,5.3c1.9,3.2,3.7,6.2,5.4,9c0.2-0.6,1.2-3,3.1-7.1c1.9-4.1,2.9-6.3,3-6.6
		c0.1-0.3,0.4-0.6,0.7-1c0.5-0.6,1.2-1,2.1-1C81.8,121,82.9,121.2,84.1,121.8z"/>
	<path class="st7" d="M110.2,124.6c0.2-2.1,1.7-3.2,4.5-3.2c1.5,0,2.6,0.1,3.3,0.3c0.7,0.2,1.2,0.6,1.5,1.2c0.3,0.6,0.5,1.1,0.5,1.5
		c0.1,0.4,0.1,1.1,0.1,2v20.1c0,0.9,0,1.5-0.1,2c-0.1,0.4-0.2,0.9-0.5,1.5c-0.5,1-1.8,1.5-3.9,1.5c-2.1,0-3.5-0.3-4.2-0.8
		c-0.7-0.5-1.1-1.3-1.2-2.3c-1.4,2-3.8,3-7.1,3c-3.3,0-6.4-1.5-9.2-4.5c-2.8-3-4.2-6.5-4.2-10.5c0-4,1.4-7.5,4.3-10.5
		c2.8-3,6-4.5,9.4-4.5c1.3,0,2.5,0.2,3.6,0.7c1.1,0.5,1.8,0.9,2.2,1.3C109.6,123.9,110,124.3,110.2,124.6z M99.8,136.6
		c0,1.3,0.5,2.4,1.5,3.4c1,1,2.2,1.5,3.6,1.5c1.4,0,2.6-0.5,3.5-1.5c0.9-1,1.4-2.2,1.4-3.4c0-1.2-0.4-2.4-1.3-3.5
		c-0.9-1.1-2.1-1.6-3.6-1.6c-1.5,0-2.7,0.5-3.7,1.6C100.3,134.1,99.8,135.3,99.8,136.6z"/>
	<path class="st7" d="M141.6,121.4c3.8,0,7,1.5,9.5,4.4c2.5,2.9,3.8,6.5,3.8,10.7v10.1c0,0.9,0,1.5-0.1,2c-0.1,0.4-0.2,0.9-0.5,1.5
		c-0.5,1-2,1.5-4.5,1.5c-2.7,0-4.3-0.7-4.7-2.1c-0.2-0.6-0.3-1.6-0.3-2.9v-10.1c0-1.6-0.4-2.8-1.3-3.7c-0.9-0.9-2.1-1.3-3.6-1.3
		c-1.5,0-2.7,0.5-3.7,1.4c-0.9,0.9-1.4,2.1-1.4,3.6v10.1c0,0.9,0,1.5-0.1,2c-0.1,0.4-0.2,0.9-0.5,1.5c-0.5,1-2,1.5-4.4,1.5
		c-2.4,0-3.9-0.5-4.4-1.5c-0.3-0.6-0.4-1.1-0.5-1.5c-0.1-0.4-0.1-1.1-0.1-2v-20.3c0-0.8,0-1.5,0.1-1.9c0.1-0.4,0.2-0.9,0.5-1.5
		c0.5-1,2-1.4,4.4-1.4c2.3,0,3.8,0.4,4.3,1.3c0.4,0.7,0.6,1.4,0.6,2.4c0.2-0.3,0.5-0.6,1-1.1c0.5-0.5,1.1-0.9,1.5-1.2
		C138.6,121.9,140,121.4,141.6,121.4z"/>
	<path d="M206.1,144.2c0.6,1.4,0.9,2.5,0.9,3.1c0,1.5-1.2,2.8-3.7,3.9c-1.3,0.6-2.3,0.8-3.1,0.8c-0.8,0-1.4-0.2-1.9-0.6
		c-0.5-0.4-0.9-0.8-1.1-1.2c-0.4-0.8-2-4.4-4.7-10.9l-1.9,0.1H183v6.8c0,0.9,0,1.6-0.1,2.1c-0.1,0.5-0.3,1-0.6,1.6
		c-0.6,1.1-2.1,1.6-4.7,1.6c-2.8,0-4.5-0.7-4.9-2.2c-0.2-0.7-0.4-1.7-0.4-3.1v-33.4c0-0.9,0-1.6,0.1-2.1c0.1-0.5,0.3-1,0.6-1.6
		c0.6-1.1,2.1-1.6,4.7-1.6h13c3.5,0,7,1.3,10.3,3.9c1.6,1.2,2.9,2.9,4,5.1c1,2.1,1.6,4.5,1.6,7.1c0,4.5-1.5,8.3-4.5,11.2
		C202.9,136.8,204.3,140,206.1,144.2z M183,128.8h7.7c1.2,0,2.3-0.4,3.5-1.3c1.2-0.9,1.7-2.2,1.7-4c0-1.8-0.6-3.1-1.7-4
		c-1.2-0.9-2.4-1.4-3.6-1.4H183V128.8z"/>
	<path class="st7" d="M238.2,132.9c0,2.4-0.6,4.1-1.7,5.2c-1.2,1.1-2.5,1.7-3.9,1.7H219c0,1.1,0.6,2,1.9,2.7
		c1.3,0.7,2.5,1.1,3.8,1.1c2.2,0,4-0.2,5.2-0.7l0.6-0.2c0.9-0.4,1.7-0.6,2.3-0.6c1.2,0,2.3,0.9,3.2,2.6c0.5,1,0.7,1.9,0.7,2.6
		c0,3.4-4.1,5.1-12.2,5.1c-2.8,0-5.3-0.5-7.5-1.5c-2.2-1-3.9-2.3-5.1-3.9c-2.4-3.1-3.6-6.6-3.6-10.4c0-4.8,1.6-8.7,4.7-11.5
		c3.1-2.9,7-4.3,11.7-4.3c5.3,0,9.2,1.9,11.7,5.6C237.5,128.4,238.2,130.6,238.2,132.9z M226.1,134.6c1.5,0,2.2-0.6,2.2-1.8
		c0-0.9-0.3-1.6-1-2.1c-0.7-0.5-1.6-0.8-2.9-0.8c-1.2,0-2.5,0.5-3.7,1.5c-1.2,1-1.8,2.1-1.8,3.2H226.1z"/>
	<path class="st7" d="M268.3,121.8c2.3,1,3.4,2.2,3.4,3.6c0,0.7-0.2,1.3-0.5,1.9c-0.3,0.6-0.5,0.9-0.5,1l-15,33.6
		c-0.3,0.7-0.6,1.3-0.8,1.7c-0.2,0.4-0.5,0.7-1,1.1c-0.5,0.3-1,0.5-1.7,0.5c-0.7,0-1.7-0.3-3-0.9c-2.3-1-3.4-2.2-3.4-3.6
		c0-0.9,1.8-5.3,5.5-13.1l-11.4-19.2c-0.8-1.3-1.1-2.2-1.1-2.8c0-1.2,1-2.4,3.1-3.7c1.3-0.8,2.3-1.1,3-1.1c0.7,0,1.3,0.2,1.8,0.5
		c0.5,0.3,0.8,0.6,1,0.9c0.2,0.3,1.3,2.1,3.2,5.3c1.9,3.2,3.7,6.2,5.4,9c0.2-0.6,1.2-3,3.1-7.1c1.9-4.1,2.9-6.3,3-6.6
		c0.1-0.3,0.4-0.6,0.7-1c0.5-0.6,1.2-1,2.1-1C266,121,267,121.2,268.3,121.8z"/>
	<path class="st7" d="M291,121.4c3.8,0,7,1.5,9.5,4.4c2.5,2.9,3.8,6.5,3.8,10.7v10.1c0,0.9,0,1.5-0.1,2c-0.1,0.4-0.2,0.9-0.5,1.5
		c-0.5,1-2,1.5-4.5,1.5c-2.7,0-4.3-0.7-4.7-2.1c-0.2-0.6-0.3-1.6-0.3-2.9v-10.1c0-1.6-0.4-2.8-1.3-3.7c-0.9-0.9-2.1-1.3-3.6-1.3
		c-1.5,0-2.7,0.5-3.7,1.4c-0.9,0.9-1.4,2.1-1.4,3.6v10.1c0,0.9,0,1.5-0.1,2c-0.1,0.4-0.2,0.9-0.5,1.5c-0.5,1-2,1.5-4.4,1.5
		c-2.4,0-3.9-0.5-4.4-1.5c-0.3-0.6-0.4-1.1-0.5-1.5c-0.1-0.4-0.1-1.1-0.1-2v-20.3c0-0.8,0-1.5,0.1-1.9c0.1-0.4,0.2-0.9,0.5-1.5
		c0.5-1,2-1.4,4.4-1.4c2.3,0,3.8,0.4,4.3,1.3c0.4,0.7,0.6,1.4,0.6,2.4c0.2-0.3,0.5-0.6,1-1.1c0.5-0.5,1.1-0.9,1.5-1.2
		C288,121.9,289.5,121.4,291,121.4z"/>
	<path class="st7" d="M312.9,125.2c3.2-3,6.9-4.5,11-4.5s7.8,1.5,10.9,4.4c3.2,3,4.8,6.7,4.8,11.3c0,3.2-0.8,6-2.5,8.5
		c-1.6,2.5-3.6,4.3-6,5.4c-2.4,1.2-4.8,1.7-7.3,1.7c-2.5,0-5-0.6-7.3-1.9c-2.4-1.2-4.4-3.1-6-5.5c-1.6-2.4-2.4-5.2-2.4-8.2
		C308.1,132,309.7,128.2,312.9,125.2z M320.1,140.7c1.2,0.9,2.5,1.4,3.7,1.4c1.3,0,2.5-0.5,3.8-1.4c1.3-1,1.9-2.4,1.9-4.2
		c0-1.9-0.6-3.3-1.8-4.2c-1.2-0.9-2.5-1.4-3.8-1.4c-1.4,0-2.7,0.5-3.8,1.4c-1.2,1-1.8,2.4-1.8,4.2
		C318.2,138.3,318.9,139.7,320.1,140.7z"/>
	<path class="st7" d="M343.3,112.3c0-0.9,0-1.5,0.1-2c0.1-0.4,0.2-0.9,0.5-1.5c0.5-1,2-1.5,4.5-1.5c2.3,0,3.8,0.5,4.4,1.5
		c0.3,0.6,0.5,1.1,0.5,1.5c0.1,0.5,0.1,1.1,0.1,2v26.5c0,1.4,0.1,2.2,0.3,2.6c0.2,0.4,0.7,0.5,1.5,0.5c0.8,0,1.3,0,1.6,0.1
		c0.3,0.1,0.6,0.2,1,0.5c0.8,0.5,1.1,1.9,1.1,4.1c0,2.4-0.4,3.9-1.1,4.4c-1,0.7-3.4,0.8-7.1,0.3c-2.9-0.4-4.9-1.4-5.7-2.9
		c-1.1-1.9-1.6-4.9-1.6-8.9V112.3z"/>
	<path class="st7" d="M382.4,108.9c0.3-0.6,0.8-0.9,1.5-1.2c0.7-0.2,1.7-0.3,2.9-0.3s2.2,0.1,2.9,0.3c0.7,0.2,1.2,0.6,1.5,1.2
		s0.5,1.1,0.5,1.5c0.1,0.4,0.1,1.1,0.1,2v34.2c0,0.9,0,1.5-0.1,2c-0.1,0.4-0.2,0.9-0.5,1.5c-0.6,1-2.2,1.5-4.8,1.5
		c-2.7,0-4.1-0.9-4.4-2.8c-1.6,1.8-3.8,2.8-6.7,2.8c-3.4,0-6.6-1.5-9.4-4.5c-2.8-3-4.2-6.5-4.2-10.5c0-4,1.4-7.5,4.3-10.5
		c2.8-3,6-4.5,9.4-4.5c2.8,0,5,1,6.6,2.9v-12c0-0.9,0-1.5,0.1-2C381.9,109.9,382.1,109.4,382.4,108.9z M373,140c1,1,2.2,1.5,3.6,1.5
		c1.4,0,2.6-0.5,3.5-1.5c0.9-1,1.4-2.2,1.4-3.4c0-1.2-0.4-2.4-1.3-3.5c-0.9-1.1-2.1-1.6-3.6-1.6c-1.5,0-2.8,0.5-3.7,1.6
		c-0.9,1.1-1.4,2.2-1.4,3.5C371.5,137.8,372,139,373,140z"/>
	<path class="st7" d="M396.6,148.9c-0.7-0.5-1.1-1.2-1.1-2.2c0-1,0.7-2.5,2.2-4.5c0.4-0.6,1.1-1,2-1c0.9,0,2.2,0.5,3.8,1.4
		c1.6,0.9,3.1,1.4,4.4,1.4c2.3,0,3.5-0.5,3.5-1.4c0-0.7-1.3-1.3-3.8-1.6c-2.4-0.3-4.8-1.2-7.2-2.7c-1.1-0.7-2-1.8-2.8-3.2
		c-0.7-1.5-1.1-3.2-1.1-5.2c0-6,4.1-9.1,12.4-9.1c2.7,0,5.5,0.7,8.4,1.9c1.3,0.6,2,1.4,2,2.3s-0.4,2-1.3,3.4c-0.8,1.3-1.7,2-2.6,2
		c-0.5,0-1.3-0.3-2.6-0.9c-1.2-0.6-2.6-0.9-4-0.9c-2.3,0-3.4,0.4-3.4,1.3c0,1.1,1.3,1.9,3.9,2.2c2.5,0.3,5,1,7.3,2.2
		c1.1,0.5,2,1.5,2.8,2.8s1.1,3,1.1,5c0,2-0.4,3.7-1.1,5.1c-0.7,1.4-1.8,2.4-3.1,3.1c-2.4,1.2-5.5,1.8-9.2,1.8
		C403.5,152.2,400,151.1,396.6,148.9z"/>
</g>
<g>
	<path class="st8" d="M736.6,142.6c0.7,0.3,1,0.7,1,1.1c0,0.2-0.1,0.5-0.3,0.9c-0.2,0.4-0.3,0.8-0.4,1.1l-1.8,4.3
		c-0.2,0.5-0.4,0.8-0.8,1c-0.2,0.1-0.4,0.1-0.6,0.1c-0.2,0-0.5-0.1-0.7-0.3c-0.2-0.2-0.4-0.4-0.5-0.6l-0.1-0.3
		c-0.1-0.2-0.4-1.1-1-2.5c-0.1,0.3-0.3,0.7-0.5,1.3s-0.3,1-0.4,1.1c-0.1,0.1-0.1,0.2-0.1,0.3c0,0-0.1,0.1-0.1,0.3
		c-0.1,0.1-0.2,0.2-0.3,0.3c-0.3,0.3-0.6,0.4-0.9,0.4s-0.6-0.1-0.8-0.3c-0.2-0.2-0.4-0.4-0.5-0.6l-2.4-5.9c-0.1-0.3-0.2-0.5-0.2-0.6
		c0-0.4,0.3-0.8,0.9-1c0.3-0.1,0.6-0.2,0.8-0.2c0.2,0,0.4,0,0.5,0.1c0.1,0.1,0.2,0.2,0.3,0.3c0.1,0.1,0.1,0.2,0.1,0.3
		c0.2,0.4,0.6,1.4,1.1,3l1-2.6c0.1-0.2,0.2-0.4,0.4-0.6c0.3-0.3,0.6-0.5,1-0.5s0.6,0.1,0.8,0.3c0.2,0.2,0.4,0.3,0.5,0.5l0.1,0.3
		c0.5,1.5,0.9,2.4,1,2.6l1-2.7c0.3-0.7,0.6-1,1.2-1C736.2,142.5,736.4,142.5,736.6,142.6z"/>
	<path class="st8" d="M746.4,145.8c0,0.7-0.2,1.1-0.5,1.5c-0.3,0.3-0.7,0.5-1.1,0.5H741c0,0.3,0.2,0.6,0.5,0.8
		c0.4,0.2,0.7,0.3,1.1,0.3c0.6,0,1.1-0.1,1.5-0.2l0.2-0.1c0.3-0.1,0.5-0.2,0.6-0.2c0.3,0,0.6,0.2,0.9,0.7c0.1,0.3,0.2,0.5,0.2,0.7
		c0,1-1.1,1.4-3.4,1.4c-0.8,0-1.5-0.1-2.1-0.4c-0.6-0.3-1.1-0.6-1.4-1.1c-0.7-0.9-1-1.8-1-2.9c0-1.4,0.4-2.4,1.3-3.2
		c0.9-0.8,2-1.2,3.3-1.2c1.5,0,2.6,0.5,3.3,1.6C746.2,144.5,746.4,145.1,746.4,145.8z M743,146.3c0.4,0,0.6-0.2,0.6-0.5
		c0-0.2-0.1-0.4-0.3-0.6c-0.2-0.2-0.5-0.2-0.8-0.2c-0.4,0-0.7,0.1-1,0.4c-0.3,0.3-0.5,0.6-0.5,0.9H743z"/>
	<path class="st8" d="M752.1,142.6c1,0,1.8,0.4,2.6,1.3c0.8,0.8,1.2,1.8,1.2,3c0,1.1-0.4,2.1-1.2,3c-0.8,0.8-1.7,1.3-2.6,1.3
		c-0.9,0-1.6-0.3-2-0.8c-0.1,0.5-0.5,0.8-1.4,0.8c-0.7,0-1.1-0.1-1.2-0.4c-0.1-0.2-0.1-0.3-0.1-0.4c0-0.1,0-0.3,0-0.6V140
		c0-0.2,0-0.4,0-0.6c0-0.1,0.1-0.3,0.1-0.4c0.2-0.3,0.6-0.4,1.3-0.4c0.7,0,1.1,0.1,1.2,0.4c0.1,0.2,0.1,0.3,0.2,0.4
		c0,0.1,0,0.3,0,0.6v3.4C750.7,142.8,751.3,142.6,752.1,142.6z M750.7,147.8c0.3,0.3,0.6,0.4,1,0.4s0.7-0.1,1-0.4
		c0.3-0.3,0.4-0.6,0.4-1c0-0.4-0.1-0.7-0.4-1c-0.3-0.3-0.6-0.4-1-0.4c-0.4,0-0.8,0.2-1,0.5c-0.3,0.3-0.4,0.6-0.4,1
		C750.3,147.2,750.4,147.5,750.7,147.8z"/>
	<path d="M761.7,148.8h-3.8c-0.6,0-1-0.2-1.1-0.5c-0.1-0.2-0.1-0.4-0.1-0.7c0-0.3,0-0.5,0.1-0.7c0.1-0.2,0.2-0.3,0.3-0.4
		c0.2-0.1,0.5-0.1,0.8-0.1h3.8c0.6,0,1,0.2,1.1,0.5c0.1,0.2,0.1,0.4,0.1,0.7c0,0.3,0,0.5-0.1,0.7c-0.1,0.2-0.2,0.3-0.3,0.4
		C762.3,148.8,762.1,148.8,761.7,148.8z"/>
	<path class="st8" d="M769.7,139c0.1-0.2,0.2-0.3,0.4-0.3c0.2-0.1,0.5-0.1,0.8-0.1c0.3,0,0.6,0,0.8,0.1c0.2,0.1,0.3,0.2,0.4,0.3
		c0.1,0.2,0.1,0.3,0.1,0.4c0,0.1,0,0.3,0,0.6v9.6c0,0.2,0,0.4,0,0.6c0,0.1-0.1,0.3-0.2,0.4c-0.2,0.3-0.6,0.4-1.4,0.4
		c-0.7,0-1.2-0.3-1.2-0.8c-0.5,0.5-1.1,0.8-1.9,0.8c-1,0-1.8-0.4-2.6-1.3s-1.2-1.8-1.2-3c0-1.1,0.4-2.1,1.2-3
		c0.8-0.8,1.7-1.3,2.6-1.3c0.8,0,1.4,0.3,1.9,0.8V140c0-0.2,0-0.4,0-0.6C769.5,139.3,769.6,139.2,769.7,139z M767,147.8
		c0.3,0.3,0.6,0.4,1,0.4s0.7-0.1,1-0.4c0.3-0.3,0.4-0.6,0.4-1c0-0.3-0.1-0.7-0.4-1c-0.3-0.3-0.6-0.5-1-0.5c-0.4,0-0.8,0.1-1,0.4
		c-0.3,0.3-0.4,0.6-0.4,1C766.6,147.2,766.8,147.5,767,147.8z"/>
	<path class="st8" d="M781.8,145.8c0,0.7-0.2,1.1-0.5,1.5c-0.3,0.3-0.7,0.5-1.1,0.5h-3.8c0,0.3,0.2,0.6,0.5,0.8
		c0.4,0.2,0.7,0.3,1.1,0.3c0.6,0,1.1-0.1,1.5-0.2l0.2-0.1c0.3-0.1,0.5-0.2,0.6-0.2c0.3,0,0.6,0.2,0.9,0.7c0.1,0.3,0.2,0.5,0.2,0.7
		c0,1-1.1,1.4-3.4,1.4c-0.8,0-1.5-0.1-2.1-0.4c-0.6-0.3-1.1-0.6-1.4-1.1c-0.7-0.9-1-1.8-1-2.9c0-1.4,0.4-2.4,1.3-3.2
		c0.9-0.8,2-1.2,3.3-1.2c1.5,0,2.6,0.5,3.3,1.6C781.6,144.5,781.8,145.1,781.8,145.8z M778.4,146.3c0.4,0,0.6-0.2,0.6-0.5
		c0-0.2-0.1-0.4-0.3-0.6c-0.2-0.2-0.5-0.2-0.8-0.2c-0.4,0-0.7,0.1-1,0.4c-0.3,0.3-0.5,0.6-0.5,0.9H778.4z"/>
	<path class="st8" d="M790.9,142.7c0.6,0.3,0.8,0.7,0.8,1.1c0,0.2-0.1,0.5-0.3,0.9l-3.3,5.7c-0.1,0.2-0.3,0.3-0.5,0.5
		c-0.2,0.1-0.5,0.2-0.7,0.2s-0.5-0.1-0.7-0.2c-0.2-0.1-0.4-0.2-0.4-0.3l-0.1-0.2l-3.4-5.7c-0.2-0.4-0.3-0.6-0.3-0.9
		c0-0.4,0.3-0.7,0.8-1.1c0.4-0.2,0.7-0.4,1-0.4c0.2,0,0.4,0.1,0.6,0.2c0.1,0.1,0.3,0.4,0.4,0.7l2.1,4.1l2.1-4.1
		c0.1-0.2,0.2-0.4,0.3-0.4c0.1-0.1,0.2-0.2,0.3-0.3c0.1-0.1,0.3-0.1,0.5-0.1C790.2,142.4,790.5,142.5,790.9,142.7z"/>
	<path class="st8" d="M800.3,145.8c0,0.7-0.2,1.1-0.5,1.5c-0.3,0.3-0.7,0.5-1.1,0.5h-3.8c0,0.3,0.2,0.6,0.5,0.8
		c0.4,0.2,0.7,0.3,1.1,0.3c0.6,0,1.1-0.1,1.5-0.2l0.2-0.1c0.3-0.1,0.5-0.2,0.6-0.2c0.3,0,0.6,0.2,0.9,0.7c0.1,0.3,0.2,0.5,0.2,0.7
		c0,1-1.1,1.4-3.4,1.4c-0.8,0-1.5-0.1-2.1-0.4c-0.6-0.3-1.1-0.6-1.4-1.1c-0.7-0.9-1-1.8-1-2.9c0-1.4,0.4-2.4,1.3-3.2
		c0.9-0.8,2-1.2,3.3-1.2c1.5,0,2.6,0.5,3.3,1.6C800.2,144.5,800.3,145.1,800.3,145.8z M796.9,146.3c0.4,0,0.6-0.2,0.6-0.5
		c0-0.2-0.1-0.4-0.3-0.6c-0.2-0.2-0.5-0.2-0.8-0.2c-0.4,0-0.7,0.1-1,0.4c-0.3,0.3-0.5,0.6-0.5,0.9H796.9z"/>
	<path class="st8" d="M801.4,140c0-0.2,0-0.4,0-0.6c0-0.1,0.1-0.3,0.1-0.4c0.2-0.3,0.6-0.4,1.3-0.4c0.7,0,1.1,0.1,1.2,0.4
		c0.1,0.2,0.1,0.3,0.2,0.4c0,0.1,0,0.3,0,0.6v7.5c0,0.4,0,0.6,0.1,0.7c0.1,0.1,0.2,0.2,0.4,0.2s0.4,0,0.4,0c0.1,0,0.2,0.1,0.3,0.1
		c0.2,0.1,0.3,0.5,0.3,1.1c0,0.7-0.1,1.1-0.3,1.2c-0.3,0.2-0.9,0.2-2,0.1c-0.8-0.1-1.4-0.4-1.6-0.8c-0.3-0.5-0.5-1.4-0.5-2.5V140z"
		/>
	<path class="st8" d="M807.8,143.6c0.9-0.8,1.9-1.3,3.1-1.3c1.2,0,2.2,0.4,3.1,1.2c0.9,0.8,1.3,1.9,1.3,3.2c0,0.9-0.2,1.7-0.7,2.4
		c-0.5,0.7-1,1.2-1.7,1.5s-1.3,0.5-2.1,0.5c-0.7,0-1.4-0.2-2.1-0.5c-0.7-0.3-1.2-0.9-1.7-1.5c-0.5-0.7-0.7-1.5-0.7-2.3
		C806.4,145.5,806.9,144.5,807.8,143.6z M809.8,148c0.3,0.3,0.7,0.4,1,0.4c0.4,0,0.7-0.1,1.1-0.4c0.4-0.3,0.5-0.7,0.5-1.2
		c0-0.5-0.2-0.9-0.5-1.2c-0.3-0.3-0.7-0.4-1.1-0.4s-0.7,0.1-1.1,0.4c-0.3,0.3-0.5,0.7-0.5,1.2S809.4,147.7,809.8,148z"/>
	<path class="st8" d="M816.3,153.3v-9.4c0-0.2,0-0.4,0-0.5c0-0.1,0.1-0.3,0.1-0.4c0.2-0.3,0.5-0.4,1.1-0.4c0.6,0,1,0.1,1.2,0.2
		c0.2,0.1,0.3,0.4,0.3,0.6c0.4-0.6,1.1-0.8,1.9-0.8c0.9,0,1.7,0.4,2.5,1.2c0.8,0.8,1.2,1.8,1.2,2.9c0,1.1-0.4,2.1-1.2,2.9
		c-0.8,0.8-1.6,1.2-2.5,1.2c-0.9,0-1.5-0.2-1.9-0.7v3.3c0,0.2,0,0.4,0,0.5c0,0.1-0.1,0.3-0.1,0.4c-0.1,0.2-0.2,0.3-0.4,0.3
		c-0.2,0.1-0.5,0.1-0.8,0.1c-0.3,0-0.6,0-0.8-0.1c-0.2-0.1-0.3-0.2-0.4-0.3c-0.1-0.2-0.1-0.3-0.1-0.4
		C816.3,153.8,816.3,153.6,816.3,153.3z M819.5,145.8c-0.2,0.3-0.4,0.6-0.4,1c0,0.3,0.1,0.7,0.4,0.9c0.3,0.3,0.6,0.4,1,0.4
		s0.7-0.1,1-0.4c0.3-0.3,0.4-0.6,0.4-1c0-0.4-0.1-0.7-0.4-1c-0.3-0.3-0.6-0.4-1-0.4C820.1,145.3,819.8,145.5,819.5,145.8z"/>
	<path class="st8" d="M833.9,145.8c0,0.7-0.2,1.1-0.5,1.5c-0.3,0.3-0.7,0.5-1.1,0.5h-3.8c0,0.3,0.2,0.6,0.5,0.8
		c0.4,0.2,0.7,0.3,1.1,0.3c0.6,0,1.1-0.1,1.5-0.2l0.2-0.1c0.3-0.1,0.5-0.2,0.6-0.2c0.3,0,0.6,0.2,0.9,0.7c0.1,0.3,0.2,0.5,0.2,0.7
		c0,1-1.1,1.4-3.4,1.4c-0.8,0-1.5-0.1-2.1-0.4c-0.6-0.3-1.1-0.6-1.4-1.1c-0.7-0.9-1-1.8-1-2.9c0-1.4,0.4-2.4,1.3-3.2
		c0.9-0.8,2-1.2,3.3-1.2c1.5,0,2.6,0.5,3.3,1.6C833.7,144.5,833.9,145.1,833.9,145.8z M830.5,146.3c0.4,0,0.6-0.2,0.6-0.5
		c0-0.2-0.1-0.4-0.3-0.6c-0.2-0.2-0.5-0.2-0.8-0.2c-0.4,0-0.7,0.1-1,0.4c-0.3,0.3-0.5,0.6-0.5,0.9H830.5z"/>
	<path class="st8" d="M840.7,142.6c0.2,0.1,0.4,0.2,0.5,0.3c0.1,0.2,0.2,0.4,0.2,0.7c0,0.3-0.1,0.7-0.3,1.1
		c-0.2,0.4-0.5,0.6-0.9,0.6c-0.2,0-0.4,0-0.6-0.1c-0.2-0.1-0.4-0.1-0.7-0.1c-0.3,0-0.6,0.1-0.8,0.3c-0.3,0.2-0.4,0.5-0.4,0.7v3.4
		c0,0.2,0,0.4,0,0.6c0,0.1-0.1,0.3-0.2,0.4c-0.2,0.3-0.6,0.4-1.3,0.4c-0.5,0-0.9-0.1-1.1-0.3c-0.2-0.2-0.3-0.4-0.3-0.7
		c0-0.1,0-0.3,0-0.5V144c0-0.2,0-0.4,0-0.6s0.1-0.3,0.1-0.4c0.2-0.3,0.6-0.4,1.3-0.4c0.6,0,1,0.1,1.2,0.4c0.1,0.2,0.2,0.3,0.2,0.5
		c0.1-0.1,0.1-0.2,0.2-0.3c0.1-0.1,0.3-0.3,0.7-0.4c0.3-0.2,0.6-0.3,0.9-0.3c0.3,0,0.5,0,0.6,0C840.3,142.5,840.5,142.6,840.7,142.6
		z"/>
	<path d="M850,140c0-0.7,0.2-1.2,0.5-1.3c0.2-0.1,0.4-0.1,0.6-0.1c0.3,0,0.5,0,0.6,0.1c0.2,0.1,0.3,0.2,0.3,0.3
		c0.1,0.2,0.1,0.5,0.1,1v13.4c0,0.7-0.2,1.2-0.5,1.3c-0.2,0.1-0.4,0.1-0.6,0.1c-0.3,0-0.5,0-0.6-0.1s-0.3-0.2-0.3-0.3
		c-0.1-0.2-0.1-0.5-0.1-1V140z"/>
	<path class="st8" d="M864.6,139c0.1-0.2,0.2-0.3,0.4-0.3c0.2-0.1,0.5-0.1,0.8-0.1c0.3,0,0.6,0,0.8,0.1c0.2,0.1,0.3,0.2,0.4,0.3
		c0.1,0.2,0.1,0.3,0.1,0.4c0,0.1,0,0.3,0,0.6v9.6c0,0.2,0,0.4,0,0.6c0,0.1-0.1,0.3-0.2,0.4c-0.2,0.3-0.6,0.4-1.4,0.4
		s-1.2-0.3-1.2-0.8c-0.5,0.5-1.1,0.8-1.9,0.8c-1,0-1.8-0.4-2.6-1.3s-1.2-1.8-1.2-3c0-1.1,0.4-2.1,1.2-3c0.8-0.8,1.7-1.3,2.6-1.3
		c0.8,0,1.4,0.3,1.9,0.8V140c0-0.2,0-0.4,0-0.6C864.5,139.3,864.5,139.2,864.6,139z M862,147.8c0.3,0.3,0.6,0.4,1,0.4s0.7-0.1,1-0.4
		c0.3-0.3,0.4-0.6,0.4-1c0-0.3-0.1-0.7-0.4-1c-0.3-0.3-0.6-0.5-1-0.5c-0.4,0-0.8,0.1-1,0.4c-0.3,0.3-0.4,0.6-0.4,1
		C861.5,147.2,861.7,147.5,862,147.8z"/>
	<path class="st8" d="M876.7,145.8c0,0.7-0.2,1.1-0.5,1.5c-0.3,0.3-0.7,0.5-1.1,0.5h-3.8c0,0.3,0.2,0.6,0.5,0.8
		c0.4,0.2,0.7,0.3,1.1,0.3c0.6,0,1.1-0.1,1.5-0.2l0.2-0.1c0.3-0.1,0.5-0.2,0.6-0.2c0.3,0,0.6,0.2,0.9,0.7c0.1,0.3,0.2,0.5,0.2,0.7
		c0,1-1.1,1.4-3.4,1.4c-0.8,0-1.5-0.1-2.1-0.4c-0.6-0.3-1.1-0.6-1.4-1.1c-0.7-0.9-1-1.8-1-2.9c0-1.4,0.4-2.4,1.3-3.2
		c0.9-0.8,2-1.2,3.3-1.2c1.5,0,2.6,0.5,3.3,1.6C876.5,144.5,876.7,145.1,876.7,145.8z M873.3,146.3c0.4,0,0.6-0.2,0.6-0.5
		c0-0.2-0.1-0.4-0.3-0.6c-0.2-0.2-0.5-0.2-0.8-0.2c-0.4,0-0.7,0.1-1,0.4c-0.3,0.3-0.5,0.6-0.5,0.9H873.3z"/>
	<path class="st8" d="M877.8,150.3c-0.2-0.1-0.3-0.3-0.3-0.6s0.2-0.7,0.6-1.3c0.1-0.2,0.3-0.3,0.6-0.3c0.3,0,0.6,0.1,1.1,0.4
		c0.5,0.3,0.9,0.4,1.2,0.4c0.7,0,1-0.1,1-0.4c0-0.2-0.4-0.4-1.1-0.5c-0.7-0.1-1.3-0.3-2-0.8c-0.3-0.2-0.6-0.5-0.8-0.9
		c-0.2-0.4-0.3-0.9-0.3-1.5c0-1.7,1.2-2.5,3.5-2.5c0.8,0,1.5,0.2,2.4,0.5c0.4,0.2,0.6,0.4,0.6,0.6c0,0.3-0.1,0.6-0.4,1
		c-0.2,0.4-0.5,0.6-0.7,0.6c-0.1,0-0.4-0.1-0.7-0.2c-0.3-0.2-0.7-0.2-1.1-0.2c-0.6,0-1,0.1-1,0.4c0,0.3,0.4,0.5,1.1,0.6
		c0.7,0.1,1.4,0.3,2.1,0.6c0.3,0.2,0.6,0.4,0.8,0.8c0.2,0.4,0.3,0.8,0.3,1.4s-0.1,1-0.3,1.4c-0.2,0.4-0.5,0.7-0.9,0.9
		c-0.7,0.3-1.5,0.5-2.6,0.5C879.8,151.2,878.8,150.9,877.8,150.3z"/>
	<path class="st8" d="M888.3,141c-0.1,0.2-0.2,0.3-0.4,0.3c-0.2,0.1-0.5,0.1-0.8,0.1c-0.3,0-0.6,0-0.8-0.1s-0.3-0.2-0.4-0.3
		c-0.1-0.2-0.1-0.3-0.1-0.4c0-0.1,0-0.3,0-0.6c0-0.2,0-0.4,0-0.6c0-0.1,0.1-0.3,0.1-0.4c0.2-0.3,0.6-0.4,1.3-0.4
		c0.7,0,1.1,0.1,1.2,0.4c0.1,0.2,0.1,0.3,0.2,0.4c0,0.1,0,0.3,0,0.6c0,0.2,0,0.4,0,0.6C888.4,140.7,888.4,140.8,888.3,141z
		 M885.6,144c0-0.2,0-0.4,0-0.6c0-0.1,0.1-0.3,0.1-0.4c0.2-0.3,0.6-0.4,1.3-0.4c0.5,0,0.9,0.1,1.1,0.3c0.2,0.2,0.3,0.4,0.3,0.7
		c0,0.1,0,0.3,0,0.5v5.6c0,0.2,0,0.4,0,0.6c0,0.1-0.1,0.3-0.2,0.4c-0.1,0.3-0.6,0.4-1.2,0.4c-0.7,0-1.1-0.1-1.2-0.4
		c-0.1-0.2-0.1-0.3-0.1-0.4c0-0.1,0-0.3,0-0.6V144z"/>
	<path class="st8" d="M895.1,150c-0.4,0.5-1.1,0.8-2,0.8c-0.9,0-1.7-0.4-2.5-1.2c-0.8-0.8-1.2-1.8-1.2-2.9s0.4-2.1,1.2-2.9
		s1.6-1.2,2.6-1.2c0.4,0,0.7,0.1,1,0.2c0.3,0.1,0.5,0.3,0.6,0.4c0.1,0.1,0.2,0.2,0.3,0.3c0-0.3,0.1-0.5,0.3-0.7
		c0.2-0.2,0.5-0.2,0.9-0.2c0.4,0,0.7,0,0.9,0.1c0.2,0.1,0.3,0.2,0.4,0.3c0.1,0.2,0.1,0.3,0.1,0.4c0,0.1,0,0.3,0,0.5v6.7
		c0,1.2-0.4,2.2-1.3,3c-0.9,0.8-1.8,1.1-2.9,1.1c-0.8,0-1.6-0.2-2.3-0.6c-0.7-0.4-1.1-0.8-1.1-1.1c0-0.4,0.2-0.8,0.5-1.1
		c0.2-0.2,0.4-0.4,0.5-0.5c0.1-0.1,0.2-0.1,0.4-0.1c0.1,0,0.3,0.1,0.5,0.2c0.5,0.4,1.1,0.6,1.7,0.6c0.4,0,0.7-0.2,1-0.5
		c0.3-0.3,0.4-0.7,0.4-1.2V150z M892.3,146.7c0,0.3,0.1,0.7,0.4,0.9c0.3,0.3,0.6,0.4,1,0.4s0.7-0.1,1-0.4c0.3-0.3,0.4-0.6,0.4-0.9
		c0-0.3-0.1-0.7-0.4-1c-0.2-0.3-0.6-0.4-1-0.4c-0.4,0-0.8,0.1-1,0.4C892.4,146,892.3,146.3,892.3,146.7z"/>
	<path class="st8" d="M903.9,142.5c1.1,0,2,0.4,2.7,1.2c0.7,0.8,1.1,1.8,1.1,3v2.8c0,0.2,0,0.4,0,0.6c0,0.1-0.1,0.3-0.1,0.4
		c-0.2,0.3-0.6,0.4-1.3,0.4c-0.8,0-1.2-0.2-1.3-0.6c-0.1-0.2-0.1-0.5-0.1-0.8v-2.8c0-0.4-0.1-0.8-0.4-1c-0.3-0.2-0.6-0.4-1-0.4
		c-0.4,0-0.8,0.1-1,0.4c-0.3,0.3-0.4,0.6-0.4,1v2.9c0,0.2,0,0.4,0,0.6c0,0.1-0.1,0.3-0.2,0.4c-0.1,0.3-0.6,0.4-1.2,0.4
		c-0.7,0-1.1-0.1-1.2-0.4c-0.1-0.2-0.1-0.3-0.1-0.4c0-0.1,0-0.3,0-0.6v-5.7c0-0.2,0-0.4,0-0.5c0-0.1,0.1-0.3,0.2-0.4
		c0.1-0.3,0.6-0.4,1.2-0.4c0.7,0,1.1,0.1,1.2,0.4c0.1,0.2,0.2,0.4,0.2,0.7c0-0.1,0.1-0.2,0.3-0.3c0.1-0.1,0.3-0.3,0.4-0.3
		C903.1,142.7,903.5,142.5,903.9,142.5z"/>
	<path class="st8" d="M917.1,145.8c0,0.7-0.2,1.1-0.5,1.5c-0.3,0.3-0.7,0.5-1.1,0.5h-3.8c0,0.3,0.2,0.6,0.5,0.8
		c0.4,0.2,0.7,0.3,1.1,0.3c0.6,0,1.1-0.1,1.5-0.2l0.2-0.1c0.3-0.1,0.5-0.2,0.6-0.2c0.3,0,0.6,0.2,0.9,0.7c0.1,0.3,0.2,0.5,0.2,0.7
		c0,1-1.1,1.4-3.4,1.4c-0.8,0-1.5-0.1-2.1-0.4c-0.6-0.3-1.1-0.6-1.4-1.1c-0.7-0.9-1-1.8-1-2.9c0-1.4,0.4-2.4,1.3-3.2
		c0.9-0.8,2-1.2,3.3-1.2c1.5,0,2.6,0.5,3.3,1.6C917,144.5,917.1,145.1,917.1,145.8z M913.7,146.3c0.4,0,0.6-0.2,0.6-0.5
		c0-0.2-0.1-0.4-0.3-0.6c-0.2-0.2-0.5-0.2-0.8-0.2c-0.4,0-0.7,0.1-1,0.4c-0.3,0.3-0.5,0.6-0.5,0.9H913.7z"/>
	<path class="st8" d="M924,142.6c0.2,0.1,0.4,0.2,0.5,0.3c0.1,0.2,0.2,0.4,0.2,0.7c0,0.3-0.1,0.7-0.3,1.1c-0.2,0.4-0.5,0.6-0.9,0.6
		c-0.2,0-0.4,0-0.6-0.1c-0.2-0.1-0.4-0.1-0.7-0.1c-0.3,0-0.6,0.1-0.8,0.3c-0.3,0.2-0.4,0.5-0.4,0.7v3.4c0,0.2,0,0.4,0,0.6
		c0,0.1-0.1,0.3-0.2,0.4c-0.2,0.3-0.6,0.4-1.3,0.4c-0.5,0-0.9-0.1-1.1-0.3c-0.2-0.2-0.3-0.4-0.3-0.7c0-0.1,0-0.3,0-0.5V144
		c0-0.2,0-0.4,0-0.6s0.1-0.3,0.1-0.4c0.2-0.3,0.6-0.4,1.3-0.4c0.6,0,1,0.1,1.2,0.4c0.1,0.2,0.2,0.3,0.2,0.5c0.1-0.1,0.1-0.2,0.2-0.3
		c0.1-0.1,0.3-0.3,0.7-0.4c0.3-0.2,0.6-0.3,0.9-0.3c0.3,0,0.5,0,0.6,0C923.6,142.5,923.8,142.6,924,142.6z"/>
</g>
<g>
	<g>
		<path class="st2" d="M884.7,98.4"/>
	</g>
	<g>
		<path class="st2" d="M884.7,95.7"/>
	</g>
	<g>
		<path class="st2" d="M884.7,93"/>
	</g>
	<g>
		<path class="st2" d="M884.7,90.3"/>
	</g>
</g>
</svg>
