<svg id="Layer_1" data-name="Layer 1" xmlns="http://www.w3.org/2000/svg" xmlns:xlink="http://www.w3.org/1999/xlink" viewBox="0 0 1277.48 1020.69"><defs><style>.cls-1,.cls-17{fill:none;}.cls-2{fill:#ffc500;}.cls-3{fill:#070165;}.cls-4{fill:#e0dcd3;}.cls-5{fill:#898989;}.cls-6{fill:#b7b7b7;}.cls-7{fill:#9e9e9e;}.cls-8{fill:#a5a5a5;}.cls-9{fill:#b5b5b5;}.cls-10{fill:#d3d3d3;}.cls-11{opacity:0.76;}.cls-12{fill:#e5e5e5;}.cls-13{fill:url(#New_Pattern_Swatch_1);}.cls-14{fill:url(#New_Pattern_2);}.cls-15{font-size:18.57px;font-family:OratorStd, Orator Std;}.cls-15,.cls-16{fill:#3f3f3f;}.cls-17{stroke:#fff;stroke-miterlimit:10;stroke-width:0.5px;}</style><pattern id="New_Pattern_Swatch_1" data-name="New Pattern Swatch 1" width="40.42" height="45.14" patternTransform="translate(154.6 75.28) scale(0.31 0.33)" patternUnits="userSpaceOnUse" viewBox="0 0 40.42 45.14"><rect class="cls-1" width="40.42" height="45.14"/><circle class="cls-3" cx="28.9" cy="47.74" r="8.69"/><circle class="cls-3" cx="8.69" cy="25.17" r="8.69"/><circle class="cls-3" cx="28.9" cy="2.6" r="8.69"/></pattern><pattern id="New_Pattern_2" data-name="New Pattern 2" width="62.37" height="53.77" patternTransform="matrix(0.51, 0.34, -0.32, 0.47, 124.3, 88.61)" patternUnits="userSpaceOnUse" viewBox="0 0 62.37 53.77"><rect class="cls-1" width="62.37" height="53.77"/><rect class="cls-2" y="47.05" width="62.37" height="6.97"/><rect class="cls-2" y="33.61" width="62.37" height="6.97"/><rect class="cls-2" y="20.16" width="62.37" height="6.97"/><rect class="cls-2" y="6.72" width="62.37" height="6.97"/><rect class="cls-2" y="-6.72" width="62.37" height="6.97"/></pattern></defs><title>backgroundArtworkfinal</title><rect class="cls-4" width="1277.48" height="1020.69"/><path class="cls-5" d="M869.66,973.57l.77,5.45c-4.56.34-8.93.67-13.3,1-.47,0-1-.28-1.42-.18-12.86,2.83-24.5-2.87-36.6-5.28a30,30,0,0,1-9.21-3.38c1.26-.13,2.52-.28,3.78-.4a37.59,37.59,0,0,1,5.46-.4c1.61.09,3.93.14,4.65,1.14,3,4.17,6.2,3.14,10.27,1.81,3.08-1,6.92-3.76,10.19.51.5.66,2.42.34,3.67.29,4-.16,7.84-2.3,12.12,1C861.75,976.5,866.26,974.23,869.66,973.57Z" transform="translate(-2.52 -3.31)"/><path class="cls-5" d="M805.82,410.08c.52,1,1.05,2,1.56,3,2,4,4.43,7.69-.12,11.91-1.94,1.8-2.6,5-4,7.92-3.18.33-7.69-1.58-9.75,3.63-.22.55-3.58.51-5-.2a35.45,35.45,0,0,1-8.31-5.56c-3-2.77-5.93-3.85-10-3.05-1,.2-3-1.67-3.63-3-2.08-4.2-4.19-3.08-7.13-.89a12.9,12.9,0,0,1-6.64,2.53c-7.09.35-14.2.26-21.3.2-6.56-.06-12.53,1.34-17.77,5.6-1.55,1.26-3.78,1.68-5.5,2.73-.85-2-.78-6-.6-10.62.23-6.06,5.21-10.22,4.56-16.85-.34-3.54,1.89-10.27,8.63-11.1,1.6-.2,3.07-1.53,4.83-2.47,4.27,5.08,8.11,10.32,12.7,14.78,1.78,1.72,6.29,3.18,7.77,2.16,3.65-2.53,8.53-5.15,7.57-11.08-.53-3.28-2.08-6.56-1.87-9.75a9.48,9.48,0,0,1,4-6.37c5.34-3.41,13.86-2,18.78,2.25,1.57,1.37,3.07,3,4.9,3.83a7.27,7.27,0,0,0,5.07.35c7.27-2.74,13,.16,15,7.92,1,4.13,1,8.78,5.88,10.83Z" transform="translate(-2.52 -3.31)"/><path class="cls-6" d="M1038.1,605.06l5.43-4.93c.12,2.55.63,4.1.17,5.27-3.09,7.86-7.55,14.5-16.15,17.32-1,.31-2.38,2.12-2.19,2.45a10.15,10.15,0,0,0,3.33,3.79,64.81,64.81,0,0,0,7.44,3.31c-1,2.33-2.19,4.6-3,7a29.19,29.19,0,0,0-.81,5.19c-.37,2.63-.31,5.4-1.15,7.87-2.42,7.16-2.56,7.05-10.06,6.7-1.1-.05-2.23.73-3.35,1.13l1.39,2.72c-1,1.59-3,3.45-2.65,4.57,1,3.11,3.52.83,5.48,1,2.88.24,6.69,1.3,8.15,3.38,1.58,2.24,2.89,2.71,5.22,3,7,.88,14,2.08,20.94,3,1.86.26,3.78.07,5.66.23a14.39,14.39,0,0,1,4.54.77c3.61,1.6,7.13,3.42,10.64,5.26,6.86,3.59,13.55,7.55,20.59,10.71a16.29,16.29,0,0,0,9.27.73c4.1-.81,7.62-.83,10.78,2.16.34.33.79.76,1.2.77,8.95.17,11.62,7.41,15.3,13.51a2.67,2.67,0,0,0,.52.81c3.51,2.58,5.3,5.6,3.53,10.15-1.38,3.55-1.26,7.49-4.43,10.55-4.82,4.65-8.78,10.2-13.62,14.84-4.25,4.07-9.73,4-15.39,3.18-2.21-.33-4.84.85-7,1.9-1.82.89-3.31,2.52-4.83,3.95-7.28,6.82-15.6,8.37-24.38,5.7-1.76.23-3.67.08-5.24.76-5,2.15-9.42-1.19-14.1-1.11-1.76,0-3.48,1.9-6.32,3.59a45.31,45.31,0,0,1-4.87-5.1c-2.36-3.23-5.38-4.06-9.13-2-7.22,4-9.67,3.34-14.66-3.21-1-1.32-3.13-1.8-4.74-2.67l.26,1.52c-2.53,1.76-4.83,4.36-7.63,5.09-6.33,1.67-12.91,2.41-19.39,3.53-.16,0-.32,0-.48,0-4,.32-18.53,10.79-19.87,14.37l-9.09,8.29c-3.39,3.64-7.27,6.94-10,11-2.15,3.2-4.76,4.71-8,4-10.73-2.34-21,1.36-31.47,1.9a40.1,40.1,0,0,1-23.73-6,3.64,3.64,0,0,1-1.66-2.28,17.71,17.71,0,0,0-7.13-13.22c-2-1.57-3.62-3.76-5.58-5.86l5.62-6.78c-.6-3.83-3.34-9.22.36-14.25,1.29-1.76,3.42-3.87,5.3-4,4-.31,3.74-2.22,3.5-5.14-.72-8.53-3.4-17-.24-25.65.43-1.17-.25-2.74-.44-4.29,3.75-1.88,7.8-3.8,11.71-6,.77-.43,1.27-1.87,1.37-2.9a81.39,81.39,0,0,0,.65-10.82c0-1.38-1.28-2.79-2.17-4a24.62,24.62,0,0,0-2.49-2.7c8.12-7.28,14.24-15,15.54-25.63.17-1.4.91-3.57,1.9-3.91,7.78-2.72,15.17-7.25,24.18-5.2L920.82,657c.89,1.69,1.68,3.22,2.5,4.73.22.4.57,1.06.85,1.06,5.55,0,10.7,4.73,16.64,1,4.54-2.84,9.86-2.83,15-2.4.93.08,1.76,1.45,2.2,1.83l-18.64,18.94c2.48,1.09,3.53,1.86,4.66,2,5.05.64,10.16.92,15.18,1.74,1.34.22,3.29,1.78,3.47,3,.49,3.16.17,6.44.17,10,2.12,1,4.19,2.27,6.41,3.11,3.52,1.34,7.67-.53,9.53-3.76,2-3.42,4.16-6.71,6.26-10.05l-.18.14c6.76-.9,10.42-5.22,12.92-11.16.46-1.1,2.89-2.37,3.94-2,5.62,1.76,9.52-.88,12.11-3.11l1-10.05c-4.35-2.69-7.63-2.28-10.72,1.58-.36.45-.83,1.28-1.15,1.24-4.17-.62-5.42,2.9-7.52,5.19l.21-.18-7.84.78c.57-4.27-2-5.34-4.69-7.43-6-4.63-12.61-5.15-19.51-5.56a3.13,3.13,0,0,1-1.17-.36c1.65-1.14,3.31-3.07,5.25-3.41s4,1,7.17,2c3.2-3.77,7.11-8.4,11.06-13a14.4,14.4,0,0,1,2.17-1.91c1.79-1.39,4.05-2.41,5.33-4.17,1.9-2.62,3.49-3.42,6.06,0,1-1.87,1.71-3.23,2.53-4.51a15.08,15.08,0,0,1,2.51-3.3c2-1.79,4.34-3.3,6.43-5.06,2.91-2.45,7-3.82,7.5-8.53.06-.56,1.47-1.2,2.35-1.43,4-1.06,8.28-1.52,12-3.15C1035.07,609.74,1036.41,607,1038.1,605.06Z" transform="translate(-2.52 -3.31)"/><path class="cls-7" d="M985.09,688.14c-2.26,2.66-5.16,5-6.64,8-2,4.14-4.8,5.1-8.88,4.4-5.07-.87-5.12-5.08-5.29-8.62-.3-6.09-.88-6.88-6.84-7.6-4.88-.59-9.7-1.67-15.83-2.77l18.76-18.11c-.94-1-2-3.25-3.49-3.57-3-.64-6.49-1.08-9.26-.11-6.58,2.32-12.77,6.12-19.91,1.84-.53-.32-1.48,0-2.29.1-.25-3.92,1.68-5.29,5-5.57.82-.07,1.56-1.18,2.33-1.81-.88-.71-1.7-1.93-2.65-2-9.2-1.1-17.11,3.25-25.22,6.51-1.08.44-1.69,2.88-1.92,4.47-1,7.13-3.51,13.41-9.06,18.33-1.34,1.19-2.08,3.05-3.29,4.9l-2.32-2.84c-3.42,5.65,2.23,8.42,3.83,12.76-4.46-4.53-8.16-3.73-12.08.22-1.85,1.86-4.34,3.83-6.76,4.18-2.6.37-5.46-1.11-7.84-1.69,4.15-10.38,11.65-18.54,7.65-29.29,5.9,0,11.19.19,16.45-.14,1.27-.08,2.87-1.63,3.48-2.91.32-.67-1.15-2.21-1.84-3.35s-1.39-2.33-2.16-3.45c-1-1.38-1.71-3.16-3-4-4.05-2.46-6.81-6.2-7.14-10.44-2-.85-4.39-1.28-5.91-2.63a7.43,7.43,0,0,1-2.18-5.07c.06-5.47-1.11-7.44-6.24-8.64-4.79-1.12-9.6-2.16-14.39-3.27a4.69,4.69,0,0,1-2.17-.89c-5-4.9-10.14-2.55-15.92-1.29-5.59,1.22-8.15,6.42-13.29,7.61A2.55,2.55,0,0,0,817.1,633c-1,5.89-6.06,6.07-10.19,7.24-3.46,1-6.8,1.46-8.42,5.45-.37.92-4,1.74-4.27,1.3-4.26-5.83-10.15-2.87-15.42-3.23-4.55-.32-9.08-.9-13.63-1.31-.92-.08-2.33-.31-2.71.17-2.32,2.91-4.3.66-6.27-.29a52.58,52.58,0,0,1-7.77-4.26c-2.34-1.66-4.35-3.59-2.37-7.16,1.57-2.83,1.93-6.34,3.54-9.14,1-1.7,3.33-2.62,5.36-4.11-.92-2.82-2.22-6.33-3.18-9.94a5.4,5.4,0,0,1,.43-3.94c3.56-5.31,7.64-10.29,11-15.74,2-3.34,4-6.26,7.69-8,.85-.4.5-3.74.36-5.7-.13-1.76-.75-3.49-.6-5.4-3.32-5.17-8.2-9.49-9.44-16.21-.45-2.41.08-3.51,2.59-3,4.36.87,5.7-2.3,7.51-5.19a7.24,7.24,0,0,1,3.85-3.12c6.14-1.48,12.34-3.17,18.6-3.6,5.47-.38,11.05.81,16.58,1.35,2.83.28,5.54-.34,8.2,2.37,1.73,1.76,5.69,1.49,8.68,1.72.67.05,1.38-2.25,2.24-2.39,3.38-.54,7.48-1.94,10.09-.61,4.22,2.14,5.76.86,7.34-2.57.17-.37.73-.55,1.09-.81,5,3.74,5,3.58,14.06,1.68,2.19-.46,4.67.46,7,.82,1.85.29,3.69.69,5,.95-.39-4.67-1.4-8.58-.89-12.27,1.32-9.43,4-11.22,13.49-11.85a20,20,0,0,0,8.62-2.76c1.26-.75,1.36-3.44,2.22-5.92.73.15,2.21.49,3.7.72,3,.47,5.6.38,7-3.29,1.67-4.53,8.46-5.48,11.73-2a35.68,35.68,0,0,0,5,4.49,59.51,59.51,0,0,0,5.68,3.29l-2.71,4.81c1.32,3.51,2,6.33,3.43,8.72.67,1.12,3.11,2.36,4.08,2,8.7-3.64,14,.28,18,7.53,1.23,2.22,2.46,4.45,3.62,6.71,2.16,4.22,4.4,4.47,7.58,1.1.92-1,3-2.15,3.76-1.74,6.68,3.82,11.48-.39,16.14-3.84,3.62-2.68,6.09-2.94,9.59.25a13.46,13.46,0,0,0,8.22,3.13c10.07.13,20.15-.41,30.23-.58a37.6,37.6,0,0,1,5.7.84c-3.32,4.39.37,4.72,2.58,5.58,1.82,3.73-8.28,8.64.19,10.6,0,2.34-.58,4.42.11,5.9a80.86,80.86,0,0,0,6.24,10.69c2.33,3.44.29,9.66-4,11.51a3.62,3.62,0,0,1-.94.21c-6,.79-9.77,3.84-13.19,9.15-3.64,5.65-2.38,10.61-1.45,16.08a6.22,6.22,0,0,1-.37,1.56,42.78,42.78,0,0,0-5.16,1.08c-1.63.53-3.94,1.06-4.54,2.29-3.18,6.53-8.89,10.13-14.6,13.93-1.44,1-2.12,3-2.37,3.43-3.16,1.37-6.35,1.72-7.28,3.35-2.18,3.84-5.15,5-7.46,4.86l-11.62,14.45c-3.62-2.06-6.7-3.72-10,.19-.89,1.05-3.45.69-5.27,1,.88,3.28,3.11,4.56,7.59,4.06s8.53-.58,11.74,3.34a5.9,5.9,0,0,0,3.74,1.87c4.23.34,5.27,2.34,3.3,6.5,3.87.28,7.4,2.06,10.37-1.47l-.21.18c3.24-1.77,7.16-2.9,9.56-5.47,2.85-3,5.16-3.48,8.35-1.83-.52,2-1.57,3.81-1.27,5.34,1,4.76-2.26,5.36-5.44,5.91a19.21,19.21,0,0,1-4.75-.24c-2.75-.23-5.19-.12-5.66,3.48a4.32,4.32,0,0,1-1.33,2.43c-3.31,3-6.71,5.82-10.09,8.72Z" transform="translate(-2.52 -3.31)"/><path class="cls-5" d="M656.17,267.56c-3.9,2.93-6.66,5.93-6.45,11.71.25,6.78-1.67,13.62-2,20.46a93.76,93.76,0,0,0,.77,16.37c.28,2.26,1.78,4.6,3.29,6.43,2.63,3.17,2.82,3,6.31,1.83,4.15,4.3,8.13,8.65,12.36,12.74,3.56,3.44,2.94,9.19-1.7,10-5.05.93-4.32,5.92-7.35,8.4l2.55,2.32c-1.05,1.7-2.28,3.05-2.8,4.64-1,3-2.53,4.58-6,4.18a4.69,4.69,0,0,0-3.51,1.75c-3.5,4.58-6.76,9.35-9.92,13.79,2.93,5.35,2.17,9.46-2,13.59.81,1.87,2,3.7,2.32,5.66.29,1.75-.28,3.69-.68,5.5-.54,2.42-2,4.87-1.8,7.17.9,8.67-3,16-6.12,23.47a3.55,3.55,0,0,1-3.08,1.47c-7.17-1.74-13.33,1.09-19.49,4-3.32,1.56-4.86,3.93-3.52,7.79.71,2,.8,4.31,1.3,7.19-5.14.3-9.72.81-14.29.77-3.05,0-4.33-2-4.09-5.19a14.61,14.61,0,0,0-.64-6.53c-2.31-5.5-3.36-10.58.5-16,.94-1.32.39-4.62-.65-6.27-4.09-6.49-9.07-12.45-12.85-19.11-1.67-2.95-.89-7.19-1.89-10.65a141,141,0,0,0-5.83-16.71c-2.54-5.9-.95-11.27,1-17.32a15,15,0,0,0,1.15,3.12,36.41,36.41,0,0,0,2.81,3.25c1-1.62,2.84-3.19,3-4.87.22-3-1.16-6.11-.82-9.06.57-5.06.36-10.68,7.07-12.81,3.5-1.11,6.58-12.28,5.05-16.6-.8-2.26-2.25-4.3-2.9-6.59a10.22,10.22,0,0,1-.21-5.86c.25-.69,3.2-.42,5.31-.63,3.86-6.1,4.08-9.17.58-12.38-.1-.3-.12-.8-.32-.88-6.61-2.88-4.6-8.62-4.76-13.76-.14-4.51-.93-9-1.15-13.51-.18-3.63.07-7.27.12-10.91a13.57,13.57,0,0,0-.08-3.78c-2.61-9.11,3.12-15.19,7.9-21.47,3-4,7.86-2.84,12.12-3.27,2-.2,5.56-.91,5.62-1.64a23.61,23.61,0,0,0-1.08-9.11c-.45-1.41-2.54-2.29-4.38-3.82,2-3.28,4.52-6.56,6.1-10.24a56.24,56.24,0,0,0,3.75-12.71,69.69,69.69,0,0,0,.52-12.44c0-4.06,1.13-6.77,5.66-7.32,2.66-.32,3.41-2.08,4.11-4.87,1.08-4.31,2.73-9.66,6-12,5.6-4,4.43-8.22,2.49-12.56-1.53-3.43-1.07-5.48,1.41-8,1.24-1.25,1.75-3.36,2.27-5.18,2.23-7.84,5.39-9.3,13.44-5,.42-2.67.92-5,1.1-7.31s0-4.76,0-8c5.78.62,11.16,1,16.43,1.87,3.35.58,4.36-1.5,4.34-3.64-.05-4.83-.77-9.65-1.23-14.65,2.68-.9,4.23-1.41,5.9,1.82,1.49,2.87,4.48,5.3,7.34,7.05,5.57,3.41,12.25,5.37,17,9.57,3.17,2.79,4.26,8.31,5.5,12.83.87,3.19-.94,7.09,3.08,9.4.61.35.35,2.11.63,3.19.9,3.49,1.89,7,2.8,10.46.28,1.06.81,2.24.58,3.21a28.92,28.92,0,0,0,3.27,21.85,22.73,22.73,0,0,1,1.24,3.73c-4.68.8-9.06,1.33-13.32,2.37-1.57.39-2.9,1.91-4.24,3-2.91,2.47-2,7.68-6.45,9.14a2.39,2.39,0,0,0-1.16,2c.51,5-1.54,9.16-3.73,13.51-.75,1.5.74,5,2.27,6.58,3.37,3.48,3.51,4.62.08,8.08a12.13,12.13,0,0,0-3.32,5.88,16.63,16.63,0,0,1-8.44,12c-4.26,2.58-7.52,6.78-11.66,9.61C662.15,254.16,660.56,261.79,656.17,267.56Z" transform="translate(-2.52 -3.31)"/><path class="cls-5" d="M581.95,648.52c-.34,1.44-1.27,3.07-.89,4.28.92,3,2.59,5.66,3.66,8.58.31.84-.37,2-.78,4-4.43-7.14-10.1-5.51-16.24-4.42-5.1.91-9.94,1.53-14.33,4.68-1.11.8-3.78-.24-5.59-.85a29.47,29.47,0,0,1-4.52-2.57c-2.82-1.58-4.92-1.81-5,2.44,0,.8-1,1.58-1.8,2.86l-5.14-4.7c-.47-.43-.88-1.06-1.44-1.25-5.39-1.8-10.81-3.48-16.2-5.28-1.48-.49-2.85-1.31-4.31-1.86s-3.41-1.78-4.46-1.28c-1.27.61-1.84,2.71-2.69,4.14H489c-1.9-7-.79-9.78,14.07-35.54-2.51-.69-5.72-.58-7.09-2.12-4.38-4.9-10.81-3.57-15.82-6.16a7.5,7.5,0,0,1-2.87-3.19c-1.07-2.09-1.77-4.38-2.82-7.07,2.25-2.48,3.93-4.94-.64-8.34-3.74-2.79-2.6-6.24.87-9.66A6.66,6.66,0,0,0,476,579.4c-1.42-3.94-4.34-7.34-3.24-12,.18-.75-1-1.82-1.55-2.73,4.41-2.21,4.41-2.21,3.34-20.4,3.15,0,6.29.11,9.41,0,2.15-.1,4.74.26,4.25-3.53-.12-.92,1.46-2.26,2.5-3.12,4.08-3.36,4-6.05-.29-8.92-.86-.58-1.06-2.15-1.31-2.71,2.13-.89,4.74-1.22,5-2.21,1.78-6.2,7.41-12,2.64-19.41,1.89-4.65,9-8,13.59-5.79,1.07.52,1.27,2.81,1.87,4.28s1.13,2.83,1.69,4.24l3.55-3.42c1.31.21,3.58,1.27,3.11-2.92-.35-3.16.63-3.43,8.51-4.31l-5-14,4.36-1.56-4.27-8.52c.68-4.2,3.52-3.78,7.17-2.28a22,22,0,0,0,6.31,1c4.93.44,6.58,4.24,3.87,10.89,3,.73,5.86,1.36,8.69,2.14s5.89,1.76,9.62,2.88L554.78,494l9.9,2.79-.4-1.3c3.33-1.2,6.69-2.32,10-3.64,2-.81,4.3-1.52,5.75-3,2.69-2.71,5.84-3.12,9.16-2.64,3.81.54,5-1.06,4.2-6l6,4.89c-2.07,1.67-4.15,2.54-4.47,3.84-.26,1.06,1.28,3.21,2.55,3.88,5.19,2.76,10.58,5.14,16,8.45-5.53,1.92-4.25,5.54-3.72,9,.61,4,.87,7.86-2.25,11.33-3.51,3.9.13,6.55,2.52,8.83,1.86,1.78,3.58,3,2.14,5.86a3.16,3.16,0,0,0,.33,2.79c3.19,4,2.43,8,1.46,12.61-.61,2.92.56,6.8,2.2,9.48,4,6.53,4.22,9.73.4,15.09l-8.58-3.36v3.7L597.37,582l.18-.13-23.21,10-2.67-1.16-1.3.94c1.72,3.14,3.47,6.26,5.13,9.43a12.62,12.62,0,0,1,1.32,3.49c.3,1.64.2,3.34.42,5,.91,7,7.62,8.82,11.61,13.08l-.19-.13c2.46,2.1,3.19,6,7.71,6.2,1.12.05,2,4.76,3.32,8.1-5,0-8,.65-8.29,5.23-.05.93-2.38,1.71-3.65,2.58-2,1.37-4,2.76-5.95,4.14Z" transform="translate(-2.52 -3.31)"/><path class="cls-6" d="M706.73,246.61c1.15-2.52,2.48-5,3.41-7.57,2.83-7.94,11.16-11.65,14.47-19.28,2.45-5.64,5.55-11,8.37-16.49,6.72-3.6,6.38-3.63,4.93-11.32-1.4-7.43-5.21-12.09-12.41-14.27-2.19-.66-5.31-1.48-6.06-3.12-2.15-4.73-5.33-10.32-4.43-14.84,1.76-8.79-4-16.08-2.83-24.37-6.09-4.45-2.54-11.92-5.44-17.48-1.85-3.56-3.66-6.15-7.59-8a120.55,120.55,0,0,1-18.74-11.25c-3.06-2.19-1.9-9.28,1.35-11a3.64,3.64,0,0,1,3.4.47c2.38,2.54,5,5.12,6.48,8.18,2.46,5,11.65,7.53,15.53,3.23,3.39-3.76,5.74-2,8.55.24,1.15.9,2.46,1.6,3.7,2.38.61-1.4,1.23-2.8,1.84-4.2.5-1.17.67-2.85,1.55-3.42,4.76-3.09,3.45-7.47,2.78-11.71-1-6.65-1-13.07,3.53-18.62A7.88,7.88,0,0,1,732,62.43c1.75-.79,4-1,5.24-2.3,2.32-2.38,4.28-2.28,6.75-.55,3.15,2.2,6.81,3.85,9.47,6.52a11,11,0,0,1,3,7.43,31.36,31.36,0,0,1-2.91,10.68c-3.83,8.83.48,15.93,4.59,23,.7,1.2,3.07,1.46,4.69,2.07,8.57,3.2,11.49,9.39,8.66,18a79.93,79.93,0,0,0-2.95,11.6c-.22,1.29.83,3,1.64,4.24,4.05,6.37,8.5,12.5,12.18,19.07,1.18,2.1.36,5.29.58,8,.34,4,.72,8.1,1.26,12.12.26,2,1.55,4,1.29,5.85-.92,6.69-.94,6.91,5.78,8.67-.66,5.38,2.54,8.26,6.92,10.76,3.24,1.86,2.76,5.06,1.13,8-3.4,6.17-3.4,6.16,2.54,9.75,3.15,1.9,6.28,3.84,9.42,5.76,4.65,2.85,6.34,7.27,5.86,12.37-1,10.84-4.33,20.83-11.24,29.52-1.75,2.21-2.59,5.13-3.93,7.68-1,1.84-1.72,3.93-3.13,5.37-5.55,5.67-8.15,12.92-11.38,19.88-.74,1.6-2.91,2.76-4.67,3.62a65,65,0,0,1-7.13,2.52q-4,1.41-8,2.89a9.51,9.51,0,0,0-2.59,1.23c-9,7.16-20.39,10-30,16.14-5.43,3.48-10.1-1.25-15.2-1-.29,0-.86-.64-.89-1-.57-7.05-6.45-7.78-11.38-9.15-3.68-1-5.34-2.43-5.06-6.54.45-6.51.36-13.07.24-19.6a29.37,29.37,0,0,0-1.38-6.44c-1.06-4.18-1.46-8.73-3.43-12.45-4-7.66-.5-14.54,1.26-21.58.49-2,2.79-3.54,4.34-5.21C704.62,248.35,705.71,247.51,706.73,246.61Z" transform="translate(-2.52 -3.31)"/><path class="cls-8" d="M506.79,269.94c3.51-.5,7.85.5,8.44-5.12,0-.47,2.69-1,4.11-.9,1,0,1.92,1.38,2.91,1.43a35.18,35.18,0,0,0,5.59-.55l-3.69-3.93L522,259.1a7.54,7.54,0,0,1,12.73-1.17c.69.87,2,1.28,3,1.9.45-.94,1.27-1.87,1.29-2.82.15-6.83,4-11.93,11.09-14.27a21.69,21.69,0,0,0,3.2-1c2.78-1.45,5.49-3,9.06-5L558,236c2.09-3.33,4-7,6.5-10.2a62.64,62.64,0,0,1,7.63-7.74,4.42,4.42,0,0,1,3-.6c1.8.15,3.58.6,5.37.92.43-2.59,1.49-5.25,1.16-7.74-.64-4.88,1-7.14,6-6.82l2.84-5.07c-5.08-3,.06-5.5.83-8.4,1.15-4.33,2.37-8.64,3.84-14l8.73-5-4.24-2.12c2-11,10.1-21.34,21.85-22.81l-5.91-5,7.89-5.11c1.28-3.74-7.89-3.49-4.72-8.66,1.82-3,4.17-5.59,6.78-9l5.6,7.1L633,125l-1.51-7.63,1.15-6.26L623,113.6l4.09-12.52,2.4,4.79,3.78-4.59,2.51,7.18,11.38-14.2-.77-1.54-9.45,1.61c2.12-3.27,3.19-6.54,5.43-8,4.81-3.18,10.34-5.24,15.36-8.13,3.48-2,6.6-4.61,10.5-7.39a13.17,13.17,0,0,0,.06,3.61,19.76,19.76,0,0,0,2,3.52A24.73,24.73,0,0,0,673,75.25c1.46-1.9,2.34-4.53,4.2-5.75,2.9-1.91,4.35-1.09,10.88,2.91L680.64,60c4.2-1.95,10.83.17,14.86,4.89.84,1,2.41,1.35,3.65,2,.33-1.42,1.37-3.21.86-4.21-2.74-5.37.39-9.1,2.93-13.23A25.83,25.83,0,0,0,706,41.88c.72-3.1,1.05-5.64,5.07-2.91,1.33.9,3.21,1,4.75,1.4-1.13,5.56-2.36,11.2-3.34,16.88-.2,1.17.54,2.51.84,3.77,1-1,2.53-1.75,3-2.93,2.57-7,4.9-14.06,8.31-21L727,49.65c3.91-3.65,5.06-9.61,4-17.8,2.54-.38,5.13-1.11,7.67-1,.92,0,2.44,2.17,2.43,3.34,0,2.52-1,5-1.25,7.55-.11,1,.55,2.17.86,3.25,1.21-.78,2.76-1.32,3.51-2.41.63-.93.17-2.53.47-3.77,1.08-4.37,3-4.87,6.71-2.27,1.17.82,2.92.79,4.4,1.16L760.55,39l7.88,4.84c-5,7.71-12,11.05-21.3,9.84l13.13,7c3.48-.43,5.94-1,8.37-.9,1,0,2,1.6,2.92,2.46a17.82,17.82,0,0,1-3.63,1.45c-.84.15-1.81-.42-3.88-1,3.91,7.45-4.64,7.87-5.93,12.6.63-5.69-1-10-6.68-12.34a28.45,28.45,0,0,1-6.35-4.3c-3.16-2.52-6-2.75-8.73.57-.49.6-1.24,1.65-1.68,1.56-5.67-1.17-8,3.12-9.42,6.84s-1.19,8-1.42,12.13A21.6,21.6,0,0,0,724.6,85c.62,3.13.54,5.7-2.28,8.2-1.83,1.62-2.38,4.68-3.49,7.08a52.12,52.12,0,0,0-6.18-3.8c-2.24-1-4.17-1.15-6.15,1.55-3,4-11.28,2.06-13.57-2.2a37.5,37.5,0,0,0-7.46-9.19c-.91-.85-4.84-.38-5,.15-1.51,5.44-5.86,5.59-10.12,5.58V111.2c-5-.44-10.26-.55-15.38-1.47-3.76-.68-4.64.65-4.53,3.94s0,6.33,0,9.07c-3.46,0-6.23-.5-8.74.11-4.19,1-5,5-6.06,8.53-.23.77-.09,1.92-.58,2.29-6,4.52-3.32,9.9-1.84,15.3.37,1.34.24,3.65-.62,4.37-5.36,4.48-8,10.25-9.24,16.93-.16.83-1.78,1.78-2.85,2-5.29.95-6.59,4.07-6.8,9.21a110.06,110.06,0,0,1-3,21.71c-1,4-4.06,7.45-6.2,11.15l-1.88,3.26c6.63,1.83,7.62,6.31,6.26,11.44-5,.81-10.33.6-14.59,2.58-7.7,3.59-12.45,16-11.06,24.52.52,3.18-.7,6.61-.42,9.86.76,8.69,3,17.27,1.45,26.09-.87,4.92,3.69,5,6.21,6.9l.83,9.58c-9.6,1.58-10.49,3.15-6.25,11.16,3.17,6,1.76,11.51-.41,17.15a4.69,4.69,0,0,1-2.08,2.57c-8.87,3.58-8.21,11.05-7.81,18.5.14,2.52,0,5.06,0,7.58l-1.51.22a18.11,18.11,0,0,0-1.52-4.1c-.88-1.32-2.38-3.4-3.39-3.28-4.84.56-5-2.81-5.69-5.91-.43-2-.74-4-1.13-6.2-4,1-5.24,2.67-3.89,6.57,1.21,3.49-3.41,8.52-7,9.37-5.94,1.43-10.08,5.83-13.74,10.35-7.31,9-18.23,12.85-29.2,9.6-1.15-.34-2.82-1.57-2.88-2.47-.24-3.81-2.64-5.11-5.73-6.21-4.43-1.58-7.75-7.44-6.74-12,.25-1.1,1.79-2.85,2.52-2.75,3.52.47,3.9-1.28,4.18-4.15.26-2.67,1.46-5.24,2.6-9.06l-12.46.94c.38-5.36,4.94-5.67,7-6.7l5.12-9.43h-3.65l1.95-4.43c-1.42-.33-2.86-1-4.24-.92-2.47.21-3.85-.63-3.67-3.09.2-2.84.71-5.65,1.17-8.46.2-1.25,1.23-2.73.84-3.66-2.27-5.3,1.29-5.77,4.84-6,3-.16,6,.23,9.06.28a32.5,32.5,0,0,0,4-.53c-6.32-5.61-13.19-2.43-18.93-4.61,2.37-4.74,4.17-10.07,2.55-16.2-1.05-4,2.76-8.15,6.59-9C503.65,273.3,505.14,271.25,506.79,269.94Z" transform="translate(-2.52 -3.31)"/><path class="cls-5" d="M626.73,578.21c-.95-3.62-3-5.18-7-3,1.1-5.93.45-10.61-2.56-15.77-2.22-3.8-.22-9.83-1.45-14.51-1.51-5.71-.23-12.52-6.09-16.85-2.46-1.82-2.43-4.05-.24-6.95,1.59-2.1,1.48-5.61,1.81-8.53.37-3.19-2.15-6.94,2.32-9.33.67-.36.09-3.06.09-5.35l21.54-8c1-.39,2.73-.51,3-1.22,3.12-7.42,10.88-8,16.74-11.1,4.19-2.18,9.5-2.44,14.37-2.9,1.11-.1,3.41,2.43,3.56,3.91.58,5.92,3.68,7.49,9.12,6.85,1.72-.2,3.61,1,6.2,1.86,3.34-5.39,9.33-4.31,15.31-4.44,11-.25,22.09-1,33.09-2,7.81-.74,11.58,1.6,14.11,9a157,157,0,0,0,7.44,17.62c3.55,7.34,4.79,14-3.32,19.23-.54.35-.66,1.37-1,2.08l.17-.18c-4.66,4.91-4.55,6.15,1.16,8.88,3.18,1.52,4.19,3.62,3.82,7.24-.66,6.51.37,12.55,5.68,17.51,1.88,1.75,1.87,5.43,3,8.12,1,2.47,2.4,4.8,3.66,7.25-8.89,6.11-13.56,15.4-19.4,23.78-1.95,2.8-2.52,5.21-.78,8.41,1,1.85.88,4.31,1.31,6.76-4.54.6-8.39,0-11.66-3.75-3.49-4-13.57-4.11-18-.89a6.41,6.41,0,0,1-4.75.7c-5.06-1.28-9.27-1.14-11.41,4.63-.14.37-1.12.43-1.64.61-2.45-2.87-4.63-5.77-7.22-8.26-.75-.72-2.94-.78-3.94-.22-1.42.8-2.36,2.46-3.67,3.93-2.94-3-6.45-5.59-8.73-9-2.75-4.17-7-5.42-10.94-5.79-4.17-.39-5.34-1.7-4.46-5.19L650.6,588.8l1.86,5.26c-6.9,6.48-6.07-4.07-9.87-4.3,2.61-4.68,1.66-5.54-3.25-6.55-4.42-.9-8.52-3.37-12.77-5.16Z" transform="translate(-2.52 -3.31)"/><path class="cls-5" d="M622.79,859a37.73,37.73,0,0,1-2.18-5.85c-1-5.1-4.13-7.15-9.63-6.6-2.22-1.68-3.87-4-5.67-4.11-5-.35-5.82-4.08-7.12-7.43s-3.31-4.84-7.22-4.74-8.15,0-11.54-3.31c-2-1.93-5.34-2.48-7.27-4.45-3-3.09-4.81-7.65-8.18-10.13-5.51-4.06-8.6-10.94-15.63-13.08-1.35-.41-2.66-.93-3-1.81-1-1.92-1.61-4.09-2.92-5.73-2.9-3.6-6.13-6.93-8.49-9.55-.78-3.85-1.38-6.76-1.95-9.67-.77-3.92-1.68-7.83-2.22-11.79-.65-4.83-3.37-7.35-7.81-9.14-4-1.63-7.63-4.35-11.4-6.62-8.4-5.07-12-4.47-18.46,3.15-.54.25-1.42.37-1.56.76-1.48,4.17-4.45,5.51-8.67,5-1.16-.13-2.4.54-3.61.84l-1.45-1.62c1.11-.45,2.73-.6,3.19-1.42a6.82,6.82,0,0,0,.74-4.5c-.13-.59-2.45-1.21-3.58-1-4.9,1.09-6.46-3.27-8.64-5.7-1.66-1.85-1.53-5.18,1-7.75,2-2,2-4.28-.75-6.54-1.47-1.2-1.67-4-2.48-6.12,3.59-1.52,9.13-1.33,8.19-7-.6-3.59-3-6.88-4.89-10.84,1.88-.51,3.62-1.13,5.42-1.42s3.9-.32,5.86-.47a19.4,19.4,0,0,1,3.77-.27c1.62.2,3.75,1.62,4.69,1a22.62,22.62,0,0,0,5.4-5.66,59.06,59.06,0,0,0,3.64-6.46C502,695,505,700,508.11,705a2.49,2.49,0,0,0,2.35.66,5.43,5.43,0,0,0,1.45-2.53c.8-2,1.4-4.16,2.28-6.17,1.1-2.53,2.4-5,3.8-7.84,1.7,3.74,3,8.55,8.29,4.14l4.72,4.12,1.14-.61-.58-8.74,7.13,1.18c-.21-1.73-.58-2.81-.4-3.8.27-1.48.54-3.47,1.55-4.14.85-.57,2.73.52,4.18.73,1.67.24,4.52,1,4.85.37,2.27-4.08,6.08-3.55,9.67-4,3.15-.38,6.27-1,8.95-1.37,3.78,14.28,16.51,12.35,27.36,14.9-3.28,3-8,5.91-.91,8.84-4.51,5.8,1.51,8.63,3.56,12.71-3.86-.81-7.23-1.55-10.63-2.18a3.56,3.56,0,0,0-1.85.41c-3.83,1.61-7.69,3.15-11.43,4.94-2.36,1.13-6.38,2.57-6.43,4-.11,3.19,1.65,6.5,2.94,9.64.44,1.07,1.77,1.78,2.86,2.8-.48.59-.77,1.31-1.24,1.46-5.24,1.59-4.19,4.55-3.64,9.2,1.71,14.5,13.71,18.73,23.12,25.77a8.52,8.52,0,0,1,3.32,5.08c1.35,12.33,7.09,21.76,15.65,30.87s18.21,9.39,28.85,9.24a9.24,9.24,0,0,1,2.89,1c-.54,1-.85,2.3-1.67,3-4.43,3.74-4.25,6.63,1.07,9,7.15,3.23,14.48,6.06,21.64,9.25a47.2,47.2,0,0,1,6.39,4c1.59,1,3.17,2.11,4.7,3.25,5.2,3.87,10.92,7.27,15.29,11.92,1.61,1.71,0,6.43-.12,9.73-5.51-.19-7.18-2.37-7.59-6.39-.15-1.44-1.89-3.24-3.35-3.92a82.08,82.08,0,0,0-13.59-5.23c-2.06-.54-5.94,0-6.69,1.32a100.92,100.92,0,0,0-7.51,17.12c-1.08,3.22,3.64,7.21,9.69,9,4.45,3.91,3.62,9.13,4.13,14.19-8.41-.32-10.19,1.43-12,9.45-.58,2.56-2.66,4.8-4.15,7.13-1.35,2.11-3.31,4-4.15,6.24-1.49,4-4.68,4.19-7.43,3-3.33-1.38-1.62-4-.39-6.46,1.69-3.32,3-6.84,4.43-10.28l-1.23-.83a15.46,15.46,0,0,1,2.72-.27c3.6.26,4.28-1.86,3.42-4.59-1.91-6.09-4.14-12.07-6.14-18.12-1.28-3.88-2.13-7.93-3.69-11.69-1.08-2.6-3-4-6.56-3.38C627.25,862.52,624.91,860.17,622.79,859Z" transform="translate(-2.52 -3.31)"/><path class="cls-5" d="M830.3,744.16c-2.21,2.25-4.16,4.89-6.73,6.61-1.76,1.19-4.38,1.51-6.62,1.51-6.47,0-13-.94-19.13,2.22-1.24.64-3.16.32-4.67,0-6-1.36-11.93-4-18.24-.73-1,.55-2.83-.33-4.73-.62l2.38-4.6-11.7-9.4,5.32-3c-3.47-4.73-6.67-4.54-11.51.47l-13-5-.85-10.14c-1.8-.92-4.13-2-6.32-3.28-3.53-2.09-6.94-4-7.37-9.09-.17-2-3.31-3.89-5.19-5.74-1.36-1.33-2.87-2.49-4.45-3.85,4.8-1.78,9.22-3.37,13.58-5.1a3.8,3.8,0,0,0,2-1.91q5.78-15.19,11.37-30.46c1.58-4.35,4.12-7.6,8.54-9.36a8.26,8.26,0,0,0,3.85-2.82c3.16-5,5.31-5.44,11.43-4.6a62,62,0,0,0,16.19-.4c2.8-.36,4.68-.37,6.85,1.68,4,3.73,6.07,3,9.36-1.67a9.1,9.1,0,0,1,4.67-3c5.24-1.57,10.56-1.9,13.45-8.31,2.27-5,11.74-3,14.79,3.26,4.42,9.17,11.75,15.53,18.75,22.47,4.06,4,6.81,9.45,6.22,16-.36,4,.43,8.11.82,12.16.23,2.37.69,4.72,1.05,7.08l-1.07.84c3.85,2.36,7.57,5,11.64,6.89,1.06.49,3.25-1.25,4.85-2.12,3.25-1.76,6.4-3.73,9.72-5.34.64-.31,2,.49,2.85,1,4,2.56,3.82,7,2.91,10.36-.63,2.32-4.29,3.82-7,6-.87-2.19-1.1-3.55-1.87-4.45a3.46,3.46,0,0,0-2.77-1c-.58.09-1.33,1.39-1.37,2.18-.35,6.68-.7,13.37-.74,20.06,0,3.66.57,7.33,1,12.87-5.07-2-8.69-3.56-12.42-4.76-1.67-.54-3.73.1-5.38-.48-11.14-3.94-20.61,0-29.71,6-.46.3-.62,1.07-.93,1.62Z" transform="translate(-2.52 -3.31)"/><path class="cls-5" d="M834.19,428.19a3.74,3.74,0,0,0,1.38-.19c7.18-4.28,9-4.11,15.18,1.31.82.73,1.76,1.32,2.65,2,.93,4.37,2.18,8.7,2.71,13.11.71,5.87,3.63,10.06,8.22,13.51,5.37,4,10.5,8.4,15.86,12.45,3.36,2.53,6.93,4.79,10.44,7.1,3,2,3.23,4.84.89,6.85-2,1.68-5,2.4-7.66,2.89-2.29.42-6-1-6.85.05-1.33,1.7-1.61,5.17-.85,7.38a138.13,138.13,0,0,0,6.9,15.29c2.15,4.39-1.1,6.53-3.94,6.74-5.13.38-6.1,3.95-6.71,7.35-.84,4.68-.65,9.55-.92,14.61a2.56,2.56,0,0,1-1.67-.38c-4.8-4.07-9.43-1-14.13.14-1.12.27-2.67.63-3.46.1-5.27-3.53-5.22-3.61-8.22.56-4.61,0-8.55-.18-12.46.05-3.44.21-6.85.9-10.27,1.33a3.51,3.51,0,0,1-1.9-.09c-9.22-4.72-19.13-2.85-28.84-3.5-6.34-.43-11.43,2.5-17.2,3.29-1,.14-2.65,1.14-2.8,2-1.13,6.18-5.14,6.94-10.68,5.78,1.91-5.77.81-10-5.64-12.34-4.51-1.61.45-4.53-.16-6.84l-.17.18c9.34-6.13,10.61-10.37,6.37-20.51-2.46-5.88-4.71-11.84-7.39-18.58,3.82,0,7.11.32,10.3-.11,2.1-.29,4.13-1.52,6-2.59a21.68,21.68,0,0,0,3.33-2.84l-.81-1.13c.27-.12.6-.42.79-.34,4.1,1.69,3.09-3.7,5.21-3.86,1.93-.14,4.2,2,5.91,1.61,2.93-.75,2.51-3,.81-5.24a9.1,9.1,0,0,1-1.49-4.61,17.11,17.11,0,0,1,.5-6,33.18,33.18,0,0,1,2.86-5.76,22.49,22.49,0,0,1,1.78-3.05c.69-.92,1.68-2.47,2.38-2.38,4.43.51,4.58-2.94,6.13-5.94L791,445.73c1.49-3.11,3-6,4.33-9.08,2-4.75,6.54-.6,9.15-3l4.69-9.7c6.12,2.29,11.49,3.4,17.23.94.88-.38,3.47,1.09,3.89,2.22C831.3,429.81,832,430.87,834.19,428.19Z" transform="translate(-2.52 -3.31)"/><path class="cls-7" d="M830.14,744.32c4.87-2.26,9.76-4.5,14.61-6.81,3-1.43,5.8-2.32,9.09-.25,1.55,1,4,.47,5.92.89,5.07,1.08,10.25,1.93,15.11,3.65,2.15.76,3.63,3.41,5.13,5.93-5.21,1.2-9.84,2-10.33,7.95-.36,4.45-.63,8.92-.94,13.33l-7.39,9.66.27,1.19c4.82-2.74,7.37-1.05,9.14,3.3.63,1.55,2.64,2.54,4.33,4.08-3.74,2.12-6.88,4.61-11.6,1.57-1.53-1-4.73.36-7.08,1-1.45.37-2.67,1.58-4.11,2-2.22.71-4.57.48-4.77,4.17-.08,1.48-3.31,2.79-5.13,4.16-1.12.84-2.28,1.64-3.4,2.44,4.56,7.35,3.43,9.42-5,10.11a19.87,19.87,0,0,0-4.36,1.32c-.91.3-1.88,1.08-2.69.93-5-1-10.24-1.4-14.75-3.44-4.85-2.2-8.62-1.41-12.65,1.17a18.09,18.09,0,0,1-4.07,2.14c-4.93,1.58-9.91,3-14.9,4.47-.94-4.62-1.47-9.42-3-13.85-.67-1.92-3.24-3.64-5.34-4.5-4.36-1.79-5-3.5-4.19-8.4.47-2.86-.89-6-1.39-9a8.15,8.15,0,0,1,0-1.56,36.84,36.84,0,0,0,4.66-3.68c5.08-5.57,4.26-9.23-2.67-12.6-4.18-2-8.13-8.82-6.77-12.6.86-2.4,2.83-4.41,4.45-6.81l3.71,1.49c0,2.48-.59,6,.11,6.31,2.13.83,4.75.34,7.17.46,4.55.22,9.17.09,13.62.91a20.61,20.61,0,0,0,10.09-.74c5-1.44,10.73-.93,16.11-.65,6.17.31,12.29-4,13.14-9.84Z" transform="translate(-2.52 -3.31)"/><path class="cls-6" d="M642.35,680.4c5.12.41,5.92-2,5.05-5.42-.76-3-.89-5.15,2.23-7.3,1.18-.82.31-4.63.37-7.14l8.25.78v-9.69c2.24,1.95,3.36,3,4.6,4,6.87,5.19,14.53,3.78,22,2.27,1.09-.22,2.35-2.58,2.47-4,.26-3.22.86-4.64,4.68-3.87s7.52.19,8.27-4.75c9.11,1.44,11.4,0,16.21-7.79,1-1.65,4.33-2,6.68-2.66.72-.2,1.91,1.16,2.58.92,4.6-1.62,8.9-2.51,11.86,2.77a.94.94,0,0,0,.87.29c7.16-3.31,11.83,1.79,17.07,5,.53.33,1.13.55,1.68.84.13.07.19.25.52.7-1.54,2.79-2.54,5.57-6.64,6.84-6.24,1.93-7.49,8.29-9.61,13.68-2.5,6.38-5.16,12.69-7.75,19a9.24,9.24,0,0,0-.68,1.8c-.65,3.69-2.48,5.16-6.08,7.35-6.11,3.7-12.19,2.36-18.14,3.7a68.69,68.69,0,0,0-23.29,10.21c-3.5,2.35-12.66,2.26-16.49-.49a22.17,22.17,0,0,0-4.16-2.06c-.72-.31-2-.21-2.2-.66-2.73-6.28-9.23-8.82-13.36-13.64C646.86,688.1,645,684.55,642.35,680.4Z" transform="translate(-2.52 -3.31)"/><path class="cls-5" d="M789,909.85c.81-.72,1.6-1.47,2.45-2.15,1-.82,2.11-1.58,3.17-2.37A37.15,37.15,0,0,0,791,903.2a81.11,81.11,0,0,0-7.65-3.06,15.08,15.08,0,0,0-6.06-.72l-9.31.42c-1.12,0-2.25,0-3.38.08-3.49.25-7,.38-10.47.88-1.3.19-2.47,1.26-3.5,1.82L740.8,890,750,888.5c-2-1.63-3.21-3.3-4.65-3.57-4.09-.78-7.46-2.14-10.21-5.61-2.09-2.63-5.24-4.42-8.19-6.8l5.17-7.24L729.66,862c1.29-1.21,2.56-3.4,3.89-3.44,3.68-.11,3.23-2.67,4-4.86a18.48,18.48,0,0,1,3.49-6.58c1.92-2,2.88-3.67,1.49-6.31-1.55-3-.75-3.91,2.79-4.49,5.44-.89,12-.26,14.61-7.41.33-.9,2.65-1.31,4.11-1.52,2.84-.42,5.74-.42,8.58-.84,1-.15,2.67-1,2.7-1.6.24-4.64,3.72-3.5,6.52-4.35,6.55-2,12.94-4.58,19.28-7.19,3.22-1.32,6.2-3,9.5-.31a4.53,4.53,0,0,0,1.79.48c4.4,1,8.92,3.1,13.17,2.65,5.8-.61,11.44-3.07,17-5,.63-.22,1-2.51.71-3.69a22.82,22.82,0,0,0-2.15-4.7c4.87-2.18,9.1-.69,9.59,3.67.17,1.54-1.18,3.76-2.5,4.86-2.26,1.86-2.76,3.47-1.57,6.19,1.66,3.76-1.29,7.27-5.34,7.09-4.46-.2-9.12.8-13.35-.19s-8-1.77-11.31,1.75c-.21.22-.67.56-.79.49-6-3.87-8.39,2.22-12.32,4.33-2.31,1.24-5.28,1.26-8.54,2,1.48,3.55,2.79,6.73,4.11,9.91-2.77,4.22-7,4.72-11.48,4.45-4.94-.3-7-3.57-7-8.39-8.54,4.66-8.95,15.19-2.14,21.18,5,4.4,8.9,10,13.25,15.17.3.35.17,1.07.08.35-2.53-.9-6.47-3.51-7.75-2.56-5.19,3.88,2.11,6,2.15,9.5l-8,4.07,31.43,13.11,3.19,15.56c-3.67-2.87-6.61-4.7-8.92-7.12s-4.23-2.06-6.83-1S791.7,909,789,909.84Z" transform="translate(-2.52 -3.31)"/><path class="cls-5" d="M581.78,648.68c2.77-1.18,5.6-2.25,8.29-3.59a4.93,4.93,0,0,0,2.57-2.49c.71-2.77,1.34-4.81,5.07-4.07.83.17,2.18-2.3,3.66-4,3.24,6.63,9,2.15,13.46,3l7.4-9.24c1.63.38,4.7.9,7.64,1.85s5.59,2.51,8.5,3.37c1.77.53,3.77.3,5.67.33,3.14,0,6.28,0,11.06,0-5.6,6.67-2,11,0,15.76,1.2,2.89,1,6.38,1.49,10.16-4.15.19-8.66-3.34-11.87,1.78,3.9,1.41,6.65,3,1.53,6.39-.92.62-1.37,3.22-.88,4.46,2.06,5.33-2.37,6.58-5.11,9-1.38,1.22-2.51,2.73-4.4,4.82-4.28.53-9.76,1.11-15.2,1.95a6,6,0,0,0-3.74,1.94c-2.87,4.19-6.85,3.66-10.82,2.85-9.1-1.85-18.18-3.82-27.24-5.86-5.68-1.28-9.23-5.6-9.43-11.67l-17.91,2.23a2.1,2.1,0,0,0-.44.17c-2.18.82-2.27,6.32-6.56,2.67-1.91-1.63-4.59-2.36-6.11-3.1-3.31,0-6.5,1-8.45-.18-5.58-3.26-8.28-8.08-3.82-14.88,5.45-1.57,4.65,6,10.27,6.54l4.78-6.05c1.28.62,3.74,1,4.8,2.47,3,4.11,6.07,1.91,9.32.79,3.86-1.32,7.77-2.57,11.72-3.57,2.41-.61,5-.59,7.42-1,4.51-.79,6.75,2.9,9.61,5.41,4.21-4.84.49-8.82-.29-12.88a42.22,42.22,0,0,0-1.86-5.57Z" transform="translate(-2.52 -3.31)"/><path class="cls-5" d="M597.37,582,610,578.43v-6.15c4,7.33,8.07,9.58,12.52,3l4.21,2.94-.16-.14c4.27,2.25,8.52,4.55,12.83,6.71.87.43,2,.33,3.76.57l-2.9,3.69a4.34,4.34,0,0,0,.53,1.27,34,34,0,0,0,4.78,5.13c1.35,1,3.56,2,5,1.59,2.13-.64,5.7-1.57,2.68-5.83,4.14,1.43,8.34,1.49,10.86,5.61,1.2,2,2.59,3.35,6,3.24,3.24-.1,6.68,3.18,9.86,5.24A64.28,64.28,0,0,1,686,610.4c-6.74,2.06-9.61,6.76-12.84,11.48s-7,9.72-14.35,8.17c-1.48-.31-3.39,1.45-4.59,2-4.07.2-7.86.42-11.64.56a8.83,8.83,0,0,1-3.31-.26c-4.81-1.79-9.52-3.89-14.37-5.58-5.41-1.89-5.91-1.4-5.84,4.78-2.49,1.3-5,3.17-7.8,4-5.76,1.63-8.18.43-11.24-4.78-1.31-2.23-2.23-4.19-5.58-4.38-2-.12-3.88-2.54-5.81-3.93l.19.13c-1.41-2-2.7-4.09-4.25-6s-4.23-3.41-5.15-5.62c-2.05-4.95-.87-11.13-5.74-15.07-.07-.06,0-.3.13-1.43,3-1.57,6.44-4.64,10.08-4.93,6.12-.5,9.51-4.47,13.64-7.75Z" transform="translate(-2.52 -3.31)"/><path class="cls-6" d="M702.93,723.5c-8.85-2.54-8.18-10.9-11.17-17.83a50.56,50.56,0,0,0,5.18-2.12c2.1-1.13,4-3.37,6.1-3.62,4.28-.49,9-.94,12.91.47,3.48,1.27,6.33,4.82,8.91,7.83,1.7,2,1.88,5.36,3.72,7.08,3.08,2.88,6.93,4.93,10.57,7.4l.49,9.59c4.47,1.87,9.2,4,14.11,5.75.88.3,2.4-1.45,3.7-2.11s2.92-1.28,3.31-1.44c.81,3.58,1.49,6,1.84,8.39.29,2,1,4.59.12,5.93-3.56,5.27-1.86,14,3.77,17.47,1.7,1,3.09,2.56,4.7,3.75,5.36,4-.36,6-1.84,8.23-1.3,2-5.75,1.54-4,6.07.86,2.26.48,5,.76,8.9l-16.69,5c1-4.5,2.91-7.92,2-10.32s-4.69-3.46-7-5.41a41.53,41.53,0,0,1-7.11-7.1c-2.83-4-5.94-1.82-8.94-.92-.67.2-1.07,2-1.21,3.09a39.29,39.29,0,0,0-.05,4.86c-9.6-2.55-17.5-6.94-23.81-14.52,7.37-3.92-.71-7.06-.09-11l5.31-1.3c.26-3.92-2.66-5-5.12-6.16-4.39-2.1-5.46-4.57-3.57-9.13a14.4,14.4,0,0,1,.88-2.24c2.74-4.32,2-7.29-5.34-8.65Z" transform="translate(-2.52 -3.31)"/><path class="cls-7" d="M783.49,479.15l-4.67-2.44-8.43,5.94c-.71,3.14-3.67,4.93-8.46,4.79-3.14-.09-6.3.71-10,1.19-.39-5.51-4.12-7.61-8.8-8.62-5.2-1.13-5.55-5-4.92-9.11,1.09-7.17-1.39-9.53-8.69-8.67-5.38.63-13.83-1.46-15.67-7.44-1.36-4.42-3.21-8.76-3.88-13.28-.31-2.11,1-5.53,2.7-6.65,4.13-2.72,8.77-5.77,13.46-6.28,9.42-1,19-.27,28.52-.68,2-.09,4.19-1.8,6-3.19,1.93-1.52,3.4-2,4.48.58,1.42,3.39,4,3.43,7.26,4,4.1.74,7.86,3.52,11.71,5.52.82.42,1.31,1.5,2.13,1.87,4.53,2.07,5.76,5.41,3.75,10.17l5.22,1.83c-1.65,1.25-2.89,2.1-4,3.06-1.5,1.27-2.92,2.62-4.37,4-.09.09,0,.42-.09.45-6,2.65-3.8,8.18-4.86,12.73-.9,3.84-1.16,6.71,2.84,8.92Z" transform="translate(-2.52 -3.31)"/><path class="cls-7" d="M653.37,726c6.2,1.18,12.38,2.51,18.61,3.43,2,.29,4.11-.7,6.19-.79,3.47-.15,7,0,10.34,0,2.81,6.46,2.81,6.43,8.85,3.88a2.89,2.89,0,0,1,2.48.18,2.68,2.68,0,0,1,.62,2.36,56.49,56.49,0,0,1-2.2,5.31c-1.88,4.47-.13,8.66,4.25,10.63a56.09,56.09,0,0,1,5.66,3.56l-8.55,1,5.71,9.23-7.54,3.1a67.13,67.13,0,0,1-4.87,6A18.61,18.61,0,0,0,688,792.26c-2.59-1.18-5.51-1.93-7.69-3.63C675.64,785,671.39,780.91,667,777l.15.19c-1.19-2.2-2-4.82-3.66-6.53-5.37-5.42-11.19-10.4-16.61-15.78-1.48-1.47-2.36-3.63-3.23-5.6-2-4.42-3.17-9-7.9-12-1.42-.89-.21-6-.2-9.12,1.71.51,3.8.56,5,1.62,2.59,2.23,4.31,3.07,6.23-.72.55-1.08,2.67-1.37,4.07-2l2.76-1.24Z" transform="translate(-2.52 -3.31)"/><path class="cls-5" d="M667,777a50.43,50.43,0,0,1,3.6,5.51c.58,1.18.47,2.71.66,3.94-5-4.4-9.29-8.7-14.12-12.21-5.08-3.69-10.75-6.42-15.81-4.05-3.64-3.11-6.59-5.35-9.21-7.93-3-3-5.71-6.21-8.54-9.34l1.18-1.89,6.16,2.39.79-.37c-1.17-1.25-2.22-3.43-3.54-3.6-4.46-.58-5.41-4.27-7.29-7.15-1.65-2.51-3.43-4.84-2.19-8.41.45-1.28-1.08-3.53-2.16-5a67.52,67.52,0,0,0-4.81-5.13c-2.37-2.62-4.56-2.1-6.06,1.21-1.64,3.61-3.61,7.07-6.1,11.86l-7.43-16.57c4.39-.42,7.79-.74,11.18-1.08s6.55-.68,9.82-1l-.09-1.34c3.42,1.38,6.76,3.12,10.31,4,2,.49,4.39.11,4.09-3.51-.15-1.91.8-5.13,2.15-5.72,5.37-2.34,4.57-5.69,2.11-9.84,3.83-2.11,7.38-4.17,11-6.06,6.62-3.45,6.87-3.36,12.49,2.95,2.13,2.4,3.78,5.62,6.42,7.06a49.23,49.23,0,0,0,13.81,5c5,1,10.38,1.15,13.62-5.08,5,5.54.92,15.32,9.26,17-.94,2.75-1.71,5.12-2.59,7.45-.34.9-.79,2.24-1.46,2.43s-2.69-.46-2.75-.92c-.84-7.12-7.38-4.83-10.35-4.76-8.09.2-16,.9-23.9-1.73-1.07-.36-2.58.58-3.88.92l.25-.16c-4.32-.88-8.15-.66-9.46,5l-3-2.54c-2.06-1.75-5-4.63-6.49-.82-1.34,3.36-1.75,9.65.18,11.17,3.35,2.65,5.65,5.45,6.51,9.18,1,4.55,3.58,7.69,7,10.5,1.72,1.42,3.13,3.21,4.71,4.8q7,7,14.06,14.06Z" transform="translate(-2.52 -3.31)"/><path class="cls-5" d="M696.12,609.51c2.25,3.19,4.25,5.91,6.13,8.72,1.36,2,5.16,2.14,5.81-.19,1.51-5.4,5.2-4.59,9.16-4,2.64.38,5.51,2.65,7.61-1.75,1-2.17,12.45-.47,14.91,1.43s5.36,3.63,8.73,5.87c-1.41,4.13-3,9.22-5,14.17a6.31,6.31,0,0,1-3.48,3.14c-.87.31-2.7-.65-3.38-1.57-2.16-2.92-4.37-3.78-7.8-1.94-1.29.69-3.31.21-5,0-3.83-.51-6.94-.49-9.14,3.85-1.54,3-5.48,7.83-7,7.37-5.64-1.69-8.94,1-12.66,3.91a3.63,3.63,0,0,1-2.82.19c-4.22-1.24-5.94.24-6.07,4.62-.15,5.11-4.66,4-7.64,4.52-8,1.34-14.38-2.87-20.69-6.93-2.8-1.81-4.87-10.08-3.49-13.2.58-1.31.67-2.91,1.46-4a4.38,4.38,0,0,1,3.07-1.87c5.83.37,12.69-3.73,15.65-9a40.11,40.11,0,0,1,6.9-8.92c1.06-1,4.3-1.47,5.25-.65,3.32,2.82,5,1.7,6.63-1.56C693.73,610.9,694.8,610.5,696.12,609.51Z" transform="translate(-2.52 -3.31)"/><path class="cls-5" d="M509.56,702.79c-2-2.49-4.71-5.46-6.93-8.76-1-1.42-.89-3.51-1.4-5.8-3.79,0-6.6,1.63-7.68,5.5-1.3,4.68-3.55,6.12-8.5,5.15a8.19,8.19,0,0,0-3.81,0c-2.74.84-5.56,2.61-7.07-1.59-.87-2.42-2.26-4.89-2.24-7.34,0-5.28-1.25-6.71-6.58-5.58-2,.42-3.88,1.17-6.42,2,.46-1.78.35-3.89,1.29-4.61,4-3,5.59-8.09,10.1-10.75,3.07-1.81,5.51-4.84,7.9-7.61.62-.72,0-2.51-.1-4.37,3.56,2.53,6.52,1.66,10.39.36,4.72-1.58,10.38-.38,16-.38v-4.64c5.54,1.81,11.08,3.12,16.15,5.46,2.75,1.27,4.06,4.24,1.67,7.66-1.08,1.55-1.14,3.8-1.78,6.16,6.59.38,9.29,10.39,17.62,4.35L536.31,687c-6.48-.81-6.48-.81-6.06,5.69h-8.85A14.64,14.64,0,0,0,520,689.4a3.48,3.48,0,0,0-2.57-1.55c-.75.09-1.48,1.34-2,2.21-1.28,2.28-2.5,4.6-3.59,7C510.89,699.15,510.13,701.36,509.56,702.79Z" transform="translate(-2.52 -3.31)"/><path class="cls-7" d="M789.9,364.49c1,2.28,1.68,4.76,3,6.82,3.69,5.64,3.38,10.82-.29,15-3.14.85-5.52,1-7.42,2.11-3.81,2.12-6.09-.47-8.46-2.38-7.06-5.67-14.34-8.93-23-3.26a8.73,8.73,0,0,1-1.7.58,53.69,53.69,0,0,0,0-5.77,43.6,43.6,0,0,0-1.18-5.15l-4.84,3c-7-2.61-9-5.86-6.42-11.68-2-1-5.44-1.56-2.43-5,.14-.15-.72-1-.74-1.51-.07-1.54-.59-3.81.21-4.52,3.09-2.77,6.32-5.75,10.06-7.33a133.37,133.37,0,0,1,18.67-5.89,33.23,33.23,0,0,1,9.32-.76c5.63.18,11.24.74,17.78,1.2,0,2.34.62,5.34-.24,7.84-.5,1.45-3.34,2.11-5.14,3.1-1.3.72-3.37,1.17-3.7,2.19s.81,2.78,1.59,4c1.58,2.56,3.35,5,5.05,7.51Z" transform="translate(-2.52 -3.31)"/><path class="cls-9" d="M862.52,695.06c-.75-3.11-1.58-5.61-1.93-8.18-.49-3.59-1.2-7.3-.79-10.84.89-7.59-2.7-13.17-7.2-18.46-5.42-6.36-11-12.58-16.51-18.86-2.39-2.72-4.68-5.54-7.26-8.08-.85-.84-2.45-.92-3.71-1.35l1.54-2c4.29-1.38,8.51-3.12,12.9-4,1.88-.37,4.37.72,6.15,1.84a17.9,17.9,0,0,0,12,3.12,12.52,12.52,0,0,1,8.69,2.69c1.79,1.6,1.55,5.3,2.69,7.86,1,2.28,2.34,5.61,4.16,6.1,4.56,1.21,4.86,5.36,7.14,8.07.39.46.4,1.63.74,1.69,6.42,1.18,5.67,9.16,11,12.23-3.19.41-6.36,1-9.56,1.17a57.1,57.1,0,0,1-6.75-.57c-3.05-.21-5,1.13-3.82,4.25,2.27,6.22-.56,11.11-3.44,16.13a9.48,9.48,0,0,0-1.09,3.67C867,695.43,865,696,862.52,695.06Z" transform="translate(-2.52 -3.31)"/><path class="cls-5" d="M492,523.51c-4.54-2-4.39,1.68-5,5.08l6,2.76-8.19,11.46-7.37-.32c-4.49-.19-5.47,1.1-4,5.43a45.3,45.3,0,0,0,1.79,4.48c2,4.32-3.15,6.33-3.18,10a12.2,12.2,0,0,1-2.15-1c-2.51-1.74-5-3.45-7.42-5.36-1.79-1.44-3.19-3.4-5-4.71-5.33-3.75-10.35-.56-15.41,1a7.1,7.1,0,0,1-4.69.35l5.17-2.39L434,546.57c2.95-1.36,5.17-2.71,7.58-3.41,3.64-1.07,4.34-3,2.29-6.13,6.39-5.16,11.46-11,13.6-19,.4-1.49,1.9-2.69,2.89-4,.84,1.2,1.64,2.43,2.54,3.58.64.83,1.42,1.55,2,2.18-1.63.81-3.76,1.16-4.31,2.28-1.27,2.59.26,6.35,1.47,7.15l11.42-6-2-6.22-.19.13c-.78-1.57-2.44-3.33-2.15-4.66a13.53,13.53,0,0,1,3.52-6.28c1.08-1.1,3.25-1.32,5-1.54,4-.49,8.18-1.48,12-.82,2.36.41,5.09,3.14,6.11,5.5s.31,5.43-.33,8C494.95,519.43,493.38,521.18,492,523.51Z" transform="translate(-2.52 -3.31)"/><path class="cls-5" d="M557,436.5c-5.1-3.08-7.41-1.75-7.88,3.7-.14,1.59-1.74,3.06-2.67,4.59l-1.1-.55.58,3.84-4.75.4L536,466.57l8.76,2.25c-7.24,2.23-13-.21-19-1.54-.11-6.79,2.75-15-6.2-17.13,0-5.58-.49-10.68.15-15.65.57-4.44,2.41-8.7,3.61-13.07.47-1.72.41-3.64,1.13-5.22,2.14-4.68,6.52-5.62,10.93-5.2s7.2-1.54,9.56-4.9,4.29-7.37,9.52-6.56c2.2,4.24,1.25,7.95-.65,12.34-1.74,4-1.37,9-1.53,13.54,0,1,1.49,2.44,2.62,2.9C561.62,431,561.68,431.07,557,436.5Z" transform="translate(-2.52 -3.31)"/><path class="cls-5" d="M449.48,584.1c-6.07,4.69-6.07,4.69-10.64,3,.26-1.59.45-3.24.81-4.86.7-3.18-.5-4.68-3.73-5.35-5.09-1.06-7.61-5.22-9.28-9.55-1-2.68-2.1-3.84-5-4-1.59-.09-4.07-1.46-4.39-2.71-.45-1.77.08-4.63,1.33-5.81a16.25,16.25,0,0,1,7.26-3.5c1.58-.37,3.51.76,5.19,1.87,1.71.37,3.42.84,5.15,1.08a13.27,13.27,0,0,0,4.87.19c3.18-.81,6.22-2.17,9.37-3.09,1.16-.34,2.85-.6,3.68,0,2.42,1.71,4.35,4.14,6.81,5.77,2.27,1.51,5,2.36,7.71,3.61-.88,1.67-1.39,2.63-1.89,3.6-2.68,5.18-2.15,4.79,2.59,8.14,2.75,1.94,4.1,6.2,5.31,9.69.2.58-3.38,3-5.51,3.77-5.19,2-7.28,7.47-5.17,15-5.67,2.63-6.74-3.83-10.32-5.29C448.92,593.68,450.87,588.33,449.48,584.1Z" transform="translate(-2.52 -3.31)"/><path class="cls-6" d="M713.23,791.09c5,3.33,9.92,6.48,14.65,9.87a4.59,4.59,0,0,1,1.4,3.38,128,128,0,0,1-.77,14.25c-.75,5.81,5.65,16.37,11.18,17.63a43.7,43.7,0,0,1,1.66,5.39c.21,1.15.16,3.24-.41,3.5-5,2.27-5.38,6.65-5.31,11.42-.94.23-1.7.34-2.4.59-3.1,1.11-6,2.15-4.25,6.66.41,1.07-1.37,3-2.15,4.48-.95-.92-2.45-1.69-2.75-2.79-1.32-4.77-5.19-6.76-9-8.76-2.34-1.22-3.06-2.48-3.74-5.44-1.28-5.59-2.55-10.3-.22-16.19,1.48-3.73-.39-8.77-.62-13.22a7.92,7.92,0,0,1,.84-2.57c1-3.12,2-6.13-2-8.18-2.13-1.1-3.62-9.2-2.26-11.21C708.89,797.26,710.74,794.66,713.23,791.09Z" transform="translate(-2.52 -3.31)"/><path class="cls-10" d="M763.35,796.27c3.66,2.19,7.12,3.7,9.82,6.06,2.14,1.87,4.77,4.85,4.67,7.23-.15,3.65,1,7.19-2.21,11.54-3.65,4.88-6.8,4.79-11.3,4.72-2.75,0-4.92.55-6.64,3.58-1.19,2.1-4.52,3.22-7.11,4.22a20.81,20.81,0,0,1-7.18,1.27c-7.74.06-13.84-8.83-13.13-16.64.56-6.16,1.3-11.67,6.64-15.33,1.34-.92,3.47-.7,5.24-1,.45-.06,1,.25,1.38.11,3.35-1.2,6.63-2.66,10-3.65S760.6,796.85,763.35,796.27Z" transform="translate(-2.52 -3.31)"/><path class="cls-5" d="M875.5,789.77c2.45,14,14.74,11.93,23.83,15.23,1,5.33-.95,7-6.66,6.29-4.06-.47-8.72-2.17-11.74,2.68a1.91,1.91,0,0,1-1.7.59c-7.46-2.41-9.2,3.11-11.59,8.06-1.87,3.87-4.23,6.21-9.51,4.68-2.75-.8-6.34,1.59-9.61,2.17-1.44.26-3-.4-5.13-.73,2.34-3.36,5.68-6.11,5.23-7.91-1.32-5.32.34-8.47,4.13-11.89,1.61-1.45-2.51-7.11-6-8.74.89-1.63,1.79-3.26,2.67-4.89.07-.13,0-.43.06-.46,4.27-1.77,8.87-5.41,12.75-4.76,4.14.69,7.65,2.21,11.55-.28C874.27,789.53,875,789.77,875.5,789.77Z" transform="translate(-2.52 -3.31)"/><path class="cls-5" d="M777.26,941.53a10,10,0,0,0-1.9-2.51c-1.39-1-3.43-2.55-4.42-2.11-1.37.6-2,2.84-3.46,5.13-1.77.26-5.28-3.86-4.6-7.2,1.54-7.58.79-8.91-5.68-13.18-2-1.34-3.37-3.75-4.74-5.35l2.66-6.71c3-1.9,5.4-3,7.29-4.71,3.17-2.85,6.07-1.4,9.19-.15,5.26,2.11,10.58,4.11,15.9,6,.37.14,1.06-.59,1.58-.93l-.08,0,10.43,12.69-2.91,2.21-10.08-5-.94.82,11.71,29c-1.46-.61-2.33-1-3.18-1.35-.11-.05-.1-.32-.21-.42q-3.91-3.57-7.84-7.12l-4.39,6.92-4.49-6.2Z" transform="translate(-2.52 -3.31)"/><path class="cls-5" d="M596.14,717.85l4.28-2.41-6.94-11.37,3-3.26-4.79-3.65c3.31-3.62,6.62-5.33,11.54-3.54,5.21,1.89,10.65,2.86,14.86-2.57a4.79,4.79,0,0,1,3-1.4c5.67-.68,11.36-1.21,17.51-1.84a5.92,5.92,0,0,1,.42-2.26,5,5,0,0,1,2.34-2.29c.54-.16,1.78,1,2.23,1.83,1,1.78,1.67,3.72,2.47,5.58-4.86,3.26-9.92,6.57-14.83,10.09a3.08,3.08,0,0,0-.27,3c2.32,3.08,1.43,4.8-1.85,6.23-4,1.74-4.24,5.15-2.95,9.74-4-1.33-7.3-2.48-10.64-3.51-1.12-.35-2.93-1-3.41-.49-4.73,4.82-10.68.69-15.63,3.3Z" transform="translate(-2.52 -3.31)"/><path class="cls-5" d="M690.6,796.63c-.84-3.81-2.23-6.58-1.81-9a40.59,40.59,0,0,1,4.07-11.26c.59-1.15,3-1.37,5.69-2.44l-.52-4.7L699,768c3.75,2.82,7.34,5.89,11.29,8.39s8.35,4.49,12.87,6.88c1.08,4.55-10.18,1-4.38,9.48-5.82-3.54-8.18-1.91-9.74,2.07a16.93,16.93,0,0,1-2.82,3.88c-1.61,2-2.46,3.92-.66,6.5.75,1.08.26,3,.37,5.23Z" transform="translate(-2.52 -3.31)"/><path class="cls-5" d="M713.87,459.74c6.41,2.25,11.64,5.39,18.18,3.69,3.36-.87,5.79,2.57,5.15,6a24.14,24.14,0,0,0-.41,4.69,44.65,44.65,0,0,0,.52,4.64c-9.21,3.26-23.82,4.06-41.45,2.2L701,475.3c-1.49-.54-2.91-.77-3.94-1.53a3.43,3.43,0,0,1-1.26-2.71,3,3,0,0,1,2-2c3.17-.2,6.47-.51,9.54.11,5.74,1.16,7.5,0,7-5.62C714.27,462.45,714.09,461.39,713.87,459.74Z" transform="translate(-2.52 -3.31)"/><path class="cls-5" d="M911.13,814.8c-4.79,3.94-9.1,7.49-13.42,11a3.22,3.22,0,0,1-1.23.71q-14.32,3.21-28.65,6.35a47.14,47.14,0,0,1-10.95,1.28c1.43-1.45,2.61-3.39,4.34-4.25,5.19-2.58,9.2-5.76,10.39-11.95.21-1.08,3.59-2,5.56-2.15,2.41-.14,4.15,0,6.25-2.17,1.53-1.55,5.3-1,8.08-1.16.7,0,1.73,1.09,2.12.86C900,809.45,905.12,816.34,911.13,814.8Z" transform="translate(-2.52 -3.31)"/><path class="cls-5" d="M717.13,788.41c9.81-1.81,12.82-5.44,11.37-12,3-2,5.71-2.86,8.49.69a54.63,54.63,0,0,0,6.4,6.44c2.1,1.92,4.37,3.65,7,5.79a30.24,30.24,0,0,1-1.22,3.81c-1.62,3.61-2.45,7.27-8.46,6.54-3-.36-6.48,3.8-9.68,5.88-.13-3.12-1.44-5.5-5.13-7.47C722.53,796.28,720.42,792.21,717.13,788.41Z" transform="translate(-2.52 -3.31)"/><path class="cls-5" d="M555.46,466.55c-8-1.23-11.68-5-12.93-11.17,5.5-4.42,10-1.31,13.28,2.67C557.14,459.69,555.66,463.63,555.46,466.55Z" transform="translate(-2.52 -3.31)"/><path class="cls-5" d="M468.9,588.07l6.65,12.23-8.65,5.06C463.36,592.55,463.57,591.24,468.9,588.07Z" transform="translate(-2.52 -3.31)"/><path class="cls-5" d="M793.7,880.73c3.26,6.49,9,7.48,14.95,8.27,4.08.54,4.76,3.37,4.8,6.48-2.41-.17-4.58-.22-6.72-.52a7.76,7.76,0,0,1-3.44-1.19c-4.66-3.43-9.2-7-13.94-10.66Z" transform="translate(-2.52 -3.31)"/><path class="cls-5" d="M792.38,905.39c-7.29,5.14-13.45,0-20.46-1.73l4.22-2.93Z" transform="translate(-2.52 -3.31)"/><path class="cls-5" d="M782.34,886.63c4.32-3,11.53-.46,19.48,7.78Z" transform="translate(-2.52 -3.31)"/><path class="cls-5" d="M785.94,873.22l5.63,6.46-.58,1.2c-1.16-.09-2.79.27-3.37-.35a46.53,46.53,0,0,1-4.08-5.82Z" transform="translate(-2.52 -3.31)"/><path class="cls-6" d="M288.13,543.24c3.46-1.58,7-3.06,10.36-4.8a4,4,0,0,0,1.9-2.54c.44-3,1.28-5,4.91-3.56a1.9,1.9,0,0,0,1.73-.63c2.73-5.12,6.65-2.48,9.9-1.22,7.91,3.07,7.75,3.16,14.09-2.73,1.71-1.59,4.21-2.31,6.13-3.72a23.78,23.78,0,0,0,3.33-3.67l-.9-.86c-4.74,2.12-9.39,4.49-14.27,6.18-1.34.46-3.74-.74-5-1.88-1.45-1.28-2.19-3.37-3.41-5.38-3.06.89-5.49,1.21-6.36-3.49-.52-2.82-3.75-3.87-7.39-2.59-4.48,1.57-6.46-.73-5.25-5.41a3.06,3.06,0,0,1,1.66-1.93,56.93,56.93,0,0,1,9.08-2.22c8.43-1.06,10.92-3.31,11.84-11.69a67.13,67.13,0,0,0,0-7.21l-7.31.83c9.69-8.56,17.36-11.7,25.56-4.32l2-2.32,3.73,2.78.6-.55c-.92-1.9-2.4-3.74-2.6-5.72-.17-1.72,1.1-3.59,1.93-6-4-5.56,6.6-5.61,4.16-11.49l-5.41-.9c-3.09-9.9-5.93-12.47,7.33-18.6l.08-1.41c-3.32-.06-6.65-.2-10-.17s-6.6.26-9.9.4l-.55-1.41-.65,3.27c-4,1.6-2.07-9.13-9-4.07,1.21-2.61,2.32-5.28,3.69-7.81.59-1.08,1.78-1.82,2.61-2.78,3.33-3.83,7-7.53,3.43-13.27-.48-.77.44-2.41.65-3.35L325,402.49l-9,14.5-1.21-.68,15.9-32.21-9.11,2.65.5.54-5.65,4.27c-.25-6.21,1.67-8.81,6.3-11.09,3-1.5,5-5.92,6.57-9.43a38.37,38.37,0,0,0,3.07-11.65c.4-3.95,1.47-5.7,5.59-4.36,3.35,1.09,4.06-.61,3.49-3.51l-.89-4.55,1.51.71,6.08-7.4,24.34,4.51c.09,2.35.09,4.93-4.45,6.38-5.15,1.64-9.76,5-14.87,7.73l4.53,2.25v1.12l-5.83,1.4,1.44,2.51-3.7.92c.24.51.35,1,.48,1,2.46.1,5,.51,7.38.13,4.71-.76,9.21-2.45,13.55,1.61,1.31,1.23,4.44.26,6.4,1.09,2.55,1.08,5.75,2.45,6.88,4.62,1.63,3.11-1.69,4.58-4.17,5.85-.82.42-2.12,1-2.2,1.57-.89,6.86-6.35,10.36-10.8,14.42-1.7,1.55-4.68,1.69-7.45,2.59l2.87,6.49H347.58c3.53,4.88,7,6.35,12.7,5,2.89-.69,9.13,4.09,10,7.67.07.31-.08.72.08,1,6.18,9.37,2.46,20.24,4.65,30.2a5.49,5.49,0,0,0,2.42,3.11c4.16,2.46,6.42,5.93,8.47,10.41,2.42,5.29-.6,10.43,1.7,15.47L378.75,476l-.52,1.21c3.76,3.32,8.86,6,10.91,10.14s2,9.92-4.18,12.92l3.41,4.48c5.32-3.7,11.61-4,15.66-.95,3.27,2.45,6,9.59,4.89,12.94-2.42,7.53-5.77,10.86-11.13,10.7l-.62,4c-.45,0-.9.1-1.35.13-1.2.08-3.37-.1-3.46.27-1.38,5.26-6,5.74-10.37,6.56l.07,1.39,15.63,5c-1.08,3.92-7.15,7.81-11.32,8.7-10.83,2.31-20.56-2.85-30.86-3.9-1.82-.19-3.38-2.95-5.39-4.82.07,6.06-3.31,5.24-7.42,4.1-1.57-.44-3.62.83-5.45,1.32L337,552c-2.83-1.82-5.77-3.48-8.47-5.48-5.55-4.1-15.49-2.76-18.64,7.39-4.84-.5-6.62-7.39-12.88-5.64-4.32,1.2-9.57-.91-13,3.86l-3-3.23,7.24-5.8Z" transform="translate(-2.52 -3.31)"/><path class="cls-5" d="M324.12,356.76v10.9l-.68.78c-.77-1.22-1.62-2.4-2.28-3.67s-1.26-2.84-1.86-4.23Z" transform="translate(-2.52 -3.31)"/><path class="cls-5" d="M697,57.3,699,65.23l-.86.47L692.4,59.6Z" transform="translate(-2.52 -3.31)"/><path class="cls-5" d="M645.45,420.85l-3.51,13.22c-.75-1.39-1.68-2.33-1.51-2.94,1.07-3.73,2.39-7.4,3.63-11.08Z" transform="translate(-2.52 -3.31)"/><path class="cls-6" d="M176.9,797.22c-3.88,7.27-9.61,5.89-15.82,3.09l4.74,21.76a51.59,51.59,0,0,1-5.14,2.66c-2.93,1.21-6.26,8.26-5.12,11.23,1,2.67,2,5.35,2.55,6.75-5,4-9.64,7.54-14.1,11.31-.63.53-.4,2-.66,3.08-.57,2.34-.72,6.37-1.89,6.69-3.65,1-8.84,2.25-11.34.46-5.3-3.79-10.63-6.28-17.44-6.79a11.92,11.92,0,0,1,1.49-3c4.87-5,6.68-11.26,8.1-18,.79-3.74,3.9-7,5.9-10.48.54-1,1.36-2.23,1.09-3a3.73,3.73,0,0,0-2.64-1.9,47.55,47.55,0,0,0-6.51-.09v-3.64c7.4-1.16,8-1.76,7-7.48-3.57.27-6.34,7-10.79,1.49,2.53-4.48,5-9.17,7.82-13.63.61-1,2.88-.75,3.78-1.67,3.35-3.42,7-6.74,9.52-10.73,4.95-7.8,9.88-15.74,13.53-24.18,2.42-5.58,2.9-12.08,3.7-18.25.76-5.77,1.86-7.24,7.63-7.43,2.08-.07,4.16,0,6.28,0l-1.88,7.79a26.41,26.41,0,0,1,4.8,0c2.35.51,4.6,1.49,7,2,2.65.52,5.38.54,8,1s5.29,1.18,7.89,1.91c3.34.94,4.05,2.88,3.6,6.47-.22,1.78,2.74,4,4.75,6.59l-8.61,4.13c-2.93,1.4-6.07,2.5-8.7,4.33-.94.65-1.06,3.1-.87,4.65a16.16,16.16,0,0,1-5.87,14.49C175.22,791.83,174.11,793.89,176.9,797.22Z" transform="translate(-2.52 -3.31)"/><path class="cls-5" d="M273.17,427.85c1.11,3.17,1.48,6.95,3.48,9.39,4,4.88,7.55,4.19,11-1.71,1.26,2.36,3.39,4.5,3.3,6.55-.19,4.24,1.78,4.48,4.94,4.15a3.09,3.09,0,0,1,2.48,1.5h-3.6c-.25.3-.61.53-.62.77-.42,7.85-.66,15.71-1.3,23.54-.14,1.66-1.64,3.24-2.63,4.78s-2.18,3.16-3.32,4.71c-1.8,2.45-3.63,4.88-5.45,7.32l-1.4-.62,1.81,4.68c-10.91-5.81-20.9-3.56-30.89.66L247.89,490c-2.6,5.67-15.34,6.65-19.83,1.74l2-2.9L225.32,487l4.05-2.81c-5.9-1.65-9.21-3.15-9.53-4.8,6.23.38,9.08-3.73,12-8.42.93-1.51,4.48-1.6,6.88-2,2.62-.4,5.31-.36,8-.52l0-2.07h-8.48l-.33-1.21c4.64-2.71,4.63-11.83,14-8.94-4.51-5.88-12.68-7.53-15.28-15.32h5c.68-1.19,1-2.53,1.92-3.18a20.35,20.35,0,0,1,4.26-1.92l-4.28-4.8c1-1.62,2-5.53,4.08-6.25a6,6,0,0,1,7.69,3.92l9.78,2.84c1.78-1.91,3.13-6.9,8.16-3.71Z" transform="translate(-2.52 -3.31)"/><path class="cls-6" d="M308.79,432.16c1.15,3.26,2.72,5.5,2.4,7.44s-1.54,5.24-5.2,3.46c-.13-.06-.43,0-.46,0-3.31,7.48-8.4-.25-12.08,1.64-1.36-3.5-2.53-6.77-4.06-9.87-.13-.27-3.59.26-3.94,1.08-2,4.76-4.51,3.63-7.23.94A14.6,14.6,0,0,1,275,432.8c-1.21-2.69-.92-4.93,2.74-5.58,1.17-.21,2.18-1.37,3-1.92,2.54-1.9,4.92-3.27,6.77-5.15,3-3.09,15.14-4.38,18.51-1.66C308.62,420.56,309.87,430.93,308.79,432.16Z" transform="translate(-2.52 -3.31)"/><path class="cls-6" d="M273.16,427.87l1-4.33L267,420c3.29-1.58,5.72-2,7.64-5.58,1.28-2.41,7.1-2.41,11.32-3.61l1,5.57c1.71-5.48,4.24-6.19,7.67-4-3.62,3.15-6.64,6.08-10,8.55-1.47,1.08-3.62,1.23-4.49,1.51l-7,5.39Z" transform="translate(-2.52 -3.31)"/><path class="cls-5" d="M625.68,943.12l-5.21,9.34c-1.16-.1-3.43.13-5.35-.57a14.6,14.6,0,0,1-6.15-3.83c-3.32-4-6.36-6.86-12.33-7.61-5-.63-9.41-5.37-14.19-8.1-3-1.7-6.19-2.93-9.17-4.6-2.45-1.37-5.83-2.59-6.78-4.76a5.74,5.74,0,0,1,3.53-7.85,13.84,13.84,0,0,0,2.32-1.57c4.27,6,7.4.76,10.69-1.51,2.9,4.33,9.84,6.73,14.15,6.06,8.16-1.27,16.4-2,24.59-3.07,1.48-.2,2.83-1.31,4.26-1.94,1.81-.8,3.65-1.55,5.73-2.43-2.95,6-4.89,12-8.43,16.79C618.34,934.2,624.66,938.26,625.68,943.12Z" transform="translate(-2.52 -3.31)"/><path class="cls-5" d="M562.26,451.13l8-6,.39,5.63,5.57-1.71a15.06,15.06,0,0,0,0-3.68c-.86-3,.63-4.48,3.25-4.4,2.17.07,4.43.75,4,4.09-.29,2.18.17,4.46.29,6.74-6.55,3.3-6.81,4-3.28,9.66-4.75,2.79-5,3.81-2.17,9.32-2.14-1.31-5.59-2.22-6.13-4-1.1-3.64-3.22-4.09-6.25-4.63-1.08-.19-2.27-2.2-2.61-3.57A55,55,0,0,1,562.26,451.13Z" transform="translate(-2.52 -3.31)"/><path class="cls-5" d="M575.68,472.27l-2,5.57c-3.69-1.12-7.44-2.08-11-3.48-.91-.36-1.27-2.11-1.89-3.22,1.2,0,2.72-.37,3.54.21,2.22,1.57,4,2.91,6.7.58C571.78,471.3,573.74,472.09,575.68,472.27Z" transform="translate(-2.52 -3.31)"/><path class="cls-5" d="M1038.39,943.27l-17,15.34c-6.46-1-15.32,3.23-17.23-8.14,3.38-1.47,7.23-2.81,10.68-4.84,1-.6.89-3.13,1.45-5.42,3.27-.58,7.14-.84,10.7-2s6.84-3.3,9.69-4.73Z" transform="translate(-2.52 -3.31)"/><path class="cls-5" d="M494.48,801.51c.76-9.64,5.77-13.61,15.3-12.51l1.09-6.68c3.94,14.34-.24,26.94-7.22,39.64l-6.49-4.76,1-.26L495.31,804l1.53-.5Z" transform="translate(-2.52 -3.31)"/><path class="cls-9" d="M491.92,888l-9-4.81a14.64,14.64,0,0,0,.86-2.37c1-5.05,2-10.1,2.72-15.19.25-1.69-.21-3.49-.29-5.24a15.45,15.45,0,0,1,0-3.75c1.09-5.27.59-10-2.84-14.55-1.35-1.8-.94-4.93-1.43-8.14l5.32,2.09c4.76,1.23,8.16-1.36,11.7-3.93,2-1.45,4.62-3.44,6.61-3.11,2.44.4,4.12,2.41,3.92,6.34-.19,3.74,2.84,7.64,4.58,11.76-6,3.76-3.23,10-4.17,15.2-1.16,6.48-2.24,13-3.45,20.07-2.26-1-3.08-1.42-3.93-1.77-4.2-1.7-6.21-.72-8,3.51A22.42,22.42,0,0,1,491.92,888Z" transform="translate(-2.52 -3.31)"/><path class="cls-5" d="M675.16,393c-.62,3.89-.85,8.08-2,12-1,3.21-3.08,6.07-5.35,8.87-2.41-4.52-4.33-8.35-1-13.31C669.3,396.73,670.82,392.62,675.16,393Z" transform="translate(-2.52 -3.31)"/><path class="cls-5" d="M404.72,308l3.21-6.62c1.85,2,1.85,2,.65,8.76Z" transform="translate(-2.52 -3.31)"/><path class="cls-5" d="M319.14,345.93,318.06,342l12.24-5.8C329.26,341,324.34,345.32,319.14,345.93Z" transform="translate(-2.52 -3.31)"/><path class="cls-5" d="M382.07,853.65c-2.26,2.51-4.18,5.56-6.93,7.29-1.24.78-5.82-.75-6-1.76-.91-5.09-4.62-5.52-8.62-6.85L375.9,846c-.31,5.29,1.6,7,5.62,6.22Z" transform="translate(-2.52 -3.31)"/><path class="cls-5" d="M732.26,371.08c-2.56,5.77-7.4,7.94-12.53,9.55-.76.24-2.63-.7-2.76-1.34-.31-1.52-.41-4.27.34-4.63C721.82,372.43,726.13,368.65,732.26,371.08Z" transform="translate(-2.52 -3.31)"/><path class="cls-5" d="M846.36,867.53c2.65-1.18,5.61-3.69,7.86-3.17s3.79,4.08,5.64,6.31l-.65,1.2-4.32-.54-.44-4.07c-1.27.27-2.55.5-3.8.84s-2.45.78-3.68,1.18Z" transform="translate(-2.52 -3.31)"/><path class="cls-5" d="M908.28,934.93l-7.22,15C898,940.88,899.56,937.22,908.28,934.93Z" transform="translate(-2.52 -3.31)"/><path class="cls-5" d="M849.29,885c1.39.57,3.44.76,4,1.79,2,3.38,1.31,5.38-2.76,7.76,3.66-4.48,1-6.3-2.56-7.73Z" transform="translate(-2.52 -3.31)"/><path class="cls-5" d="M721.84,365.87l.44-7.66,6.69,3Z" transform="translate(-2.52 -3.31)"/><path class="cls-5" d="M738.88,903l1.61,6.36-6.81-1.57Z" transform="translate(-2.52 -3.31)"/><g class="cls-11"><path class="cls-5" d="M359,831.25c-1.48,3.85-4,5.77-8.14,4.84l-.66-1.73,9-3Z" transform="translate(-2.52 -3.31)"/><path class="cls-12" d="M426.31,698.28l-5.8-13c7.09-14.62,14.66-30.67,22.69-46.48,2.2-4.34,5.81-8,9.3-12.62-5.71-4.5-3-10.91-.81-17.3,1.79-5.33,3.09-10.88,5.45-15.94,1-2.16,4.14-3.34,7.54-5.89l-3.22-6.18,7-31.2c-15.94-3.72-19.14-18-25.27-29.92a5.72,5.72,0,0,1-.08-4.34c3.94-9.08,2.94-16.7-6.08-22.21-1.15-16.54-19.1-17.64-26.74-28.58-5.1-7.29-12.81-12.83-23.14-13.5-2.65-.17-5-5.48-8-9.13l10.19-4.23c-4.39-4-8.71-7-11.72-11-4.31-5.71-2.64-10,4.44-10.35,10.07-.49,20.22.43,30.32,1,12,.68,18.33,4.23,26.83,13.1,1.53,1.6,5.26,1.34,8,1.52,4.09.28,8.31-.38,12.27.39,5.55,1.07,10.83,3.72,16.4,4.47,4.72.64,5.93-1.86,7.89-7.3,5.17-14.36-3.88-27.3-1.36-40.86l15.38,2L497,403.61c11.36,4.07,20.72,8.16,30.49,10.6,4.74,1.18,10.26-.74,16.66-1.37-4.45-9.92.25-12.68,7.66-15,13.55-4.31,26.85-9.44,40-14.84,2.16-.88,3-4.87,4.46-7.44.12-.22,0-.59,0-.88,1.53-27.48,3.09-27.23,31.48-26.74,2.15,5.45,3.78,10.52,6.21,15.16.74,1.42,4.45,2.93,5.54,2.28,7-4.09,7.62,1.12,8.68,5.49,1.31,5.41,11.84,17,17.25,17.68,6.09.72,7.18,3.81,6.4,9.12-1.75,11.86,3.59,15.44,15.54,10.69.49-.2,1.06-.21-.08,1.35,7.72,8.29,14.63,17.61,23.48,24.46,5.08,3.93,13.3,3.83,20.09,5.6,5,1.3,10.93,1,11.49,8.57.54,7.33,5.83,8.16,12.24,9.88,11.65,3.14,22.61,8.81,34.24,13.58C773.36,490,766.07,511,762.61,533.68c-.93,6.09-3.7,8.26-9.93,5.12-7.75-3.9-7.86-2.09-10.31,5.76-1.84,5.89-8.68,10.24-13.33,15.24-2.2,2.37-4.6,4.56-6.66,7-.9,1.09-.86,3.68-1.75,3.95-14.25,4.32-9.35,19.91-19.49,28.7,8.06,1.07,12.56,2.45,15-5.61.89-2.9,7.45-4.49,11.7-5.64,1-.27,4.1,3.49,4.58,5.75,1.3,6.13,1.71,12.44,2.7,20.46.58-.33-1,1-2.81,1.48-5.84,1.4-5.31,4.76-3,8.7,1.81,3.06,4.1,5.85,5.69,9,4.66,9.29,3,12.54-7.28,15.07-2.69.66-5.31,1.56-9.25,2.73,4.35,6.58,8.06,11.7,11.14,17.17.78,1.39.31,4.75-.85,5.73-6.6,5.55-6.4,13.47-2.22,18.19,5.13,5.8,10.11,15.63,23.31,9.44-2.64,9.37-6.26,15.79-12.77,19.89-7.49,4.72-15.58,8.49-23.36,12.75a11.58,11.58,0,0,0-3.48,2.77c-2.15,2.7-3.91,7.83-6.1,8-8.69.59-17.74.75-26.15-1.15-5.38-1.21-10.46-4.54-13.32-11.58-1.55-3.8-11.28-4.32-17.32-6.31-7.79-2.57-15.5-5.46-23.41-7.59-4.25-1.14-9.1-2.07-13.24-1.15-6.55,1.45-12.63,4.88-19.1,6.86-10.11,3.08-17.12,12.84-18.13,26.17-.52,6.83-8.43,13.39-15.2,12.32-5.55-.87-11.25-1.56-16.5-3.4-3.48-1.22-8.72-4.09-9-6.63-.94-9.69-11.32-8-15.33-14.07-2.18-3.27-7.9-4.05-11.72-6.43-4.95-3.08-9.51-5.36-14.23.3a3.6,3.6,0,0,1-3.3.64c-8.42-3.84-18-2.54-26.18-9.75-11-9.65-24.88-16-37.52-23.77Z" transform="translate(-2.52 -3.31)"/><path class="cls-13" d="M426.31,698.28l-5.8-13c7.09-14.62,14.66-30.67,22.69-46.48,2.2-4.34,5.81-8,9.3-12.62-5.71-4.5-3-10.91-.81-17.3,1.79-5.33,3.09-10.88,5.45-15.94,1-2.16,4.14-3.34,7.54-5.89l-3.22-6.18,7-31.2c-15.94-3.72-19.14-18-25.27-29.92a5.72,5.72,0,0,1-.08-4.34c3.94-9.08,2.94-16.7-6.08-22.21-1.15-16.54-19.1-17.64-26.74-28.58-5.1-7.29-12.81-12.83-23.14-13.5-2.65-.17-5-5.48-8-9.13l10.19-4.23c-4.39-4-8.71-7-11.72-11-4.31-5.71-2.64-10,4.44-10.35,10.07-.49,20.22.43,30.32,1,12,.68,18.33,4.23,26.83,13.1,1.53,1.6,5.26,1.34,8,1.52,4.09.28,8.31-.38,12.27.39,5.55,1.07,10.83,3.72,16.4,4.47,4.72.64,5.93-1.86,7.89-7.3,5.17-14.36-3.88-27.3-1.36-40.86l15.38,2L497,403.61c11.36,4.07,20.72,8.16,30.49,10.6,4.74,1.18,10.26-.74,16.66-1.37-4.45-9.92.25-12.68,7.66-15,13.55-4.31,26.85-9.44,40-14.84,2.16-.88,3-4.87,4.46-7.44.12-.22,0-.59,0-.88,1.53-27.48,3.09-27.23,31.48-26.74,2.15,5.45,3.78,10.52,6.21,15.16.74,1.42,4.45,2.93,5.54,2.28,7-4.09,7.62,1.12,8.68,5.49,1.31,5.41,11.84,17,17.25,17.68,6.09.72,7.18,3.81,6.4,9.12-1.75,11.86,3.59,15.44,15.54,10.69.49-.2,1.06-.21-.08,1.35,7.72,8.29,14.63,17.61,23.48,24.46,5.08,3.93,13.3,3.83,20.09,5.6,5,1.3,10.93,1,11.49,8.57.54,7.33,5.83,8.16,12.24,9.88,11.65,3.14,22.61,8.81,34.24,13.58C773.36,490,766.07,511,762.61,533.68c-.93,6.09-3.7,8.26-9.93,5.12-7.75-3.9-7.86-2.09-10.31,5.76-1.84,5.89-8.68,10.24-13.33,15.24-2.2,2.37-4.6,4.56-6.66,7-.9,1.09-.86,3.68-1.75,3.95-14.25,4.32-9.35,19.91-19.49,28.7,8.06,1.07,12.56,2.45,15-5.61.89-2.9,7.45-4.49,11.7-5.64,1-.27,4.1,3.49,4.58,5.75,1.3,6.13,1.71,12.44,2.7,20.46.58-.33-1,1-2.81,1.48-5.84,1.4-5.31,4.76-3,8.7,1.81,3.06,4.1,5.85,5.69,9,4.66,9.29,3,12.54-7.28,15.07-2.69.66-5.31,1.56-9.25,2.73,4.35,6.58,8.06,11.7,11.14,17.17.78,1.39.31,4.75-.85,5.73-6.6,5.55-6.4,13.47-2.22,18.19,5.13,5.8,10.11,15.63,23.31,9.44-2.64,9.37-6.26,15.79-12.77,19.89-7.49,4.72-15.58,8.49-23.36,12.75a11.58,11.58,0,0,0-3.48,2.77c-2.15,2.7-3.91,7.83-6.1,8-8.69.59-17.74.75-26.15-1.15-5.38-1.21-10.46-4.54-13.32-11.58-1.55-3.8-11.28-4.32-17.32-6.31-7.79-2.57-15.5-5.46-23.41-7.59-4.25-1.14-9.1-2.07-13.24-1.15-6.55,1.45-12.63,4.88-19.1,6.86-10.11,3.08-17.12,12.84-18.13,26.17-.52,6.83-8.43,13.39-15.2,12.32-5.55-.87-11.25-1.56-16.5-3.4-3.48-1.22-8.72-4.09-9-6.63-.94-9.69-11.32-8-15.33-14.07-2.18-3.27-7.9-4.05-11.72-6.43-4.95-3.08-9.51-5.36-14.23.3a3.6,3.6,0,0,1-3.3.64c-8.42-3.84-18-2.54-26.18-9.75-11-9.65-24.88-16-37.52-23.77Z" transform="translate(-2.52 -3.31)"/><path class="cls-12" d="M222.3,618.45c1.68,8.8,9.25,8.79,15.73,10.4l37.41,9.28c1.82,1.15,5.43,3.76,9.34,5.8,7.65,4,15.77,7.17,23.16,11.58,11.78,7,24.9,7.3,37.84,9.18,4.68.68,9,4,13.45,6.09,3.95,4,7.23,6.13,13.94,3.22,3.56-1.54,11.49,2.51,15,6.3,4.5,4.87,8.81,6.59,14.88,5.86a33.08,33.08,0,0,1,5.4-.26c9.59.42,13.95,6.08,12.73,16.13,9.52,5.67,21.7,7.24,27.27,18.55.13.26.31.61.54.7,13.57,4.79,25.39,14.17,40.34,15.33,1.13.09,3,0,3.36-.7,5.1-8.9,11.09-1.94,14.95.34s9.21,6,7.49,13.19c-1.47,6.12,2.32,7.26,8,6.86,3.9-.27,8,1.55,11.94,2.76,9.94,3.07,19.59,7.8,30.5,4.49,3.36-1,6.81-1.73,10.38-2.62l3.45,10.68c-9.8,4,0,12.65-5.2,20.48-9.37,3.73-21,8.24-32.49,13-5.3,2.2-10.15,6.11-15.61,7.16-12.51,2.4-25.33,3.15-37.89,5.29-9.65,1.65-13.27,6.52-11.88,12.44-4.64,3.19-9.35,5.68-13.11,9.17-12.16,11.3-24,22.9-35.9,34.51-10.94,10.71-10.15,33.39,1.34,43.2,2,1.73,4,3.56,8,7.16-27.4,5.51-45.19,20.21-53.74,43.38-9.3,1-18.33,1.14-26.84,3.31-5.42,1.38-10.57,5.23-14.92,9-6.59,5.74-12.37,12.38-19,19.12-6.7-6.4-13.18-7.38-20.35-3a7.88,7.88,0,0,1-5.86.51c-14.38-4.85-28.4-11.19-43.11-14.47-7.91-1.76-16.57-8-25.35-1.55-4.15,3-7.91,3.94-13.74,3.05-8.3-1.26-17.51-1.25-24.19,7.31s-11.4,7.79-19.26-.3c-7.16-7.38-13.47-14.63-10.75-26.09.44-1.84-1.95-4.35-2.53-5.53.69-10.64-5.31-17.33-10.57-25-5.84-8.56-12-14.48-22.75-12.16-1.59-22.56,11.86-32.11,30-37.6-2-5.25-3.84-9.86-5.51-14.52-3.18-8.89,0-15.6,8.67-19.91a38.4,38.4,0,0,0,9.23-6.9c1.19-1.14,2.12-4.71,1.55-5.16-10.21-8.16-4.2-20.2-8.33-29.95,23.18.86,31.21-5.8,25.5-17.38,5.53-9.7,10.52-18.07,15.05-26.68a13.23,13.23,0,0,0,1.13-7.85c-1.61-9.48,5.06-12.53,11.7-15.57,6.2-2.85,12.73-5,18.76-8.17,5-2.61,5.67-6.4-.13-9-4.58-2.07-5.74-4.82-5.43-9.82.19-2.93-2.32-8.07-4.63-8.74-7.51-2.16-14-10.48-23.39-4.32-1.43.94-5-1-7.42-1.89-6.55-2.33-13.06-4.8-19.58-7.21l-2.38,2.06c.61-2.18,1.08-4.42,1.88-6.53a57.31,57.31,0,0,1,2.77-5.51c-2.07-1-4.18-2.77-6.22-2.71-7.39.24-14.76,1.11-23.53,1.87,2.16-8.54,11-7.68,15.89-12.7-.11-6.42-7.8-14.28,1.79-20.16C157,641.5,153,636.59,149.7,631.28c-.84-1.34-.13-5.49.7-5.75,7.41-2.33,14.92-4.89,22.58-5.72,5.13-.55,10.55,1.6,13.41,2.1,3.83-4.2,5.92-8.45,9.17-9.69C205.52,608.44,215.33,608.21,222.3,618.45Z" transform="translate(-2.52 -3.31)"/><path class="cls-14" d="M222.3,618.45c1.68,8.8,9.25,8.79,15.73,10.4l37.41,9.28c1.82,1.15,5.43,3.76,9.34,5.8,7.65,4,15.77,7.17,23.16,11.58,11.78,7,24.9,7.3,37.84,9.18,4.68.68,9,4,13.45,6.09,3.95,4,7.23,6.13,13.94,3.22,3.56-1.54,11.49,2.51,15,6.3,4.5,4.87,8.81,6.59,14.88,5.86a33.08,33.08,0,0,1,5.4-.26c9.59.42,13.95,6.08,12.73,16.13,9.52,5.67,21.7,7.24,27.27,18.55.13.26.31.61.54.7,13.57,4.79,25.39,14.17,40.34,15.33,1.13.09,3,0,3.36-.7,5.1-8.9,11.09-1.94,14.95.34s9.21,6,7.49,13.19c-1.47,6.12,2.32,7.26,8,6.86,3.9-.27,8,1.55,11.94,2.76,9.94,3.07,19.59,7.8,30.5,4.49,3.36-1,6.81-1.73,10.38-2.62l3.45,10.68c-9.8,4,0,12.65-5.2,20.48-9.37,3.73-21,8.24-32.49,13-5.3,2.2-10.15,6.11-15.61,7.16-12.51,2.4-25.33,3.15-37.89,5.29-9.65,1.65-13.27,6.52-11.88,12.44-4.64,3.19-9.35,5.68-13.11,9.17-12.16,11.3-24,22.9-35.9,34.51-10.94,10.71-10.15,33.39,1.34,43.2,2,1.73,4,3.56,8,7.16-27.4,5.51-45.19,20.21-53.74,43.38-9.3,1-18.33,1.14-26.84,3.31-5.42,1.38-10.57,5.23-14.92,9-6.59,5.74-12.37,12.38-19,19.12-6.7-6.4-13.18-7.38-20.35-3a7.88,7.88,0,0,1-5.86.51c-14.38-4.85-28.4-11.19-43.11-14.47-7.91-1.76-16.57-8-25.35-1.55-4.15,3-7.91,3.94-13.74,3.05-8.3-1.26-17.51-1.25-24.19,7.31s-11.4,7.79-19.26-.3c-7.16-7.38-13.47-14.63-10.75-26.09.44-1.84-1.95-4.35-2.53-5.53.69-10.64-5.31-17.33-10.57-25-5.84-8.56-12-14.48-22.75-12.16-1.59-22.56,11.86-32.11,30-37.6-2-5.25-3.84-9.86-5.51-14.52-3.18-8.89,0-15.6,8.67-19.91a38.4,38.4,0,0,0,9.23-6.9c1.19-1.14,2.12-4.71,1.55-5.16-10.21-8.16-4.2-20.2-8.33-29.95,23.18.86,31.21-5.8,25.5-17.38,5.53-9.7,10.52-18.07,15.05-26.68a13.23,13.23,0,0,0,1.13-7.85c-1.61-9.48,5.06-12.53,11.7-15.57,6.2-2.85,12.73-5,18.76-8.17,5-2.61,5.67-6.4-.13-9-4.58-2.07-5.74-4.82-5.43-9.82.19-2.93-2.32-8.07-4.63-8.74-7.51-2.16-14-10.48-23.39-4.32-1.43.94-5-1-7.42-1.89-6.55-2.33-13.06-4.8-19.58-7.21l-2.38,2.06c.61-2.18,1.08-4.42,1.88-6.53a57.31,57.31,0,0,1,2.77-5.51c-2.07-1-4.18-2.77-6.22-2.71-7.39.24-14.76,1.11-23.53,1.87,2.16-8.54,11-7.68,15.89-12.7-.11-6.42-7.8-14.28,1.79-20.16C157,641.5,153,636.59,149.7,631.28c-.84-1.34-.13-5.49.7-5.75,7.41-2.33,14.92-4.89,22.58-5.72,5.13-.55,10.55,1.6,13.41,2.1,3.83-4.2,5.92-8.45,9.17-9.69C205.52,608.44,215.33,608.21,222.3,618.45Z" transform="translate(-2.52 -3.31)"/><text class="cls-15" transform="translate(597.45 468.82) scale(1.55 1)">PARIS</text><text class="cls-15" transform="translate(335.21 833.2) scale(1.46 1)">madrid</text><path class="cls-16" d="M329.56,817.33a4.05,4.05,0,0,1-5.67,2,4.82,4.82,0,0,1-1.83-6.2,4.05,4.05,0,0,1,5.67-2A4.82,4.82,0,0,1,329.56,817.33Z" transform="translate(-2.52 -3.31)"/><ellipse class="cls-17" cx="323.28" cy="811.93" rx="2.69" ry="2.72"/><path class="cls-16" d="M591.16,458.5a4.05,4.05,0,0,1-5.67,2,4.82,4.82,0,0,1-1.83-6.2,4.05,4.05,0,0,1,5.67-2A4.82,4.82,0,0,1,591.16,458.5Z" transform="translate(-2.52 -3.31)"/><ellipse class="cls-17" cx="584.89" cy="453.1" rx="2.69" ry="2.72"/></g></svg>